<svg width="24" height="23" xmlns="http://www.w3.org/2000/svg" xmlns:xlink="http://www.w3.org/1999/xlink" xml:space="preserve" overflow="hidden"><defs><clipPath id="clip0"><rect x="386" y="169" width="24" height="23"/></clipPath></defs><g clip-path="url(#clip0)" transform="translate(-386 -169)"><path d="M21.8811 0C22.499 -1.45292e-16 23 0.500957 23 1.11892L23 21.8811C23 22.499 22.499 23 21.8811 23L1.11892 23C0.500956 23-9.11078e-07 22.499-9.11078e-07 21.8811L-9.11078e-07 1.11892C-9.11078e-07 0.500956 0.500956-9.11078e-07 1.11892-9.11078e-07Z" fill="#FF9900" transform="matrix(1.04348 0 0 1 386 169)"/><path d="M17.1271 4.61689 8.57877 5.95523" stroke="#1E1E1C" stroke-width="0.85064" stroke-miterlimit="10" fill="none" transform="matrix(1.04348 0 0 1 386.043 169.532)"/><path d="M19.1312 4.85795C18.954 5.66314 18.1665 6.16651 17.3613 5.98927 16.5561 5.81204 16.0528 5.02454 16.23 4.21935 16.4072 3.41416 17.2011 2.9122 18.0063 3.08943 18.7937 3.25605 19.3085 4.05276 19.1312 4.85795" fill="#FFFFFF" transform="matrix(1.04348 0 0 1 386.043 169.532)"/><path d="M7.78918 6.51692 5.20283 14.7738" stroke="#1E1E1C" stroke-width="0.85064" stroke-miterlimit="10" fill="none" transform="matrix(1.04348 0 0 1 386.043 169.532)"/><path d="M18.9361 8.68069 18.9073 17.4264" stroke="#1E1E1C" stroke-width="0.859808" stroke-miterlimit="10" fill="none" transform="matrix(0.88809 -0.504421 0.526352 0.851087 375.458 181.759)"/><path d="M18.949 4.51498 18.9202 13.2607" stroke="#1E1E1C" stroke-width="0.859808" stroke-miterlimit="10" fill="none" transform="matrix(0.88809 -0.504421 0.526352 0.851087 375.458 181.759)"/><path d="M9.41508 6.35164C9.23782 7.15683 8.45032 7.66021 7.64516 7.48295 6.83993 7.30576 6.33658 6.51824 6.51382 5.71305 6.69107 4.90786 7.48491 4.4059 8.29014 4.58313 9.07757 4.74975 9.59228 5.54645 9.41508 6.35164" fill="#FFFFFF" transform="matrix(1.04348 0 0 1 386.043 169.532)"/><path d="M6.41173 15.8372C6.23449 16.6423 5.447 17.1457 4.64181 16.9685 3.83661 16.7912 3.33325 16.0037 3.51048 15.1986 3.68771 14.3934 4.4816 13.8914 5.28679 14.0686 6.07422 14.2353 6.58893 15.032 6.41173 15.8372" fill="#FFFFFF" transform="matrix(1.04348 0 0 1 386.043 169.532)"/><path d="M16.2437 17.9068C16.0664 18.7121 15.2789 19.2154 14.4738 19.0382 13.6685 18.8609 13.1652 18.0734 13.3424 17.2683 13.5197 16.463 14.3135 15.9611 15.1188 16.1383 15.9062 16.3049 16.4209 17.1017 16.2437 17.9068" fill="#FFFFFF" transform="matrix(1.04348 0 0 1 386.043 169.532)"/></g></svg>