<svg width="23" height="23" xmlns="http://www.w3.org/2000/svg" xmlns:xlink="http://www.w3.org/1999/xlink" xml:space="preserve" overflow="hidden"><g transform="translate(-438 -379)"><path d="M459.881 379C460.499 379 461 379.501 461 380.119L461 400.881C461 401.499 460.499 402 459.881 402L439.119 402C438.501 402 438 401.499 438 400.881L438 380.119C438 379.501 438.501 379 439.119 379Z" fill="#FF004D"/><path d="M445.947 386.236 449.379 386.236 449.379 394.758 445.947 394.758Z" fill="#FFFFFF"/><path d="M449.38 381.771 449.38 385.202 440.858 385.202 440.858 381.771Z" fill="#FFFFFF"/><path d="M449.379 395.791 449.379 399.223 440.857 399.223 440.857 395.791Z" fill="#FFFFFF"/><path d="M458.93 388.788 458.93 392.219 450.408 392.219 450.408 388.788Z" fill="#FFFFFF"/></g></svg>