<svg width="24" height="24" xmlns="http://www.w3.org/2000/svg" xmlns:xlink="http://www.w3.org/1999/xlink" xml:space="preserve" overflow="hidden"><defs><clipPath id="clip0"><rect x="884" y="319" width="24" height="24"/></clipPath><clipPath id="clip1"><path d="M912.341 329.79 897.022 314.471C896.565 314.013 896.565 313.277 897.022 312.819L912.341 297.5C912.799 297.043 913.535 297.043 913.993 297.5L929.312 312.819C929.769 313.277 929.769 314.013 929.312 314.471L913.993 329.79C913.535 330.247 912.799 330.247 912.341 329.79Z"/></clipPath></defs><g clip-path="url(#clip0)" transform="translate(-884 -319)"><path d="M906.832 319C907.477 319 908 319.523 908 320.168L908 341.832C908 342.477 907.477 343 906.832 343L885.168 343C884.523 343 884 342.477 884 341.832L884 320.168C884 319.523 884.523 319 885.168 319Z" fill="#FF004C"/><path d="M903.992 343.034 903.992 340.248" stroke="#1D1D1B" stroke-width="0.68386" stroke-miterlimit="10" fill="none"/><path d="M899.957 343.034 899.957 340.248" stroke="#1D1D1B" stroke-width="0.68386" stroke-miterlimit="10" fill="none"/><path d="M895.922 343.034 895.922 338.731" stroke="#1D1D1B" stroke-width="0.720997" stroke-miterlimit="10" fill="none"/><path d="M887.858 343.034 887.858 340.248" stroke="#1D1D1B" stroke-width="0.68386" stroke-miterlimit="10" fill="none"/><path d="M891.893 343.034 891.893 340.248" stroke="#1D1D1B" stroke-width="0.68386" stroke-miterlimit="10" fill="none"/><path d="M889.824 321.799 896.003 321.799 896.003 325.186 889.824 325.186Z" fill="#C6C6C6"/><path d="M889.831 333.987 896.01 333.987 896.01 337.374 889.831 337.374Z" fill="#C6C6C6"/><path d="M896.003 333.987 903.992 333.987 903.992 337.374 896.003 337.374Z" fill="#FFFFFF"/><path d="M891.9 327.886 896.01 327.886 896.01 331.273 891.9 331.273Z" fill="#C6C6C6"/><path d="M896.003 327.886 905.904 327.886 905.904 331.273 896.003 331.273Z" fill="#FFFFFF"/><path d="M885.939 321.799 896.01 321.799 896.01 325.186 885.939 325.186Z" fill="#C6C6C6"/><path d="M896.003 321.799 900.455 321.799 900.455 325.186 896.003 325.186Z" fill="#FFFFFF"/><g clip-path="url(#clip1)"><path d="M906.832 343 885.168 343C884.521 343 884 342.479 884 341.832L884 320.168C884 319.521 884.521 319 885.168 319L906.832 319C907.479 319 908 319.521 908 320.168L908 341.832C908 342.479 907.479 343 906.832 343Z" fill="#0099FF"/></g><path d="M904.862 323.276 897.343 315.757 897.597 315.503 897.852 315.248 905.37 322.767 912.889 330.285 912.634 330.54 912.38 330.794Z" fill="#FFFFFF"/></g></svg>