<svg width="23" height="23" xmlns="http://www.w3.org/2000/svg" xmlns:xlink="http://www.w3.org/1999/xlink" xml:space="preserve" overflow="hidden"><defs><clipPath id="clip0"><rect x="944" y="480" width="23" height="23"/></clipPath><clipPath id="clip1"><path d="M971.161 490.34 956.48 475.659C956.041 475.221 956.041 474.515 956.48 474.077L971.161 459.396C971.599 458.957 972.305 458.957 972.743 459.396L987.424 474.077C987.862 474.515 987.862 475.221 987.424 475.659L972.743 490.34C972.305 490.779 971.599 490.779 971.161 490.34Z"/></clipPath></defs><g clip-path="url(#clip0)" transform="translate(-944 -480)"><path d="M965.881 480C966.499 480 967 480.501 967 481.119L967 501.881C967 502.499 966.499 503 965.881 503L945.119 503C944.501 503 944 502.499 944 501.881L944 481.119C944 480.501 944.501 480 945.119 480Z" fill="#FF004C"/><path d="M944.661 482.683 955.497 482.683 955.497 485.928 944.661 485.928Z" fill="#FFFFFF"/><path d="M944.661 494.356 951.662 494.356 951.662 497.602 944.661 497.602Z" fill="#FFFFFF"/><path d="M944.661 488.52 963.166 488.52 963.166 491.765 944.661 491.765Z" fill="#FFFFFF"/><path d="M959.331 502.993 959.331 500.324" stroke="#000000" stroke-width="0.653538" stroke-miterlimit="10" fill="none"/><path d="M955.497 502.993 955.497 500.324" stroke="#000000" stroke-width="0.653538" stroke-miterlimit="10" fill="none"/><path d="M951.669 502.993 951.669 500.324" stroke="#000000" stroke-width="0.653538" stroke-miterlimit="10" fill="none"/><path d="M947.834 502.993 947.834 500.324" stroke="#000000" stroke-width="0.653538" stroke-miterlimit="10" fill="none"/><path d="M963.166 502.993 963.166 500.324" stroke="#000000" stroke-width="0.653538" stroke-miterlimit="10" fill="none"/><g clip-path="url(#clip1)"><path d="M965.881 503 945.119 503C944.499 503 944 502.501 944 501.881L944 481.119C944 480.499 944.499 480 945.119 480L965.881 480C966.501 480 967 480.499 967 481.119L967 501.881C967 502.501 966.501 503 965.881 503Z" fill="#0099FF"/></g><path d="M963.992 484.097 956.787 476.892 957.031 476.648 957.275 476.405 964.48 483.61 971.685 490.815 971.441 491.059 971.197 491.303Z" fill="#FFFFFF"/></g></svg>