<svg width="23" height="23" xmlns="http://www.w3.org/2000/svg" xmlns:xlink="http://www.w3.org/1999/xlink" xml:space="preserve" overflow="hidden"><g transform="translate(-672 -521)"><path d="M693.881 521C694.499 521 695 521.501 695 522.119L695 542.881C695 543.499 694.499 544 693.881 544L673.119 544C672.501 544 672 543.499 672 542.881L672 522.119C672 521.501 672.501 521 673.119 521Z" fill="#FF9900"/><path d="M679.335 528.99C679.335 529.814 678.674 530.475 677.85 530.475 677.025 530.475 676.364 529.814 676.364 528.99 676.364 528.165 677.032 527.504 677.856 527.504 678.661 527.498 679.335 528.165 679.335 528.99" fill="#FFFFFF"/><path d="M687.168 532.514C687.168 536.296 684.102 539.363 680.32 539.363 676.537 539.363 673.471 536.296 673.471 532.514 673.471 528.732 676.537 525.665 680.32 525.665 684.102 525.665 687.168 528.732 687.168 532.514Z" stroke="#000000" stroke-width="0.710612" stroke-miterlimit="10" fill="none"/><path d="M677.518 532.497C677.518 533.321 676.857 533.982 676.033 533.982 675.209 533.982 674.548 533.321 674.548 532.497 674.548 531.672 675.215 531.011 676.04 531.011 676.844 531.005 677.518 531.672 677.518 532.497" fill="#FFFFFF"/><path d="M690.747 529.842C690.747 530.667 690.086 531.328 689.261 531.328 688.437 531.328 687.776 530.667 687.776 529.842 687.776 529.018 688.443 528.357 689.268 528.357 690.073 528.35 690.747 529.018 690.747 529.842" fill="#FFFFFF"/><path d="M691.917 534.523C691.917 535.348 691.256 536.009 690.432 536.009 689.607 536.009 688.946 535.348 688.946 534.523 688.946 533.699 689.614 533.038 690.438 533.038 691.243 533.031 691.917 533.699 691.917 534.523" fill="#FFFFFF"/><path d="M684.982 532.497C684.982 533.321 684.321 533.982 683.497 533.982 682.672 533.982 682.011 533.321 682.011 532.497 682.011 531.672 682.679 531.011 683.503 531.011 684.308 531.005 684.982 531.672 684.982 532.497" fill="#FFFFFF"/><path d="M679.51 536.065C679.51 536.89 678.85 537.551 678.025 537.551 677.201 537.551 676.54 536.89 676.54 536.065 676.54 535.241 677.207 534.58 678.032 534.58 678.836 534.573 679.51 535.241 679.51 536.065" fill="#FFFFFF"/><path d="M693.53 532.514C693.53 536.297 690.464 539.363 686.681 539.363 682.899 539.363 679.833 536.297 679.833 532.514 679.833 528.732 682.899 525.665 686.681 525.665 690.464 525.665 693.53 528.732 693.53 532.514Z" stroke="#000000" stroke-width="0.710612" stroke-miterlimit="10" fill="none"/></g></svg>