<svg width="24" height="23" xmlns="http://www.w3.org/2000/svg" xmlns:xlink="http://www.w3.org/1999/xlink" xml:space="preserve" overflow="hidden"><defs><clipPath id="clip0"><rect x="291" y="425" width="24" height="23"/></clipPath></defs><g clip-path="url(#clip0)" transform="translate(-291 -425)"><path d="M21.8811 22.9018 1.11892 22.9018C0.503841 22.9018 0 22.4046 0 21.7895L0 1.11238C0 0.497297 0.497297 0 1.11892 0L21.8811 0C22.4962 0 23 0.497297 23 1.11238L23 21.7895C23 22.4046 22.5027 22.9018 21.8811 22.9018Z" fill="#FF004D" transform="matrix(1.04348 0 0 1 291 425.049)"/><path d="M5.44924 5.95943C6.83646 5.66498 8.22366 5.37707 9.61086 5.08261 10.7887 3.81974 12.0515 2.5765 12.3525 2.79243 12.3787 2.81206 12.3918 2.83169 12.3918 2.84478 12.6012 3.30281 13.9884 4.58532 15.3625 5.21348 17.2928 6.09684 18.4313 5.32472 18.7716 5.95943 19.354 7.03911 16.0954 9.23769 16.7497 10.6511 16.9983 11.1942 17.7705 11.4952 18.8828 11.9336 20.0279 12.3785 20.5907 12.3262 20.6954 12.6795 20.8589 13.2422 20.3934 12.9163 19.9223 14.2249 19.4184 15.6383 19.5699 17.4431 19.0922 17.9011 18.4248 18.5489 16.4094 16.154 14.4006 16.7299 12.4311 17.2926 11.9141 20.5316 10.1736 20.5119L8.86491 20.5119C6.24753 20.5119 6.30642 20.1717 5.71752 19.6875 4.93231 19.0397 6.34568 17.4758 5.69134 15.395 5.26603 14.0536 4.52008 14.191 3.52548 12.1495 2.9693 11.0044 2.41311 9.85931 2.88423 9.06102 3.38807 8.21038 4.63786 8.47866 5.22676 7.46443 5.5343 6.94096 5.50159 6.35203 5.4427 5.97251" fill="#FFFFFF" transform="matrix(1.04348 0 0 1 291 425.049)"/><path d="M0.319029 4.0553 22.6974 4.0553" stroke="#000000" stroke-width="0.327169" stroke-miterlimit="10" fill="none" transform="matrix(1.02989 0 0 1 291.141 424.931)"/><path d="M0.319029 7.87012 22.6974 7.87012" stroke="#000000" stroke-width="0.327169" stroke-miterlimit="10" fill="none" transform="matrix(1.02989 0 0 1 291.141 424.931)"/><path d="M0.319029 11.6784 22.6974 11.6784" stroke="#000000" stroke-width="0.327169" stroke-miterlimit="10" fill="none" transform="matrix(1.02989 0 0 1 291.141 424.931)"/><path d="M0.319029 15.4932 22.6974 15.4932" stroke="#000000" stroke-width="0.327169" stroke-miterlimit="10" fill="none" transform="matrix(1.02989 0 0 1 291.141 424.931)"/><path d="M0.319029 19.3014 22.6974 19.3014" stroke="#000000" stroke-width="0.327169" stroke-miterlimit="10" fill="none" transform="matrix(1.02989 0 0 1 291.141 424.931)"/><path d="M3.57385 22.5497 3.57385 0.316951" stroke="#000000" stroke-width="0.325039" stroke-miterlimit="10" fill="none" transform="matrix(1.05032 0 0 1 291.273 425.079)"/><path d="M7.35733 22.5497 7.35733 0.316951" stroke="#000000" stroke-width="0.325039" stroke-miterlimit="10" fill="none" transform="matrix(1.05032 0 0 1 291.273 425.079)"/><path d="M11.1473 22.5497 11.1473 0.316951" stroke="#000000" stroke-width="0.325039" stroke-miterlimit="10" fill="none" transform="matrix(1.05032 0 0 1 291.273 425.079)"/><path d="M14.9308 22.5497 14.9308 0.316951" stroke="#000000" stroke-width="0.325039" stroke-miterlimit="10" fill="none" transform="matrix(1.05032 0 0 1 291.273 425.079)"/><path d="M18.7207 22.5497 18.7207 0.316951" stroke="#000000" stroke-width="0.325039" stroke-miterlimit="10" fill="none" transform="matrix(1.05032 0 0 1 291.273 425.079)"/></g></svg>