<svg width="24" height="24" xmlns="http://www.w3.org/2000/svg" xmlns:xlink="http://www.w3.org/1999/xlink" xml:space="preserve" overflow="hidden"><defs><clipPath id="clip0"><rect x="468" y="429" width="24" height="24"/></clipPath></defs><g clip-path="url(#clip0)" transform="translate(-468 -429)"><path d="M490.832 429.036C491.477 429.036 492 429.559 492 430.204L492 451.868C492 452.513 491.477 453.036 490.832 453.036L469.168 453.036C468.523 453.036 468 452.513 468 451.868L468 430.204C468 429.559 468.523 429.036 469.168 429.036Z" fill="#FF004C"/><path d="M470.615 431.629 489.392 431.629 489.392 450.405 470.615 450.405Z" stroke="#FFFFFF" stroke-width="0.682788" stroke-miterlimit="10" fill="none"/><path d="M481.947 435.89 485.318 435.89 485.318 439.989 481.947 439.989Z" stroke="#FFFFFF" stroke-width="0.682788" stroke-miterlimit="10" fill="none"/><path d="M472.71 433.73 477.859 433.73 477.859 448.317 472.71 448.317Z" stroke="#FFFFFF" stroke-width="0.682788" stroke-miterlimit="10" fill="none"/><path d="M479.856 433.766 487.371 433.766 487.371 448.282 479.856 448.282Z" stroke="#FFFFFF" stroke-width="0.682788" stroke-miterlimit="10" fill="none"/><path d="M481.947 442.119 485.318 442.119 485.318 446.218 481.947 446.218Z" stroke="#FFFFFF" stroke-width="0.682788" stroke-miterlimit="10" fill="none"/></g></svg>