<svg width="24" height="24" xmlns="http://www.w3.org/2000/svg" xmlns:xlink="http://www.w3.org/1999/xlink" xml:space="preserve" overflow="hidden"><g transform="translate(-654 -601)"><path d="M676.832 601C677.477 601 678 601.523 678 602.168L678 623.832C678 624.477 677.477 625 676.832 625L655.168 625C654.523 625 654 624.477 654 623.832L654 602.168C654 601.523 654.523 601 655.168 601Z" fill="#FF004C"/><path d="M661.893 607.644 657.789 610.108 657.789 618.322 665.997 623.245 665.997 623.245 665.997 615.038 661.893 607.644Z" fill="#FFFFFF"/><path d="M665.997 623.245 674.211 618.322 674.211 610.108 665.997 615.038 665.997 623.245Z"/><path d="M661.893 615.175 664.051 616.465 664.051 622.091 661.893 620.787 661.893 615.175Z" fill="#878787"/><path d="M663.265 603.54 664.631 604.359 664.631 606.005 663.265 606.824 663.265 603.54Z" fill="#FFFFFF"/><path d="M664.631 604.359 665.997 603.54 665.997 605.179 664.631 606.005 664.631 604.359Z"/><path d="M663.265 603.54 664.631 602.721 665.997 603.54 664.631 604.359 663.265 603.54Z" fill="#C6C6C6"/><path d="M667.369 620.098 668.735 619.278 668.735 615.994 667.369 616.813 667.369 620.098Z" fill="#FFFFFF"/><path d="M671.473 617.64 672.845 616.813 672.845 613.529 671.473 614.355 671.473 617.64Z" fill="#FFFFFF"/><path d="M661.893 607.644 670.073 602.721 674.211 610.108 665.997 615.038 661.893 607.644Z" fill="#C6C6C6"/><path d="M659.155 613.529 660.527 614.355 660.527 617.64 659.155 616.813 659.155 613.529Z" fill="#878787"/><path d="M661.21 609.938 662.576 610.757 662.576 613.632 661.21 612.812 661.21 609.938Z" fill="#878787"/></g></svg>