<svg width="24" height="24" xmlns="http://www.w3.org/2000/svg" xmlns:xlink="http://www.w3.org/1999/xlink" xml:space="preserve" overflow="hidden"><g transform="translate(-1010 -275)"><path d="M1032.83 275C1033.48 275 1034 275.523 1034 276.168L1034 297.832C1034 298.477 1033.48 299 1032.83 299L1011.17 299C1010.52 299 1010 298.477 1010 297.832L1010 276.168C1010 275.523 1010.52 275 1011.17 275Z" fill="#FF004C"/><path d="M14.6868 10.9246C14.6868 11.8523 13.9348 12.6043 13.0071 12.6043 12.0795 12.6043 11.3275 11.8523 11.3275 10.9246 11.3275 9.99696 12.0795 9.24495 13.0071 9.24495 13.9348 9.24495 14.6868 9.99696 14.6868 10.9246Z" fill="#FFFFFF" transform="matrix(1 0 0 -1 1017.78 300.366)"/><path d="M12.7613 16.899C12.7613 17.8267 12.0093 18.5787 11.0817 18.5787 10.154 18.5787 9.40199 17.8267 9.40199 16.899 9.40199 15.9714 10.154 15.2193 11.0817 15.2193 12.0093 15.2193 12.7613 15.9714 12.7613 16.899Z" fill="#FFFFFF" transform="matrix(1 0 0 -1 1017.78 300.366)"/><path d="M5.96757 8.02276C5.96757 8.95041 5.21556 9.70242 4.28791 9.70242 3.36026 9.70242 2.60825 8.95041 2.60825 8.02276 2.60825 7.09511 3.36026 6.3431 4.28791 6.3431 5.21556 6.3431 5.96757 7.09511 5.96757 8.02276Z" fill="#FFFFFF" transform="matrix(1 0 0 -1 1009.59 298.037)"/><path d="M6.61622 13.2051C6.61622 14.1328 5.86421 14.8848 4.93656 14.8848 4.00891 14.8848 3.2569 14.1328 3.2569 13.2051 3.2569 12.2775 4.00891 11.5255 4.93656 11.5255 5.86421 11.5255 6.61622 12.2775 6.61622 13.2051Z" fill="#FFFFFF" transform="matrix(1 0 0 -1 1009.59 298.037)"/><path d="M5.96757 17.138C5.96757 18.0656 5.21556 18.8176 4.28791 18.8176 3.36026 18.8176 2.60825 18.0656 2.60825 17.138 2.60825 16.2103 3.36026 15.4583 4.28791 15.4583 5.21556 15.4583 5.96757 16.2103 5.96757 17.138Z" fill="#FFFFFF" transform="matrix(1 0 0 -1 1009.59 298.037)"/><path d="M20.8865 8.98549C20.8865 9.91314 20.1345 10.6651 19.2068 10.6651 18.2792 10.6651 17.5272 9.91314 17.5272 8.98549 17.5272 8.05784 18.2792 7.30583 19.2068 7.30583 20.1345 7.30583 20.8865 8.05784 20.8865 8.98549Z" fill="#FFFFFF" transform="matrix(1 0 0 -1 1001.74 299.963)"/><path d="M22.6071 13.4851C22.6071 14.4127 21.8551 15.1647 20.9275 15.1647 19.9998 15.1647 19.2478 14.4127 19.2478 13.4851 19.2478 12.5574 19.9998 11.8054 20.9275 11.8054 21.8551 11.8054 22.6071 12.5574 22.6071 13.4851Z" fill="#FFFFFF" transform="matrix(1 0 0 -1 1001.74 299.963)"/><path d="M20.3471 17.138C20.3471 18.0656 19.5951 18.8176 18.6674 18.8176 17.7398 18.8176 16.9878 18.0656 16.9878 17.138 16.9878 16.2103 17.7398 15.4583 18.6674 15.4583 19.5951 15.4583 20.3471 16.2103 20.3471 17.138Z" fill="#FFFFFF" transform="matrix(1 0 0 -1 1001.74 299.963)"/><path d="M22.0745 20.6817C22.0745 21.6093 21.3225 22.3613 20.3949 22.3613 19.4672 22.3613 18.7152 21.6093 18.7152 20.6817 18.7152 19.754 19.4672 19.002 20.3949 19.002 21.3225 19.002 22.0745 19.754 22.0745 20.6817Z" fill="#FFFFFF" transform="matrix(1 0 0 -1 1001.74 299.963)"/><path d="M1017.44 276.352 1017.44 297.648" stroke="#000000" stroke-width="0.741508" stroke-miterlimit="10" fill="none"/><path d="M1025.44 276.352 1025.44 297.648" stroke="#000000" stroke-width="0.741508" stroke-miterlimit="10" fill="none"/></g></svg>