<svg width="23" height="24" xmlns="http://www.w3.org/2000/svg" xmlns:xlink="http://www.w3.org/1999/xlink" xml:space="preserve" overflow="hidden"><defs><clipPath id="clip0"><rect x="860" y="134" width="23" height="24"/></clipPath></defs><g clip-path="url(#clip0)" transform="translate(-860 -134)"><path d="M21.8811 22.9018 1.11892 22.9018C0.503841 22.9018 0 22.4046 0 21.7895L0 1.11238C0 0.497297 0.497297 0 1.11892 0L21.8811 0C22.4962 0 23 0.497297 23 1.11238L23 21.7895C23 22.4046 22.5027 22.9018 21.8811 22.9018Z" fill="#FF004D" transform="matrix(-1.91684e-16 -1.04348 1 -1.83697e-16 860.049 158)"/><path d="M15.3312 18.2037 19.1656 11.7127 11.4967 11.7127 15.3312 18.2037Z" fill="#FFFFFF" transform="matrix(-1.91684e-16 -1.04348 1 -1.83697e-16 860.049 158)"/><path d="M15.3312 22.9018 15.3312 20.2321" stroke="#000000" stroke-width="0.654339" stroke-miterlimit="10" fill="none" transform="matrix(-1.91684e-16 -1.04348 1 -1.83697e-16 860.049 158)"/><path d="M11.4967 22.9018 11.4967 20.2321" stroke="#000000" stroke-width="0.654339" stroke-miterlimit="10" fill="none" transform="matrix(-1.91684e-16 -1.04348 1 -1.83697e-16 860.049 158)"/><path d="M7.66885 22.9018 7.66885 20.2321" stroke="#000000" stroke-width="0.654339" stroke-miterlimit="10" fill="none" transform="matrix(-1.91684e-16 -1.04348 1 -1.83697e-16 860.049 158)"/><path d="M3.83442 22.9018 3.83442 20.2321" stroke="#000000" stroke-width="0.654339" stroke-miterlimit="10" fill="none" transform="matrix(-1.91684e-16 -1.04348 1 -1.83697e-16 860.049 158)"/><path d="M19.1656 22.9018 19.1656 20.2321" stroke="#000000" stroke-width="0.654339" stroke-miterlimit="10" fill="none" transform="matrix(-1.91684e-16 -1.04348 1 -1.83697e-16 860.049 158)"/></g></svg>