<svg width="23" height="23" xmlns="http://www.w3.org/2000/svg" xmlns:xlink="http://www.w3.org/1999/xlink" xml:space="preserve" overflow="hidden"><g transform="translate(-755 -167)"><path d="M776.881 189.951 756.119 189.951C755.504 189.951 755 189.454 755 188.839L755 168.161C755 167.546 755.497 167.049 756.119 167.049L776.881 167.049C777.496 167.049 778 167.546 778 168.161L778 188.839C778 189.454 777.503 189.951 776.881 189.951Z" fill="#FF004D"/><path d="M770.331 185.253 774.166 178.762 766.497 178.762 770.331 185.253Z" fill="#FFFFFF"/><path d="M770.331 189.951 770.331 187.281" stroke="#000000" stroke-width="0.654339" stroke-miterlimit="10" fill="none"/><path d="M766.497 189.951 766.497 187.281" stroke="#000000" stroke-width="0.654339" stroke-miterlimit="10" fill="none"/><path d="M762.669 189.951 762.669 187.281" stroke="#000000" stroke-width="0.654339" stroke-miterlimit="10" fill="none"/><path d="M758.834 189.951 758.834 187.281" stroke="#000000" stroke-width="0.654339" stroke-miterlimit="10" fill="none"/><path d="M774.166 189.951 774.166 187.281" stroke="#000000" stroke-width="0.654339" stroke-miterlimit="10" fill="none"/></g></svg>