<svg width="23" height="23" xmlns="http://www.w3.org/2000/svg" xmlns:xlink="http://www.w3.org/1999/xlink" xml:space="preserve" overflow="hidden"><defs><clipPath id="clip0"><rect x="497" y="275" width="23" height="23"/></clipPath></defs><g clip-path="url(#clip0)" transform="translate(-497 -275)"><path d="M518.881 275C519.499 275 520 275.501 520 276.119L520 296.881C520 297.499 519.499 298 518.881 298L498.119 298C497.501 298 497 297.499 497 296.881L497 276.119C497 275.501 497.501 275 498.119 275Z" fill="#FF004C"/><path d="M14.0748 10.4694C14.0748 11.3584 13.3541 12.0791 12.4651 12.0791 11.5762 12.0791 10.8555 11.3584 10.8555 10.4694 10.8555 9.58042 11.5762 8.85974 12.4651 8.85974 13.3541 8.85974 14.0748 9.58042 14.0748 10.4694Z" fill="#FFFFFF" transform="matrix(1 0 0 -1 504.459 299.309)"/><path d="M12.2296 16.1949C12.2296 17.0839 11.5089 17.8046 10.6199 17.8046 9.73092 17.8046 9.01024 17.0839 9.01024 16.1949 9.01024 15.3059 9.73092 14.5852 10.6199 14.5852 11.5089 14.5852 12.2296 15.3059 12.2296 16.1949Z" fill="#FFFFFF" transform="matrix(1 0 0 -1 504.459 299.309)"/><path d="M5.71892 7.68848C5.71892 8.57748 4.99824 9.29815 4.10925 9.29815 3.22025 9.29815 2.49957 8.57748 2.49957 7.68848 2.49957 6.79948 3.22025 6.0788 4.10925 6.0788 4.99824 6.0788 5.71892 6.79948 5.71892 7.68848Z" fill="#FFFFFF" transform="matrix(1 0 0 -1 496.607 297.077)"/><path d="M6.34054 12.6549C6.34054 13.5439 5.61987 14.2646 4.73087 14.2646 3.84187 14.2646 3.12119 13.5439 3.12119 12.6549 3.12119 11.7659 3.84187 11.0452 4.73087 11.0452 5.61987 11.0452 6.34054 11.7659 6.34054 12.6549Z" fill="#FFFFFF" transform="matrix(1 0 0 -1 496.607 297.077)"/><path d="M5.71892 16.4239C5.71892 17.3129 4.99824 18.0336 4.10925 18.0336 3.22025 18.0336 2.49957 17.3129 2.49957 16.4239 2.49957 15.5349 3.22025 14.8142 4.10925 14.8142 4.99824 14.8142 5.71892 15.5349 5.71892 16.4239Z" fill="#FFFFFF" transform="matrix(1 0 0 -1 496.607 297.077)"/><path d="M20.0162 8.6111C20.0162 9.50009 19.2955 10.2208 18.4065 10.2208 17.5175 10.2208 16.7969 9.50009 16.7969 8.6111 16.7969 7.7221 17.5175 7.00142 18.4065 7.00142 19.2955 7.00142 20.0162 7.7221 20.0162 8.6111Z" fill="#FFFFFF" transform="matrix(1 0 0 -1 489.082 298.923)"/><path d="M21.6651 12.9232C21.6651 13.8122 20.9445 14.5329 20.0555 14.5329 19.1665 14.5329 18.4458 13.8122 18.4458 12.9232 18.4458 12.0342 19.1665 11.3135 20.0555 11.3135 20.9445 11.3135 21.6651 12.0342 21.6651 12.9232Z" fill="#FFFFFF" transform="matrix(1 0 0 -1 489.082 298.923)"/><path d="M19.4993 16.4239C19.4993 17.3129 18.7786 18.0336 17.8896 18.0336 17.0006 18.0336 16.2799 17.3129 16.2799 16.4239 16.2799 15.5349 17.0006 14.8142 17.8896 14.8142 18.7786 14.8142 19.4993 15.5349 19.4993 16.4239Z" fill="#FFFFFF" transform="matrix(1 0 0 -1 489.082 298.923)"/><path d="M21.1548 19.8199C21.1548 20.7089 20.4341 21.4296 19.5451 21.4296 18.6561 21.4296 17.9354 20.7089 17.9354 19.8199 17.9354 18.9309 18.6561 18.2102 19.5451 18.2102 20.4341 18.2102 21.1548 18.9309 21.1548 19.8199Z" fill="#FFFFFF" transform="matrix(1 0 0 -1 489.082 298.923)"/><path d="M19.1034 4.65235 19.1034 1.76017" stroke="#000000" stroke-width="0.981508" stroke-miterlimit="10" fill="none" transform="matrix(1 0 0 -1 496.935 298)"/><path d="M20.6248 4.65235 20.6248 1.76017" stroke="#000000" stroke-width="0.981508" stroke-miterlimit="10" fill="none" transform="matrix(1 0 0 -1 496.935 298)"/><path d="M17.5821 4.65235 17.5821 1.76017" stroke="#000000" stroke-width="0.981508" stroke-miterlimit="10" fill="none" transform="matrix(1 0 0 -1 496.935 298)"/><path d="M504.132 276.296 504.132 296.704" stroke="#000000" stroke-width="0.710612" stroke-miterlimit="10" fill="none"/><path d="M511.795 276.296 511.795 296.704" stroke="#000000" stroke-width="0.710612" stroke-miterlimit="10" fill="none"/><path d="M11.7637 4.65235 11.7637 1.76017" stroke="#000000" stroke-width="0.981508" stroke-miterlimit="10" fill="none" transform="matrix(1 0 0 -1 497 298)"/><path d="M10.2096 4.65235 10.2096 1.76017" stroke="#000000" stroke-width="0.981508" stroke-miterlimit="10" fill="none" transform="matrix(1 0 0 -1 497 298)"/><path d="M500.435 293.348 500.435 296.24" stroke="#000000" stroke-width="0.981508" stroke-miterlimit="10" fill="none"/><path d="M516.992 279.097 509.787 271.892 510.031 271.648 510.275 271.405 517.48 278.61 524.685 285.815 524.441 286.059 524.197 286.303Z" fill="#FFFFFF"/></g></svg>