<svg width="23" height="24" xmlns="http://www.w3.org/2000/svg" xmlns:xlink="http://www.w3.org/1999/xlink" xml:space="preserve" overflow="hidden"><defs><clipPath id="clip0"><rect x="652" y="374" width="23" height="24"/></clipPath><clipPath id="clip1"><path d="M679.161 384.79 664.48 369.471C664.041 369.013 664.041 368.277 664.48 367.819L679.161 352.5C679.599 352.043 680.305 352.043 680.743 352.5L695.424 367.819C695.862 368.277 695.862 369.013 695.424 369.471L680.743 384.79C680.305 385.247 679.599 385.247 679.161 384.79Z"/></clipPath></defs><g clip-path="url(#clip0)" transform="translate(-652 -374)"><path d="M21.8811 0C22.499 -1.45292e-16 23 0.500957 23 1.11892L23 21.8811C23 22.499 22.499 23 21.8811 23L1.11892 23C0.500956 23-9.11078e-07 22.499-9.11078e-07 21.8811L-9.11078e-07 1.11892C-9.11078e-07 0.500956 0.500956-9.11078e-07 1.11892-9.11078e-07Z" fill="#FF004C" transform="matrix(1 0 0 1.04348 652 374)"/><path d="M8.47368 7.40057 14.5001 7.40057 14.5001 15.7499 8.47368 15.7499Z" fill="#FFFFFF" transform="matrix(1 0 0 1.04348 652 374)"/><path d="M1.35448 7.40057 21.6085 7.40057 21.6085 15.7499 1.35448 15.7499Z" fill="#FFFFFF" transform="matrix(1 0 0 1.04348 652 374)"/><path d="M13.8774 6.89863 13.8774 16.1949" stroke="#FF004C" stroke-width="0.85064" stroke-miterlimit="10" fill="none" transform="matrix(1 0 0 1.04348 652 374)"/><path d="M19.3598 6.94364 19.3598 16.24" stroke="#FF004C" stroke-width="0.85064" stroke-miterlimit="10" fill="none" transform="matrix(1 0 0 1.04348 652 374)"/><g clip-path="url(#clip1)"><path d="M-21.9199-22.9875-1.1577-22.9875C-0.537822-22.9875-0.0387845-22.4884-0.0387845-21.8686L-0.0387845-1.10642C-0.0387845-0.486543-0.537822 0.0124955-1.1577 0.0124955L-21.9199 0.0124955C-22.5397 0.0124955-23.0388-0.486543-23.0388-1.10642L-23.0388-21.8686C-23.0388-22.4884-22.5397-22.9875-21.9199-22.9875Z" fill="#0099FF" transform="matrix(-1 1.2779e-16 -1.22465e-16 -1.04348 651.961 374.013)"/></g><path d="M19.9923 4.09736 12.7871-3.10781 13.0309-3.35165 13.2748-3.59547 20.4799 3.6097 27.6851 10.8148 27.4413 11.0587 27.1975 11.3025Z" fill="#FFFFFF" transform="matrix(1 0 0 1.04348 652 374)"/></g></svg>