<svg width="24" height="24" xmlns="http://www.w3.org/2000/svg" xmlns:xlink="http://www.w3.org/1999/xlink" xml:space="preserve" overflow="hidden"><defs><clipPath id="clip0"><rect x="994" y="84" width="24" height="24"/></clipPath><clipPath id="clip1"><path d="M1022.34 94.79 1007.02 79.4706C1006.56 79.0132 1006.56 78.2767 1007.02 77.8194L1022.34 62.5C1022.8 62.0426 1023.54 62.0426 1023.99 62.5L1039.31 77.8194C1039.77 78.2767 1039.77 79.0132 1039.31 79.4706L1023.99 94.79C1023.54 95.2473 1022.8 95.2473 1022.34 94.79Z"/></clipPath></defs><g clip-path="url(#clip0)" transform="translate(-994 -84)"><path d="M1016.83 84C1017.48 84 1018 84.5227 1018 85.1676L1018 106.832C1018 107.477 1017.48 108 1016.83 108L995.168 108C994.523 108 994 107.477 994 106.832L994 85.1676C994 84.5227 994.523 84 995.168 84Z" fill="#FF004C"/><path d="M1013.99 108.02 1013.99 105.235" stroke="#000000" stroke-width="0.682788" stroke-miterlimit="10" fill="none"/><path d="M1009.96 108.02 1009.96 105.235" stroke="#000000" stroke-width="0.682788" stroke-miterlimit="10" fill="none"/><path d="M1005.92 108.02 1005.92 105.235" stroke="#000000" stroke-width="0.682788" stroke-miterlimit="10" fill="none"/><path d="M997.858 108.02 997.858 105.235" stroke="#000000" stroke-width="0.682788" stroke-miterlimit="10" fill="none"/><path d="M1001.89 108.02 1001.89 105.235" stroke="#000000" stroke-width="0.682788" stroke-miterlimit="10" fill="none"/><path d="M1005.92 92.8899 1015.82 92.8899 1015.82 96.2765 1005.92 96.2765Z" fill="#FFFFFF"/><path d="M1000.08 98.9804 1011.89 98.9804 1011.89 102.367 1000.08 102.367Z" fill="#FFFFFF"/><path d="M996.144 86.7994 1007.94 86.7994 1007.94 90.1861 996.144 90.1861Z" fill="#FFFFFF"/><g clip-path="url(#clip1)"><path d="M1016.83 108 995.168 108C994.521 108 994 107.479 994 106.832L994 85.1676C994 84.5207 994.521 84 995.168 84L1016.83 84C1017.48 84 1018 84.5207 1018 85.1676L1018 106.832C1018 107.479 1017.48 108 1016.83 108Z" fill="#0099FF"/></g><path d="M1014.86 88.2755 1007.34 80.7571 1007.6 80.5026 1007.85 80.2482 1015.37 87.7666 1022.89 95.285 1022.63 95.5395 1022.38 95.7939Z" fill="#FFFFFF"/></g></svg>