<svg width="23" height="23" xmlns="http://www.w3.org/2000/svg" xmlns:xlink="http://www.w3.org/1999/xlink" xml:space="preserve" overflow="hidden"><g transform="translate(-192 -87)"><path d="M213.881 87C214.499 87 215 87.501 215 88.1189L215 108.881C215 109.499 214.499 110 213.881 110L193.119 110C192.501 110 192 109.499 192 108.881L192 88.1189C192 87.501 192.501 87 193.119 87Z" fill="#FF004C"/><path d="M200.474 94.4006 206.5 94.4006 206.5 102.75 200.474 102.75Z" fill="#FFFFFF"/><path d="M193.354 94.4006 199.381 94.4006 199.381 102.75 193.354 102.75Z" fill="#FFFFFF"/><path d="M207.593 94.4006 213.619 94.4006 213.619 102.75 207.593 102.75Z" fill="#FFFFFF"/><path d="M196.371 100.172 196.371 96.8282" stroke="#000000" stroke-width="0.981508" fill="none"/><path d="M210.603 100.172 210.603 96.8282" stroke="#000000" stroke-width="0.981508" fill="none"/><path d="M212.114 100.172 212.114 96.8282" stroke="#000000" stroke-width="0.981508" fill="none"/><path d="M209.098 100.172 209.098 96.8282" stroke="#000000" stroke-width="0.981508" fill="none"/><path d="M202.738 100.1 202.738 96.7627" stroke="#000000" stroke-width="0.981508" fill="none"/><path d="M204.249 100.1 204.249 96.7627" stroke="#000000" stroke-width="0.981508" fill="none"/></g></svg>