<svg width="125" height="125" xmlns="http://www.w3.org/2000/svg" xmlns:xlink="http://www.w3.org/1999/xlink" xml:space="preserve" overflow="hidden"><g transform="translate(-460 -2232)"><rect x="462.5" y="2234.5" width="120" height="120" stroke="#000000" stroke-width="4.58333" stroke-miterlimit="8" fill="#FFFFFF"/><g><g><g><path d="M97.7304 97.6535 0.845818 97.6535 0.845818 0.768925 5.38248 0.768925 5.38248 93.1169 97.7304 93.1169ZM97.7304 90.8101 97.7304 41.868 92.9631 38.7154 78.738 48.4807 65.7047 46.9044 51.864 64.2822 36.87 72.2021 23.4138 61.1296 7.61236 66.512 7.61236 90.8101Z" transform="matrix(1.01031 0 0 1 472.184 2245.35)"/><path d="M96.6924 39.4459 91.9635 36.2548 77.6999 46.0202 64.6666 44.4439 50.826 61.86 35.8704 69.7415 22.3757 58.669 6.57431 64.0899 6.76654 32.1795 22.4911 28.4887 35.9473 19.5692 51.172 25.1823 65.5124 8.30439 77.8537 20.6456 92.1942 18.1851 96.6924 12.3413" fill="#000000" fill-opacity="0.5" transform="matrix(1.01031 0 0 1 473.039 2246)"/><path d="M96.923 0 6.80499 0.269124 6.76654 30.5648 22.4911 26.8739 35.9473 17.9544 51.172 23.5676 65.5124 6.68965 77.8537 19.0309 92.1942 16.5703 96.6924 10.7265" fill="#000000" fill-opacity="0.75" transform="matrix(1.01031 0 0 1 473.039 2246)"/></g></g></g></g></svg>