<svg width="125" height="124" xmlns="http://www.w3.org/2000/svg" xmlns:xlink="http://www.w3.org/1999/xlink" xml:space="preserve" overflow="hidden"><g transform="translate(-143 -2138)"><rect x="145.5" y="2140.5" width="120" height="119" stroke="#000000" stroke-width="4.58333" stroke-miterlimit="8" fill="#FFFFFF"/><g><g><g><path d="M91.7269 93.1126 91.7269 56.6605 76.1375 56.6605 76.1375 93.1126 69.9788 93.1126 69.9788 70.8641 54.4664 70.8641 54.4664 93.1126 48.3847 93.1126 48.3847 76.0606 32.8723 76.0606 32.8723 93.1126 26.7906 93.1126 26.7906 64.3974 11.2782 64.3974 11.2782 93.1126 5.19644 93.1126 5.19644 0.654367 0.654367 0.654367 0.654367 97.6547 97.6547 97.6547 97.6547 93.1126Z" transform="matrix(1.01031 0 0 1 155.339 2150.35)"/><path d="M11.3167 32.6029 26.7906 32.6029 26.7906 63.0502 11.3167 63.0502ZM32.7953 26.8675 48.3077 26.8675 48.3077 74.6748 32.7953 74.6748ZM54.5049 39.0311 69.9788 39.0311 69.9788 69.5169 54.5049 69.5169ZM76.176 29.7929 91.6884 29.7929 91.6884 55.1208 76.176 55.1208Z" fill="#000000" fill-opacity="0.5" transform="matrix(1.01031 0 0 1 155.339 2150.35)"/><path d="M11.3167 0.808336 26.8291 0.808336 26.8291 31.2172 11.3167 31.2172ZM32.7953 0.88532 48.3077 0.88532 48.3077 25.4818 32.7953 25.4818ZM54.5049 0.962305 70.0173 0.962305 70.0173 37.6454 54.5049 37.6454ZM76.2145 1.07778 91.7269 1.07778 91.7269 28.4072 76.2145 28.4072Z" fill="#000000" fill-opacity="0.75" transform="matrix(1.01031 0 0 1 155.339 2150.35)"/></g></g></g></g></svg>