<svg width="124" height="124" xmlns="http://www.w3.org/2000/svg" xmlns:xlink="http://www.w3.org/1999/xlink" xml:space="preserve" overflow="hidden"><g transform="translate(-809 -323)"><rect x="811.5" y="325.5" width="119" height="119" stroke="#000000" stroke-width="4.58333" stroke-miterlimit="8" fill="#FFFFFF"/><g><g><g><path d="M921.509 402.128C919.55 375.73 897.409 354.824 870.5 354.824 843.591 354.824 821.45 375.73 819.491 402.128 817.959 402.725 816.852 404.257 816.852 406.003 816.852 408.302 818.725 410.176 821.024 410.176 823.323 410.176 825.197 408.302 825.197 406.003 825.197 404.555 824.431 403.278 823.281 402.512 824.729 398.339 828.731 395.316 833.372 395.316 838.013 395.316 842.015 398.339 843.463 402.512 842.313 403.235 841.547 404.555 841.547 406.003 841.547 408.302 843.42 410.176 845.72 410.176 848.019 410.176 849.892 408.302 849.892 406.003 849.892 404.087 848.572 402.469 846.827 402.001 845.081 396.21 839.716 391.952 833.372 391.952 830.732 391.952 828.263 392.676 826.176 393.953 830.264 387.396 837.502 383.053 845.762 383.053 857.216 383.053 866.711 391.399 868.541 402.341 867.222 403.023 866.37 404.428 866.37 406.003 866.37 408.302 868.243 410.176 870.543 410.176 872.842 410.176 874.715 408.302 874.715 406.003 874.715 404.428 873.864 403.065 872.586 402.384 873.906 394.379 879.314 387.78 886.595 384.799 890.341 389.781 892.768 395.784 893.45 402.299 892.087 402.98 891.108 404.385 891.108 406.046 891.108 408.345 892.981 410.218 895.281 410.218 897.58 410.218 899.453 408.345 899.453 406.046 899.453 404.3 898.346 402.81 896.813 402.171 896.132 395.359 893.705 389.057 889.916 383.692 891.619 383.266 893.45 383.053 895.281 383.053 906.734 383.053 916.229 391.441 918.017 402.341 916.74 403.065 915.846 404.428 915.846 406.003 915.846 408.302 917.719 410.176 920.018 410.176 922.318 410.176 924.191 408.302 924.191 406.003 924.148 404.215 923.041 402.725 921.509 402.128ZM870.543 396.849C866.796 386.843 857.088 379.69 845.805 379.69 839.546 379.69 833.755 381.904 829.242 385.566 835.671 376.496 846.231 370.535 858.195 370.535 868.541 370.535 877.866 375.006 884.338 382.074 877.994 384.969 872.97 390.292 870.543 396.849ZM895.281 379.69C892.641 379.69 890.086 380.073 887.702 380.797 880.548 372.451 869.947 367.172 858.152 367.172 848.487 367.172 839.631 370.706 832.818 376.582 841.589 365.384 855.214 358.188 870.5 358.188 890.725 358.188 908.096 370.834 915.037 388.631 910.225 383.139 903.115 379.69 895.281 379.69Z"/></g></g></g></g></svg>