<svg width="141" height="141" xmlns="http://www.w3.org/2000/svg" xmlns:xlink="http://www.w3.org/1999/xlink" xml:space="preserve" overflow="hidden"><g transform="translate(-875 -1620)"><path d="M877.5 1662.33 917.333 1622.5 973.667 1622.5 1013.5 1662.33 1013.5 1718.67 973.667 1758.5 917.333 1758.5 877.5 1718.67Z" stroke="#042433" stroke-width="4.58333" stroke-miterlimit="8" fill="#FFFFFF" fill-rule="evenodd"/><g><g><g><path d="M38.0811 94.0075 17.7783 94.0075 17.7783 87.2399 2.55148 87.2399 2.55148 80.4723 9.31906 80.4723 9.31906 70.3209 0.859375 70.3209 0.859375 61.8613 26.238 61.8613 26.238 46.634 33.0056 46.634 33.0056 39.8664 45.6947 39.8664 45.6947 77.9341 38.0811 77.9341ZM49.9245 45.7888 49.9245 29.7155 66.8435 29.7155 66.8435 21.2562 85.4545 21.2562 85.4545 35.6374 58.3842 35.6374 58.3842 45.7888ZM49.9245 53.402 49.9245 50.0182 62.6136 50.0182 62.6136 39.8668 85.4541 39.8668 85.4541 46.6344 98.9893 46.6344 98.9893 39.8668 109.141 39.8668 109.141 53.402ZM58.3838 77.9346 49.9241 77.9346 49.9241 57.6318 71.0729 57.6318 71.0729 72.013 58.3838 72.013ZM75.3027 57.6318 90.53 57.6318 90.53 72.013 75.3027 72.013ZM49.9245 82.1644 66.8435 82.1644 66.8435 87.2403 49.9245 87.2403ZM75.3027 12.7965 81.2243 12.7965 81.2243 17.0264 75.3027 17.0264ZM75.3027 0.953477 75.3027 8.56711 85.4541 8.56711 85.4541 17.0268 92.2217 17.0268 92.2217 0.953477Z" transform="matrix(1 0 0 1.01094 890 1640)"/></g></g></g></g></svg>