<svg width="124" height="124" xmlns="http://www.w3.org/2000/svg" xmlns:xlink="http://www.w3.org/1999/xlink" xml:space="preserve" overflow="hidden"><g transform="translate(-863 -2145)"><rect x="865.5" y="2147.5" width="119" height="119" stroke="#000000" stroke-width="4.58333" stroke-miterlimit="8" fill="#FFFFFF"/><g><g><g><path d="M12.7519 17.9472 17.2354 17.9472 17.2354 13.8711 4.19239 13.8711 4.19239 17.9472 8.67587 17.9472 8.67587 33.4356 0.931643 33.4356 0.931643 85.6076 8.67587 85.6076 8.67587 101.096 4.19239 101.096 4.19239 105.172 17.2354 105.172 17.2354 101.096 12.7519 101.096 12.7519 85.6076 20.4961 85.6076 20.4961 33.4356 12.7519 33.4356ZM16.4201 81.5316 5.00768 81.5316 5.00768 53.0001 16.4205 53.0001 16.4205 81.5316ZM16.4201 37.5117 16.4201 48.3808 5.00768 48.3808 5.00768 37.5117ZM48.6202 37.5117 53.1036 37.5117 53.1036 33.4356 40.0606 33.4356 40.0606 37.5117 44.5441 37.5117 44.5441 53.0001 36.7999 53.0001 36.7999 85.6076 44.5441 85.6076 44.5441 101.096 40.0606 101.096 40.0606 105.172 53.1036 105.172 53.1036 101.096 48.6202 101.096 48.6202 85.6076 56.3644 85.6076 56.3644 53.0001 48.6202 53.0001ZM52.2883 81.5316 40.8759 81.5316 40.8759 71.7493 52.2888 71.7493 52.2888 81.5316ZM52.2883 57.0762 52.2883 66.8584 40.8759 66.8584 40.8759 57.0762ZM84.4884 13.8711 84.4884 4.90417 88.9719 4.90417 88.9719 0.828127 75.9289 0.828127 75.9289 4.90417 80.4124 4.90417 80.4124 13.8711 72.6681 13.8711 72.6681 66.0431 80.4124 66.0431 80.4124 81.5316 75.9289 81.5316 75.9289 85.6076 88.9719 85.6076 88.9719 81.5316 84.4884 81.5316 84.4884 66.0431 92.2326 66.0431 92.2326 13.8711ZM88.1566 61.9671 76.7438 61.9671 76.7438 53.0001 88.1566 53.0001ZM76.7442 48.5166 76.7442 17.9472 88.157 17.9472 88.157 48.5166Z" transform="matrix(1.00897 0 0 1 878 2153)"/></g></g></g></g></svg>