<svg width="125" height="124" xmlns="http://www.w3.org/2000/svg" xmlns:xlink="http://www.w3.org/1999/xlink" xml:space="preserve" overflow="hidden"><g transform="translate(-1511 -844)"><rect x="1513.5" y="846.5" width="120" height="119" stroke="#000000" stroke-width="4.58333" stroke-miterlimit="8" fill="#FFFFFF"/><g><g><g><path d="M64.6749 44.8499C65.4874 45.3374 66.4624 45.6218 67.478 45.6218 69.9561 45.6218 72.028 43.9968 72.7186 41.7624L93.1936 41.7624C93.8842 43.9968 95.9967 45.6218 98.4342 45.6218 101.481 45.6218 103.919 43.1437 103.919 40.1374 103.919 37.1312 101.44 34.6531 98.4342 34.6531 95.9561 34.6531 93.8842 36.2781 93.1936 38.5124L72.7186 38.5124C72.028 36.2781 69.9155 34.6531 67.478 34.6531 64.4311 34.6531 61.9936 37.1312 61.9936 40.1374 61.9936 40.9499 62.1968 41.7624 62.5218 42.453L57.6061 46.9218 48.8718 31.1593 64.6749 16.8593C65.4874 17.3468 66.4624 17.6312 67.478 17.6312 69.9561 17.6312 72.028 16.0062 72.7186 13.7718L93.1936 13.7718C93.8842 16.0062 95.9967 17.6312 98.4342 17.6312 101.481 17.6312 103.919 15.1531 103.919 12.1469 103.919 9.09998 101.44 6.66249 98.4342 6.66249 95.9561 6.66249 93.8842 8.28748 93.1936 10.5219L72.7186 10.5219C72.028 8.28748 69.9155 6.66249 67.478 6.66249 64.4311 6.66249 61.9936 9.14061 61.9936 12.1469 61.9936 12.9594 62.1968 13.7718 62.5218 14.4625L47.2874 28.2749 40.4624 15.8843C41.3968 14.9093 42.0062 13.5687 42.0062 12.0656 42.0062 9.01873 39.528 6.58124 36.5218 6.58124 34.0437 6.58124 31.9718 8.20623 31.2812 10.4406L10.7656 10.4406C10.075 8.20623 7.96248 6.58124 5.52499 6.58124 2.47812 6.54061 0 9.01873 0 12.0656 0 15.1125 2.47812 17.55 5.48436 17.55 7.96248 17.55 10.0344 15.925 10.725 13.6906L31.1999 13.6906C31.8906 15.925 34.0031 17.55 36.4406 17.55 36.8062 17.55 37.2124 17.5093 37.5781 17.4281L44.728 30.3874 39.3249 35.3843C38.5124 34.8968 37.5374 34.6124 36.5218 34.6124 34.0437 34.6124 31.9718 36.2374 31.2812 38.4718L10.7656 38.4718C10.075 36.2374 7.96248 34.6124 5.52499 34.6124 2.47812 34.6124 0 37.0499 0 40.0968 0 43.1437 2.47812 45.5812 5.48436 45.5812 7.96248 45.5812 10.0344 43.9562 10.725 41.7218L31.1999 41.7218C31.8906 43.9562 34.0031 45.5812 36.4406 45.5812 39.4874 45.5812 41.9249 43.103 41.9249 40.0968 41.9249 39.2843 41.7218 38.4718 41.3968 37.7812L46.3124 33.3124 55.0468 49.0749 39.2437 63.3749C38.4312 62.8874 37.4562 62.603 36.4406 62.603 33.3937 62.603 30.9562 65.0811 30.9562 68.0874 30.9562 68.8999 31.1593 69.7124 31.4843 70.403L20.9625 79.9092 10.4406 70.403C10.7656 69.7124 10.9687 68.8999 10.9687 68.0874 10.9687 65.0405 8.49061 62.603 5.48436 62.603 2.4375 62.603-4.32985e-15 65.0811-4.32985e-15 68.0874-4.32985e-15 71.1342 2.47812 73.5717 5.48436 73.5717 6.49999 73.5717 7.47499 73.2874 8.28748 72.7999L18.5656 82.103 8.28748 91.4061C7.47499 90.9186 6.49999 90.6342 5.48436 90.6342 2.4375 90.6342-5.05151e-15 93.1123-5.05151e-15 96.1186-5.05151e-15 99.1654 2.47812 101.603 5.48436 101.603 8.53123 101.603 10.9687 99.1248 10.9687 96.1186 10.9687 95.3061 10.7656 94.4936 10.4406 93.8029L20.9625 84.2967 31.4843 93.8029C31.1593 94.4936 30.9562 95.3061 30.9562 96.1186 30.9562 99.1654 33.4343 101.603 36.4406 101.603 38.9187 101.603 40.9905 99.9779 41.6812 97.7436L62.1561 97.7436C62.8468 99.9779 64.9593 101.603 67.3967 101.603 69.8342 101.603 71.9467 99.9779 72.6374 97.7436L93.1123 97.7436C93.8029 99.9779 95.9154 101.603 98.3529 101.603 101.4 101.603 103.837 99.1248 103.837 96.1186 103.837 93.0717 101.359 90.6342 98.3529 90.6342 95.8748 90.6342 93.8029 92.2592 93.1123 94.4936L72.6374 94.4936C71.9467 92.2592 69.8342 90.6342 67.3967 90.6342 64.9186 90.6342 62.8468 92.2592 62.1561 94.4936L41.6812 94.4936C40.9905 92.2592 38.878 90.6342 36.4406 90.6342 35.4249 90.6342 34.4499 90.9186 33.6374 91.4061L23.3593 82.103 33.6374 72.7999C34.4499 73.2874 35.4249 73.5717 36.4406 73.5717 39.4874 73.5717 41.9249 71.0936 41.9249 68.0874 41.9249 67.2749 41.7218 66.4624 41.3968 65.7717L56.6311 51.9593 63.4155 64.2686C62.4811 65.2436 61.8718 66.5842 61.8718 68.0874 61.8718 71.1342 64.3499 73.5717 67.3561 73.5717 69.8342 73.5717 71.9061 71.9467 72.5967 69.7124L93.0717 69.7124C93.7623 71.9467 95.8748 73.5717 98.3123 73.5717 101.359 73.5717 103.797 71.0936 103.797 68.0874 103.797 65.0405 101.319 62.603 98.3123 62.603 95.8342 62.603 93.7623 64.228 93.0717 66.4624L72.5967 66.4624C71.9061 64.228 69.7936 62.603 67.3561 62.603 66.9905 62.603 66.5842 62.6436 66.2186 62.7249L59.0686 49.7655 64.6749 44.8499Z" transform="matrix(1 0 0 1 1521 853)"/></g></g></g></g></svg>