<svg width="115" height="114" xmlns="http://www.w3.org/2000/svg" xmlns:xlink="http://www.w3.org/1999/xlink" xml:space="preserve" overflow="hidden"><g transform="translate(-1216 -2292)"><path d="M1218.5 2349C1218.5 2318.9 1243.12 2294.5 1273.5 2294.5 1303.88 2294.5 1328.5 2318.9 1328.5 2349 1328.5 2379.1 1303.88 2403.5 1273.5 2403.5 1243.12 2403.5 1218.5 2379.1 1218.5 2349Z" stroke="#000000" stroke-width="4.58333" stroke-miterlimit="8" fill="#FFFFFF" fill-rule="evenodd"/><g><g><g><path d="M24.2695 47.6855C24.2736 43.7419 25.269 39.8626 27.164 36.4042L31.3945 38.7421C29.877 41.4781 29.0849 44.5569 29.0937 47.6855 29.0937 57.9534 37.4175 66.2773 47.6855 66.2773 57.9534 66.2773 66.2773 57.9534 66.2773 47.6855 66.2773 37.4175 57.9534 29.0937 47.6855 29.0937L47.6855 24.2695C60.6178 24.2695 71.1015 34.7532 71.1015 47.6855 71.1015 60.6178 60.6178 71.1015 47.6855 71.1015 34.7532 71.1015 24.2695 60.6178 24.2695 47.6855ZM73.5507 47.6855C73.5442 61.9704 61.9587 73.5454 47.6737 73.5389 41.2926 73.536 35.1378 71.1744 30.3925 66.9081L27.164 70.4706C39.7479 81.8251 59.1538 80.8285 70.5083 68.2446 81.8628 55.6607 80.8661 36.2548 68.2822 24.9003 62.6337 19.8036 55.2935 16.9867 47.6855 16.9961L47.6855 21.8203C61.962 21.8407 73.5302 33.409 73.5507 47.6855ZM47.6855 86.6503C69.2051 86.6503 86.6503 69.2051 86.6503 47.6855 86.6503 26.1658 69.2051 8.72069 47.6855 8.72069L47.6855 13.5449C66.5408 13.5518 81.8204 28.8427 81.8135 47.698 81.8065 66.5534 66.5157 81.833 47.6603 81.8261 33.3462 81.8208 20.5552 72.8867 15.623 59.4491L11.0957 61.1191C16.7575 76.4404 31.3515 86.6236 47.6855 86.6503ZM47.6855 0.927733 47.6855 5.75195C70.8447 5.75195 89.619 24.5262 89.619 47.6855 89.619 70.8447 70.8447 89.619 47.6855 89.619 24.5262 89.619 5.75195 70.8447 5.75195 47.6855L0.927733 47.6855C0.927733 73.5091 21.8619 94.4432 47.6855 94.4432 73.5091 94.4432 94.4432 73.5091 94.4432 47.6855 94.4432 21.8619 73.5091 0.927733 47.6855 0.927733Z" transform="matrix(1.01053 0 0 1 1225 2301)"/></g></g></g></g></svg>