<svg width="124" height="125" xmlns="http://www.w3.org/2000/svg" xmlns:xlink="http://www.w3.org/1999/xlink" xml:space="preserve" overflow="hidden"><g transform="translate(-2835 -746)"><path d="M2837.5 808.5C2837.5 775.363 2864.14 748.5 2897 748.5 2929.86 748.5 2956.5 775.363 2956.5 808.5 2956.5 841.637 2929.86 868.5 2897 868.5 2864.14 868.5 2837.5 841.637 2837.5 808.5Z" stroke="#000000" stroke-width="4.58333" stroke-miterlimit="8" fill="#FFFFFF" fill-rule="evenodd"/><g><g><g><path d="M2854.22 832.123C2853.41 830.714 2853.89 828.917 2855.3 828.104 2856.71 827.292 2858.5 827.773 2859.32 829.18 2860.13 830.588 2859.65 832.386 2858.24 833.199 2856.83 834.013 2855.04 833.528 2854.22 832.123Z"/><path d="M2850.7 810.942C2849.08 810.943 2847.76 809.627 2847.76 808.003 2847.76 806.377 2849.08 805.06 2850.7 805.06 2852.33 805.06 2853.64 806.374 2853.64 808.001 2853.64 809.625 2852.33 810.942 2850.7 810.942Z"/><path d="M2854.22 783.879C2855.04 782.472 2856.83 781.991 2858.24 782.801 2859.65 783.615 2860.13 785.413 2859.32 786.819 2858.51 788.228 2856.71 788.709 2855.3 787.897 2853.89 787.086 2853.41 785.287 2854.22 783.879Z"/><path d="M2871.88 766.222C2873.29 765.41 2875.09 765.891 2875.9 767.298 2876.71 768.706 2876.23 770.503 2874.82 771.317 2873.41 772.128 2871.62 771.647 2870.8 770.239 2869.99 768.833 2870.47 767.034 2871.88 766.222Z"/><path d="M2893.2 804.134 2894.3 773.112C2894.35 771.644 2895.12 770.443 2896 770.443 2896.88 770.443 2897.65 771.644 2897.7 773.112L2898.81 804.134C2900 805.004 2900.79 806.407 2900.79 808.002 2900.79 810.649 2898.65 812.794 2896 812.794 2893.35 812.794 2891.21 810.65 2891.21 808.002 2891.21 806.407 2892 805.005 2893.2 804.134Z"/><path d="M2896 759.758C2897.63 759.758 2898.94 761.075 2898.94 762.701 2898.94 764.325 2897.63 765.64 2896 765.64 2894.38 765.64 2893.06 764.325 2893.06 762.701 2893.06 761.075 2894.38 759.758 2896 759.758Z"/><path d="M2917.18 844.687C2918.59 843.873 2920.39 844.355 2921.2 845.762 2922.01 847.171 2921.53 848.967 2920.12 849.781 2918.72 850.593 2916.92 850.111 2916.1 848.704 2915.29 847.297 2915.77 845.497 2917.18 844.687Z"/><path d="M2916.1 767.299C2916.92 765.892 2918.72 765.408 2920.12 766.224 2921.53 767.032 2922.01 768.833 2921.2 770.242 2920.39 771.647 2918.59 772.13 2917.18 771.317 2915.77 770.506 2915.29 768.706 2916.1 767.299Z"/><path d="M2933.76 782.803C2935.17 781.992 2936.97 782.472 2937.78 783.882 2938.59 785.287 2938.11 787.085 2936.7 787.9 2935.3 788.711 2933.5 788.23 2932.68 786.821 2931.87 785.414 2932.36 783.614 2933.76 782.803Z"/><path d="M2941.3 805.06C2942.93 805.06 2944.24 806.374 2944.24 808.002 2944.24 809.625 2942.93 810.942 2941.3 810.942 2939.68 810.942 2938.36 809.628 2938.36 808.001 2938.36 806.377 2939.68 805.06 2941.3 805.06Z"/><path d="M2937.78 832.123C2936.97 833.529 2935.17 834.011 2933.76 833.199 2932.35 832.387 2931.87 830.589 2932.68 829.18 2933.5 827.774 2935.3 827.292 2936.7 828.104 2938.11 828.916 2938.6 830.714 2937.78 832.123Z"/><path d="M2896 856.242C2894.38 856.242 2893.06 854.925 2893.06 853.301 2893.06 851.677 2894.38 850.359 2896 850.359 2897.63 850.359 2898.94 851.676 2898.94 853.301 2898.94 854.925 2897.63 856.242 2896 856.242Z"/><path d="M2875.9 848.703C2875.09 850.113 2873.29 850.592 2871.88 849.784 2870.47 848.968 2869.99 847.171 2870.8 845.762 2871.62 844.355 2873.41 843.874 2874.82 844.686 2876.23 845.497 2876.71 847.297 2875.9 848.703Z"/></g></g></g></g></svg>