<svg width="124" height="124" xmlns="http://www.w3.org/2000/svg" xmlns:xlink="http://www.w3.org/1999/xlink" xml:space="preserve" overflow="hidden"><g transform="translate(-2704 -157)"><rect x="2706.5" y="159.5" width="119" height="119" stroke="#000000" stroke-width="4.58333" stroke-miterlimit="8" fill="#FFFFFF"/><g><g><g><path d="M2814.23 267.227 2716.77 267.227 2716.77 169.774 2721.34 169.774 2721.34 262.659 2814.23 262.659ZM2727.43 188.831C2727.43 195.98 2733.23 201.775 2740.38 201.775 2747.52 201.775 2753.32 195.98 2753.32 188.831 2753.32 181.683 2747.52 175.888 2740.38 175.888 2733.23 175.888 2727.43 181.683 2727.43 188.831ZM2747.23 218.5C2747.23 228.592 2755.41 236.773 2765.5 236.773 2775.59 236.773 2783.77 228.592 2783.77 218.5 2783.77 208.409 2775.59 200.228 2765.5 200.228 2755.41 200.228 2747.23 208.409 2747.23 218.5ZM2787.58 237.51C2787.58 243.187 2792.18 247.789 2797.86 247.789 2803.53 247.789 2808.14 243.187 2808.14 237.51 2808.14 231.834 2803.53 227.232 2797.86 227.232 2792.18 227.232 2787.58 231.834 2787.58 237.51ZM2740.38 247.789C2740.38 252.624 2744.3 256.544 2749.13 256.544 2753.97 256.544 2757.89 252.624 2757.89 247.789 2757.89 242.953 2753.97 239.033 2749.13 239.033 2744.3 239.033 2740.38 242.953 2740.38 247.789ZM2781.49 188.831C2781.49 192.195 2784.22 194.922 2787.58 194.922 2790.94 194.922 2793.67 192.195 2793.67 188.831 2793.67 185.468 2790.94 182.741 2787.58 182.741 2784.22 182.741 2781.49 185.467 2781.49 188.831Z"/></g></g></g></g></svg>