<svg width="141" height="141" xmlns="http://www.w3.org/2000/svg" xmlns:xlink="http://www.w3.org/1999/xlink" xml:space="preserve" overflow="hidden"><g transform="translate(-545 -1512)"><path d="M547.5 1554.33 587.333 1514.5 643.667 1514.5 683.5 1554.33 683.5 1610.67 643.667 1650.5 587.333 1650.5 547.5 1610.67Z" stroke="#042433" stroke-width="4.58333" stroke-miterlimit="8" fill="#FFFFFF" fill-rule="evenodd"/><g><g><g><path d="M669.797 1565.16 674.063 1560.75 671.672 1559.02 670.453 1555.31 667.406 1555.03 666.656 1560.33 665.672 1561.87 665.063 1562.91 661.5 1563.89 658.547 1564.59 656.344 1567.45C653.11 1551.28 638.531 1539.23 621.375 1539.23 614.91 1539.26 608.568 1541.01 603 1544.3 594.504 1545.42 586.495 1548.91 579.891 1554.37L582.235 1554.84C587.178 1550.7 593.1 1547.89 599.438 1546.69 595.922 1549.29 592.891 1552.5 590.485 1556.16L592.547 1556.44C595.292 1552.24 598.945 1548.72 603.235 1546.12 604.884 1545.94 606.543 1545.84 608.203 1545.84 627.047 1545.84 643.406 1558.41 647.813 1575.94L649.5 1574.86C644.86 1556.48 627.938 1543.97 608.203 1543.97L607.313 1543.97C611.746 1542.03 616.536 1541.04 621.375 1541.06 638.25 1541.06 652.547 1554.19 654.891 1570.31L656.625 1569.19C656.617 1568.94 656.586 1568.68 656.531 1568.44L656.813 1569.09 656.625 1569.19C656.663 1569.28 656.679 1569.37 656.672 1569.47 656.89 1570.83 657.015 1572.21 657.047 1573.59 658.243 1573.93 659.067 1575.02 659.063 1576.27 659.038 1577.78 657.814 1579.01 656.297 1579.03 654.77 1579.04 653.527 1577.8 653.521 1576.28 653.516 1575.18 654.165 1574.18 655.172 1573.73 655.125 1572.61 655.031 1571.44 654.891 1570.31L651.797 1572.28 650.25 1574.25 649.5 1574.81C649.5 1574.91 649.547 1575.05 649.547 1575.14 650.352 1578.3 650.762 1581.54 650.766 1584.8L650.672 1584.8C652.127 1585.26 652.928 1586.82 652.462 1588.27 651.996 1589.73 650.439 1590.53 648.985 1590.06 647.53 1589.6 646.729 1588.04 647.195 1586.59 647.467 1585.74 648.134 1585.07 648.985 1584.8L648.891 1584.8C648.885 1581.8 648.523 1578.81 647.813 1575.89L644.906 1577.62 642.75 1576.97 644.391 1573.08 641.953 1569.66 641.25 1566.84 639.422 1565.86 636.281 1568.72 635.625 1571.16 636.563 1574.25 635.625 1577.77 634.219 1578 633.422 1575.89 633 1573.73 633.75 1569.28 633.141 1568.48 634.125 1566.09 639.985 1565.25 637.875 1563.14 633.281 1564.5 631.031 1562.95 627.281 1564.78 623.906 1564.45 625.078 1560.75 622.688 1559.44 620.578 1559.58 617.86 1558.27 614.016 1558.27 601.125 1557.61 592.547 1556.44 592.266 1556.86 591.985 1557.28C589.282 1561.6 587.628 1566.5 587.156 1571.58 588.13 1572.05 588.749 1573.03 588.75 1574.11 588.75 1575.64 587.512 1576.87 585.985 1576.87 584.457 1576.87 583.224 1575.63 583.23 1574.1 583.235 1572.85 584.075 1571.76 585.281 1571.44 585.768 1566.06 587.518 1560.87 590.391 1556.3L590.485 1556.16 585.188 1555.45 582.235 1554.84 581.531 1555.41C574.228 1561.44 569.405 1569.95 567.985 1579.31 569.036 1579.74 569.724 1580.76 569.719 1581.89 569.694 1583.41 568.47 1584.63 566.953 1584.66 565.452 1584.68 564.214 1583.49 564.188 1581.99 564.187 1581.95 564.187 1581.92 564.188 1581.89 564.191 1580.69 564.968 1579.63 566.11 1579.27 567.509 1569.56 572.411 1560.71 579.891 1554.37L578.719 1554.14 576.891 1553.72 566.438 1550.91 565.688 1553.25 561.938 1553.48 561.375 1559.62 557.766 1566.47 557.766 1568.95 555.938 1572.98 556.031 1577.53 559.547 1591.73 563.625 1594.03 565.5 1596.56 565.875 1599 571.594 1599.75 571.219 1600.31 579.797 1605.28 584.531 1606.03 586.688 1605.05 590.813 1605.61 594.141 1609.08 595.031 1612.03 598.313 1614.28 599.625 1612.22 602.813 1612.31 607.313 1618.87 608.297 1622.25 612.891 1623.19 612.281 1620.61 613.688 1617.66 617.297 1615.59 621.75 1612.03 625.594 1613.2 626.625 1612.31 629.11 1614.19 631.875 1613.25 632.297 1610.95 635.016 1610.16 637.406 1609.69 640.781 1609.83 643.735 1611.47 645.891 1609.78 649.828 1612.78 649.828 1615.87 652.266 1619.53 656.906 1622.2 657.188 1617.09 655.313 1613.06 651.797 1607.16 652.641 1603.22 656.109 1599.28 657.141 1597.08 662.531 1590.33 661.406 1588.5 661.781 1588.5 659.953 1586.86 660.094 1584.98 659.484 1584.37 661.406 1584.52 661.969 1584.23 662.297 1582.87 662.344 1582.87 660.656 1579.36 661.359 1578.61 663.469 1578.94 663.047 1575.37 663.609 1575.23 667.078 1573.41 668.016 1572 668.109 1572 668.391 1572.42 669.375 1571.25 667.969 1568.53 667.969 1567.92ZM610.031 1590.09C608.504 1590.09 607.266 1588.86 607.266 1587.33 607.266 1585.8 608.504 1584.56 610.031 1584.56 611.559 1584.56 612.797 1585.8 612.797 1587.33 612.797 1588.86 611.559 1590.09 610.031 1590.09ZM636.375 1601.06C634.874 1601.09 633.636 1599.89 633.61 1598.39 633.609 1598.36 633.609 1598.33 633.61 1598.3 633.63 1597.17 634.309 1596.16 635.344 1595.72 635.297 1595.11 635.25 1594.5 635.156 1593.89 633.235 1581.33 622.969 1572.19 610.688 1572.19 600.469 1572.19 591.469 1578.52 587.672 1588.36 587.305 1589.24 587.007 1590.15 586.781 1591.08 588.076 1591.89 588.468 1593.6 587.657 1594.89 587.146 1595.71 586.245 1596.2 585.281 1596.19 583.754 1596.28 582.442 1595.11 582.352 1593.59 582.261 1592.06 583.426 1590.75 584.953 1590.66 585.216 1589.66 585.529 1588.67 585.891 1587.7 589.969 1577.11 599.719 1570.31 610.688 1570.31 617.111 1570.34 623.301 1572.72 628.078 1577.02 632.897 1581.33 636.048 1587.21 636.985 1593.61 637.111 1594.29 637.19 1594.98 637.219 1595.67 638.38 1596.01 639.168 1597.09 639.141 1598.3 639.141 1599.82 637.903 1601.06 636.375 1601.06Z"/></g></g></g></g></svg>