<svg width="124" height="124" xmlns="http://www.w3.org/2000/svg" xmlns:xlink="http://www.w3.org/1999/xlink" xml:space="preserve" overflow="hidden"><defs><clipPath id="clip0"><rect x="1974" y="284" width="100" height="101"/></clipPath><clipPath id="clip1"><rect x="1974" y="284" width="100" height="101"/></clipPath><clipPath id="clip2"><rect x="1974" y="284" width="100" height="101"/></clipPath></defs><g transform="translate(-1962 -273)"><rect x="1964.5" y="275.5" width="119" height="119" stroke="#000000" stroke-width="4.58333" stroke-miterlimit="8" fill="#FFFFFF"/><g clip-path="url(#clip0)"><g clip-path="url(#clip1)"><g clip-path="url(#clip2)"><path d="M15.5571 85.9179 14.3393 82.5786 64.6643 64.1536 81.5179 39.0107 86.6643 18.15 50.7179 12.5714 62.2679 40.0714 29.8571 65.45 27.6571 62.6607 57.9464 38.9321 44.9821 8.09286 91.025 15.2429 84.7786 40.4643 66.9821 67.0607 66.4321 67.2571Z" fill="#000000" fill-opacity="0.5" transform="matrix(1 0 0 1.0101 1974 285)"/><path d="M14.6929 80.4571C16.8192 80.4571 18.5429 82.181 18.5429 84.3071 18.5429 86.4333 16.8192 88.1571 14.6929 88.1571 12.5666 88.1571 10.8429 86.4333 10.8429 84.3071 10.8429 82.181 12.5666 80.4571 14.6929 80.4571ZM28.6 60.3429C30.7479 60.3212 32.5066 62.0451 32.5282 64.1929 32.5497 66.3406 30.826 68.0994 28.6782 68.121 26.5304 68.1426 24.7718 66.4192 24.75 64.2714L24.75 64.1929C24.75 62.0667 26.4737 60.3429 28.6 60.3429ZM65.725 61.8357C67.8727 61.8141 69.6316 63.538 69.6532 65.6857 69.6748 67.8335 67.9509 69.5923 65.8032 69.6139 63.6554 69.6355 61.897 67.912 61.875 65.7643L61.875 65.6857C61.875 63.5596 63.5989 61.8357 65.725 61.8357ZM59.5571 35.5929C61.7049 35.5713 63.4637 37.295 63.4853 39.4429 63.5069 41.5906 61.7831 43.3494 59.6353 43.371 57.4876 43.3926 55.7291 41.6692 55.7071 39.5214L55.7071 39.4429C55.7071 37.3166 57.431 35.5929 59.5571 35.5929ZM47.1821 6.20714C49.3303 6.21799 51.0624 7.96805 51.0518 10.116 51.0408 12.264 49.291 13.9965 47.1429 13.9856 44.9947 13.9748 43.2626 12.2247 43.2732 10.0767 43.2842 7.94408 45.01 6.21791 47.1429 6.20714ZM82.775 35.5929C84.9133 35.7979 86.4804 37.6975 86.2754 39.8357 86.0703 41.974 84.1704 43.5411 82.0325 43.3361 80.1778 43.1581 78.7101 41.69 78.5321 39.8357 78.3055 37.7216 79.8352 35.8238 81.9492 35.5969 81.9626 35.5955 81.9759 35.5942 81.9893 35.5929ZM88.9429 12.375C91.0906 12.3534 92.8494 14.0771 92.871 16.225 92.8926 18.3729 91.1688 20.1316 89.021 20.1532 86.8733 20.1747 85.1149 18.4513 85.0929 16.3036L85.0929 16.225C85.0929 14.0987 86.8167 12.375 88.9429 12.375ZM99 94.3643 4.63571 94.3643 4.63571 0 0 0 0 99 99 99Z" transform="matrix(1 0 0 1.0101 1974 285)"/></g></g></g></g></svg>