<svg width="124" height="124" xmlns="http://www.w3.org/2000/svg" xmlns:xlink="http://www.w3.org/1999/xlink" xml:space="preserve" overflow="hidden"><g transform="translate(-3379 -1876)"><rect x="3381.5" y="1878.5" width="119" height="119" stroke="#000000" stroke-width="4.58333" stroke-miterlimit="8" fill="#FFFFFF"/><g><g><g><path d="M14.8914 86.6304C14.8914 90.7648 11.5609 94.0953 7.42656 94.0953 3.33047 94.057 0 90.7265 0 86.6304 0 82.4961 3.33047 79.1656 7.46484 79.1656 11.5609 79.1656 14.8914 82.4961 14.8914 86.6304ZM35.1422 79.1656C31.0078 79.1656 27.6773 82.4961 27.6773 86.6304 27.6773 90.7648 31.0078 94.0953 35.1422 94.0953 39.2766 94.0953 42.607 90.7648 42.607 86.6304 42.607 82.4961 39.2766 79.1656 35.1422 79.1656ZM62.8578 79.1656C58.7234 79.1656 55.393 82.4961 55.393 86.6304 55.393 90.7648 58.7234 94.0953 62.8578 94.0953 66.9922 94.0953 70.3226 90.7648 70.3226 86.6304 70.2844 82.4961 66.9539 79.1656 62.8578 79.1656ZM90.5351 79.1656C86.4008 79.1656 83.0703 82.4961 83.0703 86.6304 83.0703 90.7648 86.4008 94.0953 90.5351 94.0953 94.6695 94.0953 98 90.7648 98 86.6304 98 82.4961 94.6695 79.1656 90.5351 79.1656ZM7.46484 59.7953C3.33047 59.7953 0 63.1258 0 67.2219 0 71.3562 3.33047 74.6867 7.46484 74.6867 11.5992 74.6867 14.9297 71.3562 14.9297 67.2219 14.8914 63.1258 11.5609 59.7953 7.46484 59.7953ZM35.1422 59.7953C31.0078 59.7953 27.6773 63.1258 27.6773 67.2601 27.6773 71.3945 31.0078 74.725 35.1422 74.725 39.2766 74.725 42.607 71.3945 42.607 67.2601 42.607 63.1258 39.2766 59.7953 35.1422 59.7953ZM62.8578 59.7953C58.7234 59.7953 55.393 63.1258 55.393 67.2601 55.393 71.3945 58.7234 74.725 62.8578 74.725 66.9922 74.725 70.3226 71.3945 70.3226 67.2601 70.2844 63.1258 66.9539 59.7953 62.8578 59.7953ZM90.5351 59.7953C86.4008 59.7953 83.0703 63.1258 83.0703 67.2601 83.0703 71.3945 86.4008 74.725 90.5351 74.725 94.6695 74.725 98 71.3945 98 67.2601 98 63.1258 94.6695 59.7953 90.5351 59.7953ZM35.1422 40.3867C31.0078 40.3867 27.6773 43.7172 27.6773 47.8515 27.6773 51.9859 31.0078 55.3164 35.1422 55.3164 39.2766 55.3164 42.607 51.9859 42.607 47.8515 42.607 43.7172 39.2766 40.3867 35.1422 40.3867ZM62.8578 40.3867C58.7234 40.3867 55.393 43.7172 55.393 47.8515 55.393 51.9859 58.7234 55.3164 62.8578 55.3164 66.9922 55.3164 70.3226 51.9859 70.3226 47.8515 70.3226 43.7172 66.9539 40.3867 62.8578 40.3867ZM90.5351 40.3867C86.4008 40.3867 83.0703 43.7172 83.0703 47.8515 83.0703 51.9859 86.4008 55.3164 90.5351 55.3164 94.6695 55.3164 98 51.9859 98 47.8515 98 43.7172 94.6695 40.3867 90.5351 40.3867ZM35.1422 21.0164C31.0078 21.0164 27.6773 24.3469 27.6773 28.4812 27.6773 32.6156 31.0078 35.9461 35.1422 35.9461 39.2766 35.9461 42.607 32.6156 42.607 28.4812 42.607 24.3469 39.2766 21.0164 35.1422 21.0164ZM62.8578 21.0164C58.7234 21.0164 55.393 24.3469 55.393 28.4812 55.393 32.6156 58.7234 35.9461 62.8578 35.9461 66.9922 35.9461 70.3226 32.6156 70.3226 28.4812 70.3226 24.3469 66.9539 21.0164 62.8578 21.0164ZM62.8578 1.64609C58.7234 1.64609 55.393 4.97656 55.393 9.11093 55.393 13.2453 58.7234 16.5758 62.8578 16.5758 66.9922 16.5758 70.3226 13.2453 70.3226 9.11093 70.2844 4.97656 66.9539 1.64609 62.8578 1.64609Z" transform="matrix(1 0 0 1.0102 3392 1891)"/></g></g></g></g></svg>