<svg width="115" height="115" xmlns="http://www.w3.org/2000/svg" xmlns:xlink="http://www.w3.org/1999/xlink" xml:space="preserve" overflow="hidden"><g transform="translate(-1307 -2329)"><path d="M1309.5 2386.5C1309.5 2356.12 1334.12 2331.5 1364.5 2331.5 1394.88 2331.5 1419.5 2356.12 1419.5 2386.5 1419.5 2416.88 1394.88 2441.5 1364.5 2441.5 1334.12 2441.5 1309.5 2416.88 1309.5 2386.5Z" stroke="#000000" stroke-width="4.58333" stroke-miterlimit="8" fill="#FFFFFF" fill-rule="evenodd"/><g><g><g><path d="M1364.18 2338.9C1352.95 2338.88 1342.08 2342.9 1333.57 2350.22L1333.4 2350.31C1333.32 2350.36 1333.26 2350.43 1333.23 2350.52 1322.89 2359.46 1316.96 2372.45 1316.96 2386.12 1316.97 2388.91 1317.21 2391.7 1317.69 2394.46 1317.63 2394.59 1317.61 2394.74 1317.64 2394.89 1317.64 2395.09 1317.73 2395.28 1317.9 2395.4 1322.95 2420.98 1347.78 2437.63 1373.37 2432.58 1395.55 2428.2 1411.51 2408.72 1411.44 2386.12 1411.44 2360.1 1390.24 2338.9 1364.18 2338.9ZM1383.94 2373.98 1399.95 2357.97C1401.11 2359.44 1402.18 2360.97 1403.14 2362.57L1402.63 2362.06 1386.02 2378.66C1385.48 2377.04 1384.78 2375.47 1383.94 2373.98ZM1403.23 2362.7C1404.04 2364.05 1404.78 2365.44 1405.44 2366.87L1391.35 2380.96 1389.69 2382.37 1388.03 2383.82 1387.43 2384.41C1387.18 2382.77 1386.81 2381.15 1386.32 2379.56ZM1399.39 2357.29 1383.47 2373.26C1382.65 2371.98 1381.71 2370.78 1380.66 2369.68L1396.33 2353.97 1395.73 2353.37 1380.06 2369.08C1378.58 2367.65 1376.88 2366.44 1375.04 2365.51L1391.13 2349.46C1394.2 2351.72 1396.97 2354.35 1399.39 2357.29ZM1367.16 2362.53 1367.21 2362.53 1384.45 2345.33C1386.54 2346.34 1388.53 2347.54 1390.41 2348.9L1374.23 2365.08C1371.99 2364.08 1369.61 2363.44 1367.16 2363.21ZM1367.33 2354.74 1378.96 2343.07C1380.53 2343.62 1382.11 2344.26 1383.64 2344.94L1367.21 2361.38ZM1367.33 2353.5 1367.55 2344.81 1368.1 2345.37 1372.14 2341.28C1374.15 2341.64 1376.13 2342.14 1378.06 2342.77ZM1371.12 2341.11 1367.55 2344.69 1367.63 2340.73C1368.78 2340.81 1369.97 2340.94 1371.12 2341.11ZM1364.52 2340.6 1365.93 2340.6 1365.46 2363.04 1364.52 2363.04ZM1361.8 2340.64 1363.67 2340.64 1363.67 2363.08 1362.86 2363.08 1361.8 2363.17ZM1358.43 2340.98C1359.27 2340.85 1360.11 2340.77 1360.95 2340.73L1360.95 2363.25C1360.1 2363.33 1359.26 2363.46 1358.43 2363.63ZM1354.52 2341.62 1357.58 2341.07 1357.58 2363.85C1356.54 2364.09 1355.52 2364.4 1354.52 2364.78ZM1350.9 2342.6C1351.79 2342.3 1352.73 2342.05 1353.67 2341.83L1353.67 2365.08C1352.73 2365.51 1351.79 2365.93 1350.9 2366.44ZM1347.24 2366.61 1347.24 2343.88 1350.05 2342.86 1350.05 2366.96 1348.17 2368.19C1348.15 2368.08 1348.11 2367.98 1348.05 2367.89L1347.19 2366.83C1347.23 2366.76 1347.24 2366.69 1347.24 2366.61ZM1344.26 2362.74 1344.26 2345.2 1346.38 2344.22 1346.38 2365.76 1344.21 2362.95C1344.25 2362.89 1344.26 2362.81 1344.26 2362.74ZM1340.89 2347.03C1341.7 2346.52 1342.55 2346.05 1343.4 2345.62L1343.4 2361.93 1340.89 2358.65ZM1338.68 2348.43 1340.04 2347.54 1340.04 2357.55 1338.68 2355.8ZM1337.83 2349.03 1337.83 2354.69 1335.1 2351.12ZM1364.18 2431.63C1342.69 2431.61 1324.14 2416.58 1319.65 2395.57L1338.85 2394.16C1341.69 2405.13 1351.58 2412.79 1362.9 2412.81 1364.48 2412.81 1366.05 2412.65 1367.59 2412.34L1370.82 2431.16C1368.63 2431.49 1366.41 2431.65 1364.18 2431.63ZM1380.11 2403.74C1376.96 2407.05 1372.92 2409.37 1368.48 2410.43L1368.14 2410.43C1367.98 2410.46 1367.84 2410.54 1367.72 2410.64 1366.14 2410.98 1364.52 2411.15 1362.9 2411.15 1350.12 2411.13 1339.77 2400.77 1339.74 2387.99 1339.74 2375.56 1349.92 2365.38 1362.95 2364.83L1364.1 2364.83C1376.74 2364.83 1385.34 2373.85 1386.07 2388.07 1386.31 2393.89 1384.16 2399.56 1380.11 2403.74ZM1387.47 2384.92 1387.98 2385.09C1388.14 2384.85 1388.34 2384.65 1388.58 2384.5L1390.24 2383.05 1391.9 2381.6 1405.82 2367.68C1406.58 2369.41 1407.24 2371.19 1407.78 2373L1394.24 2386.58 1387.73 2387.14C1387.64 2386.37 1387.6 2385.65 1387.47 2384.92ZM1395.56 2386.46 1408.04 2373.94C1408.63 2376.05 1409.07 2378.2 1409.36 2380.37L1409.19 2380.2 1403.69 2385.69ZM1405.01 2385.6 1409.44 2381.18C1409.57 2382.5 1409.7 2383.82 1409.7 2385.18Z"/></g></g></g></g></svg>