<svg width="124" height="124" xmlns="http://www.w3.org/2000/svg" xmlns:xlink="http://www.w3.org/1999/xlink" xml:space="preserve" overflow="hidden"><g transform="translate(-3643 -111)"><rect x="3645.5" y="113.5" width="119" height="119" stroke="#000000" stroke-width="4.58333" stroke-miterlimit="8" fill="#FFFFFF"/><g><g><g><path d="M3658.46 218.422 3658.46 122.717 3653.76 122.717 3653.76 223.124 3754.16 223.124 3754.16 218.422M3696.83 180.809 3696.83 137.181C3699.92 136.225 3701.65 132.944 3700.69 129.854 3699.74 126.764 3696.46 125.034 3693.37 125.99 3690.28 126.946 3688.55 130.226 3689.5 133.316 3690.06 135.119 3691.45 136.543 3693.24 137.141L3693.24 180.849C3690.2 181.874 3688.56 185.172 3689.58 188.218 3690.61 191.262 3693.91 192.901 3696.95 191.877 3700 190.852 3701.63 187.554 3700.61 184.509 3700.02 182.74 3698.61 181.365 3696.83 180.809ZM3695.11 189.017C3693.65 188.838 3692.61 187.506 3692.79 186.042 3692.94 184.826 3693.9 183.867 3695.11 183.718 3696.58 183.898 3697.62 185.23 3697.44 186.693 3697.29 187.91 3696.33 188.868 3695.11 189.017ZM3741.93 185.312 3741.93 163.677 3741.85 163.677C3744.93 162.752 3746.67 159.509 3745.75 156.432 3744.83 153.355 3741.58 151.61 3738.5 152.534 3735.43 153.458 3733.68 156.702 3734.61 159.779 3735.17 161.65 3736.63 163.114 3738.5 163.677L3738.35 163.677 3738.35 185.312C3735.27 186.302 3733.57 189.601 3734.56 192.681 3735.55 195.76 3738.85 197.454 3741.93 196.464 3745.01 195.473 3746.7 192.174 3745.71 189.095 3745.14 187.298 3743.73 185.89 3741.93 185.312ZM3740.14 193.48C3738.69 193.458 3737.53 192.263 3737.55 190.811 3737.57 189.358 3738.77 188.199 3740.22 188.221 3741.65 188.243 3742.81 189.413 3742.81 190.85 3742.79 192.309 3741.6 193.48 3740.14 193.48ZM3719.5 197.384 3719.58 197.384 3719.58 170.968C3722.61 169.91 3724.21 166.593 3723.16 163.559 3722.1 160.526 3718.78 158.925 3715.75 159.983 3712.71 161.041 3711.11 164.358 3712.17 167.391 3712.78 169.152 3714.21 170.512 3715.99 171.048L3715.99 197.265C3712.88 198.128 3711.05 201.355 3711.91 204.472 3712.77 207.59 3716 209.417 3719.12 208.554 3722.24 207.691 3724.06 204.464 3723.2 201.347 3722.69 199.5 3721.31 198.02 3719.5 197.384ZM3717.59 205.513C3716.11 205.535 3714.9 204.357 3714.88 202.883 3714.86 201.409 3716.03 200.196 3717.51 200.174 3718.98 200.152 3720.19 201.33 3720.22 202.804 3720.22 202.83 3720.22 202.857 3720.22 202.883 3720.2 204.326 3719.03 205.491 3717.59 205.513ZM3674.36 203.082 3674.36 165.828C3677.41 164.838 3679.09 161.558 3678.1 158.501 3677.11 155.445 3673.83 153.77 3670.77 154.76 3667.71 155.75 3666.04 159.031 3667.03 162.087 3667.6 163.862 3669 165.253 3670.77 165.828L3670.77 203.082C3667.69 204.072 3666 207.371 3666.99 210.451 3667.98 213.53 3671.28 215.224 3674.36 214.234 3677.44 213.243 3679.13 209.944 3678.14 206.865 3677.56 205.068 3676.15 203.66 3674.36 203.082ZM3672.56 211.29C3671.09 211.29 3669.89 210.095 3669.89 208.62 3669.89 207.146 3671.09 205.951 3672.56 205.951 3674.04 205.951 3675.23 207.146 3675.23 208.621 3675.23 208.634 3675.23 208.647 3675.23 208.66 3675.21 210.119 3674.02 211.29 3672.56 211.29Z"/></g></g></g></g></svg>