<svg width="125" height="125" xmlns="http://www.w3.org/2000/svg" xmlns:xlink="http://www.w3.org/1999/xlink" xml:space="preserve" overflow="hidden"><g transform="translate(-1165 -2113)"><rect x="1167.5" y="2115.5" width="120" height="120" stroke="#000000" stroke-width="4.58333" stroke-miterlimit="8" fill="#FFFFFF"/><g><g><g><path d="M94.0893 61.3821 94.0893 22.5643 76.5625 22.5643 54.8271 0.828856 33.0913 22.5643 15.6098 22.5643 15.6098 61.5496C7.30671 62.5799 0.857142 69.6749 0.857142 78.2523L0.857142 78.3342C0.857142 87.6179 8.40985 95.1706 17.6936 95.1706L17.7754 95.1706C27.0591 95.1706 34.6118 87.6179 34.6118 78.3342L34.6118 78.2523C34.6118 69.6646 28.1473 62.5628 19.8296 61.5462L19.8296 26.7835 33.1371 26.7835 54.8725 48.5189 76.6079 26.7835 89.8701 26.7835 89.8701 61.3821 75.1023 61.3821 75.1023 95.1368 108.857 95.1368 108.857 61.3821ZM30.3925 78.2523 30.3925 78.3342C30.3925 85.2912 24.7324 90.9513 17.7754 90.9513L17.6936 90.9513C10.7366 90.9513 5.07642 85.2912 5.07642 78.3342L5.07642 78.2523C5.07642 71.2954 10.7366 65.6356 17.6936 65.6356L17.7754 65.6356C24.7324 65.6356 30.3925 71.2958 30.3925 78.2523ZM104.638 90.9175 79.3216 90.9175 79.3216 65.6014 104.638 65.6014Z" transform="matrix(1.00261 0 0 1 1172 2127)"/></g></g></g></g></svg>