<svg width="124" height="124" xmlns="http://www.w3.org/2000/svg" xmlns:xlink="http://www.w3.org/1999/xlink" xml:space="preserve" overflow="hidden"><g transform="translate(-3243 -88)"><rect x="3245.5" y="90.4999" width="119" height="119" stroke="#000000" stroke-width="4.58333" stroke-miterlimit="8" fill="#FFFFFF"/><g><g><g><path d="M96.2421 96.2421 0.757812 96.2421 0.757812 0.757812 5.23383 0.757812 5.23383 91.7665 96.2421 91.7665ZM11.2016 78.3388 11.2016 85.7987 48.5 85.7987 48.5 78.3388ZM36.6808 60.4355 36.6808 67.8954 78.3388 67.8954 78.3388 60.4355ZM11.2016 42.5322 11.2016 49.9921 78.3388 49.9921 78.3388 42.5322ZM11.2016 24.6289 11.2016 32.0888 96.2421 32.0888 96.2421 24.6289ZM18.6611 6.72558 18.6611 14.1855 66.4033 14.1855 66.4033 6.72558Z" transform="matrix(1.01031 0 0 1 3256 102)"/></g></g></g></g></svg>