<svg width="114" height="117" xmlns="http://www.w3.org/2000/svg" xmlns:xlink="http://www.w3.org/1999/xlink" xml:space="preserve" overflow="hidden"><g transform="translate(-926 -2306)"><path d="M928.5 2366C928.5 2335.9 952.9 2311.5 983 2311.5 1013.1 2311.5 1037.5 2335.9 1037.5 2366 1037.5 2396.1 1013.1 2420.5 983 2420.5 952.9 2420.5 928.5 2396.1 928.5 2366Z" stroke="#000000" stroke-width="4.58333" stroke-miterlimit="8" fill="#FFFFFF" fill-rule="evenodd"/><g><g><g><path d="M46.3909 11.0437 46.3909 11.0437C20.816 11.0437 0 31.8597 0 57.4346L0 62.3389 17.1105 62.3389 17.1105 56.4901 9.48162 56.4901C9.95389 37.5995 24.6667 22.0875 43.4847 20.598L43.4847 27.6093 49.3335 27.6093 49.3335 20.598C68.1514 22.1238 82.8279 37.6359 83.3365 56.4901L75.7076 56.4901 75.7076 62.3389 92.8182 62.3389 92.8182 57.4346C92.7455 31.8597 71.9659 11.0801 46.3909 11.0437Z" transform="matrix(1 0 0 1.01076 936 2306)"/><path d="M40.1062 64.9546 40.0698 65.0272C38.8347 68.5147 40.6874 72.3291 44.1386 73.5643 44.8651 73.8186 45.628 73.9639 46.3909 73.9639 48.1347 73.9639 49.8784 73.2737 51.1499 72.0385L51.2952 71.8932 51.3315 71.8205C51.6948 71.3846 52.0218 70.9487 52.2761 70.4401L73.528 39.4159 42.7581 61.6487C41.5593 62.4116 40.6148 63.6104 40.1062 64.9546Z" transform="matrix(1 0 0 1.01076 936 2306)"/></g></g></g></g></svg>