<svg width="141" height="141" xmlns="http://www.w3.org/2000/svg" xmlns:xlink="http://www.w3.org/1999/xlink" xml:space="preserve" overflow="hidden"><g transform="translate(-567 -1800)"><path d="M569.5 1842.33 609.333 1802.5 665.667 1802.5 705.5 1842.33 705.5 1898.67 665.667 1938.5 609.333 1938.5 569.5 1898.67Z" stroke="#042433" stroke-width="4.58333" stroke-miterlimit="8" fill="#FFFFFF" fill-rule="evenodd"/><g><g><g><path d="M108.694 45.7349 106.134 40.6115 109.024 37.7217 108.52 32.7215 114.101 25.353 109.072 20.616 98.2152 20.496 96.5383 21.2961 90.3606 14.6054 85.5118 13.3602 75.2943 13.3602 73.1448 14.2209 69.6589 10.735 61.5271 6.98714 58.4868 0.901131 54.469 3.49222 49.4885 3.74244 45.2097 17.0703 46.0556 19.4381 39.0537 22.9375 36.578 27.7742 29.8371 25.2883 21.1335 29.8478 17.374 27.4728 11.6936 26.733 7.34516 28.2558 4.48724 27.7042 0.898436 34.5031 5.61747 48.671 9.19954 51.245 11.2188 55.659 18.5913 54.8769 21.2287 59.1625 28.4103 58.4001 30.0167 61.466 25.8624 67.8692 28.9274 71.887 27.6745 73.2203 28.0613 79.8943 30.5077 83.674 32.2471 96.665 42.0369 98.4672 44.3899 97.2912 46.6733 101.036 49.5177 102.549 49.056 109.896 58.7065 111.853 61.493 107.843 68.4478 108.755 71.3008 101.176 76.4353 101.861 80.8278 105.239 87.3028 104.967 97.5935 89.6491 97.5935 85.0945 102.254 81.675 106.712 72.2922 106.712 69.1463 110.563 65.2961 104.168 58.6679ZM72.4795 17.4611 75.8257 16.1211 85.1623 16.1211 88.8841 17.0766 95.8901 24.6643 98.8253 23.2641 107.964 23.3652 110.402 25.662 105.663 31.9178 106.144 36.6944 102.774 40.0649 105.701 45.9245 101.756 57.2003 98.8181 56.0395 95.8101 54.8509 87.1115 54.2462 87.111 54.2462 84.6295 57.4707 79.9563 53.8374 75.8684 45.4972 65.8455 35.9424 67.4914 32.1928 65.6487 27.3255 69.5147 14.4954ZM63.8572 37.8641 67.4815 41.3191 48.8403 59.9603 45.3005 56.4209ZM50.2675 61.3874 50.1422 61.2621 68.8144 42.5899 72.4386 46.0448 61.8744 56.6091 57.7007 57.3674 57.7007 57.3687 57.7007 59.1422ZM73.7122 47.3754 76.0409 52.1259 67.1392 61.0276 63.9215 57.1657ZM68.3229 62.448 76.8976 53.8734 77.7569 55.6262 80.2708 57.5808 71.3214 66.5301 69.0291 65.5261 69.0291 63.2971 69.0291 63.2957ZM77.265 67.0408 75.0001 66.0485 73.7095 66.7453 81.7352 58.7195 82.9445 59.6597 77.6509 66.5386ZM39.7774 48.7595 40.6839 41.6708 66.1002 16.2545 63.0473 26.3871 40.2441 49.1903ZM39.7315 40.019 38.3183 38.6035 38.4692 34.2012 62.2895 10.381 67.1361 12.614ZM41.5985 50.4395 63.249 28.7886 64.5086 32.1159 62.5572 36.5601 43.9987 55.1186 43.9838 55.1038 43.9838 52.6416 43.9838 52.6403ZM60.507 9.55936 49.4194 20.647 48.1247 17.024 49.1471 13.84 57.6266 5.36052 59.4899 9.09037ZM54.1061 6.27737 50.3789 10.0045 51.5343 6.4063ZM41.0985 25.0035 49.0241 21.0432 38.5618 31.505 38.6184 29.8496ZM69.4904 98.1483 66.6357 105.732 60.1858 104.887 57.4761 108.785 51.9642 107.667 52.3878 100.947 48.64 98.9528 45.4276 93.6858 41.6304 95.5846 34.7201 94.312 33.164 82.6943 30.7773 79.0071 30.501 74.2472 32.544 72.0734 29.2387 67.7412 33.2134 61.6147 30.7189 56.8544 32.5813 52.2616 37.9401 50.8232 41.2216 53.8509 41.2216 56.2488 49.4832 64.5104 60.4625 61.1947 60.4625 61.1943 60.4625 59.6737 62.1592 59.3655 66.2668 64.2957 66.2668 67.331 66.2668 67.3315 72.9858 70.2752 75.1263 69.1198 76.4228 69.6876 76.9879 74.4417 77.4326 78.1855 73.3546 85.6236 76.4443 88.7143 75.7143 98.9793Z" transform="matrix(1 0 0 1.00219 577 1815)"/></g></g></g></g></svg>