<svg width="124" height="124" xmlns="http://www.w3.org/2000/svg" xmlns:xlink="http://www.w3.org/1999/xlink" xml:space="preserve" overflow="hidden"><g transform="translate(-3449 -1294)"><rect x="3451.5" y="1296.5" width="119" height="119" stroke="#000000" stroke-width="4.58333" stroke-miterlimit="8" fill="#FFFFFF"/><g><g><g><path d="M5.70118 99.3811 5.70118 1.14844 0.943361 1.14844 0.943361 104.139 104.262 104.139 104.262 99.3811M36.3399 30.4747 50.7774 30.4747 50.7774 97.5353 36.3399 97.5353ZM90.1935 20.5489 104.549 20.5489 104.549 97.5353 90.1935 97.5353Z" transform="matrix(1.00952 0 0 1 3457 1304)"/><path d="M21.9024 12.3047 34.9044 12.3047 34.9044 97.6584 21.9024 97.6584ZM75.715 45.1173 88.6759 45.1173 88.6759 97.6584 75.715 97.6584Z" fill="#000000" fill-opacity="0.5" transform="matrix(1.00952 0 0 1 3457 1304)"/><path d="M7.54689 45.2813 20.5079 45.2813 20.5079 97.6584 7.54689 97.6584ZM61.3185 67.1017 74.3204 67.1017 74.3204 97.6584 61.3185 97.6584Z" fill="#000000" fill-opacity="0.75" transform="matrix(1.00952 0 0 1 3457 1304)"/></g></g></g></g></svg>