<svg width="124" height="124" xmlns="http://www.w3.org/2000/svg" xmlns:xlink="http://www.w3.org/1999/xlink" xml:space="preserve" overflow="hidden"><g transform="translate(-1989 -844)"><rect x="1991.5" y="846.5" width="119" height="119" stroke="#000000" stroke-width="4.58333" stroke-miterlimit="8" fill="#FFFFFF"/><g><g><g><path d="M56.1605 90.3933 80.4726 90.3933 80.4726 107.339 56.1605 107.339ZM83.8363 68.2101 108.148 68.2101 108.148 85.1562 83.8363 85.1562ZM0.851562 1.66055 25.1637 1.66055 25.1637 18.6066 0.851562 18.6066ZM0.851562 68.2101 25.1637 68.2101 25.1637 85.1562 0.851562 85.1562ZM83.8363 46.0269 108.148 46.0269 108.148 62.973 83.8363 62.973ZM83.8363 1.66055 108.148 1.66055 108.148 18.6066 83.8363 18.6066ZM28.5273 23.8437 52.8394 23.8437 52.8394 40.7898 28.5273 40.7898ZM56.1605 1.66055 80.4726 1.66055 80.4726 18.6066 56.1605 18.6066Z" fill="#000000" fill-opacity="0.5" transform="matrix(1 0 0 1.00917 1996 850)"/><path d="M28.5273 90.3933 52.8394 90.3933 52.8394 107.339 28.5273 107.339ZM0.851562 90.3933 25.1637 90.3933 25.1637 107.339 0.851562 107.339ZM83.8363 90.3933 108.148 90.3933 108.148 107.339 83.8363 107.339ZM0.851562 46.0269 25.1637 46.0269 25.1637 62.973 0.851562 62.973ZM56.1605 46.0269 80.4726 46.0269 80.4726 62.973 56.1605 62.973ZM28.5273 1.66055 52.8394 1.66055 52.8394 18.6066 28.5273 18.6066ZM83.8363 23.8437 108.148 23.8437 108.148 40.7898 83.8363 40.7898ZM28.5273 68.2101 52.8394 68.2101 52.8394 85.1562 28.5273 85.1562Z" transform="matrix(1 0 0 1.00917 1996 850)"/></g></g></g></g></svg>