<svg width="104" height="104" xmlns="http://www.w3.org/2000/svg" xmlns:xlink="http://www.w3.org/1999/xlink" xml:space="preserve" overflow="hidden"><g transform="translate(-1809 -1212)"><rect x="1811.5" y="1214.5" width="99" height="99" stroke="#000000" stroke-width="4.58333" stroke-miterlimit="8" fill="#FFFFFF"/><g><g><g><path d="M87.7137 23.0844 1.07773 23.0844 1.07773 4.72813 87.7137 4.72813ZM26.6305 25.4484 0.938672 25.4484 0.938672 43.7699 26.6305 43.7699ZM49.1586 25.4484 29.3422 25.4484 29.3422 43.7699 49.1586 43.7699ZM68.6274 25.4484 51.5227 25.4484 51.5227 43.7699 68.6274 43.7699ZM87.4703 25.4484 71.061 25.4484 71.061 43.7699 87.4703 43.7699ZM16.027 46.2731 0.938672 46.2731 0.938672 64.5946 15.9922 64.5946 15.9922 46.2731ZM26.7 46.2731 18.7387 46.2731 18.7387 64.5946 26.7 64.5946ZM26.7 66.7153 18.7387 66.7153 18.7387 85.0368 26.7 85.0368ZM48.811 66.7153 40.8496 66.7153 40.8496 85.0368 48.811 85.0368ZM37.3035 46.2731 29.3422 46.2731 29.3422 64.5946 37.3035 64.5946ZM49.3672 46.2731 40.0152 46.2731 40.0152 64.5946 49.3672 64.5946ZM61.118 46.2731 51.766 46.2731 51.766 64.5946 61.118 64.5946ZM78.8485 46.2731 71.2696 46.2731 71.2696 64.5946 78.8137 64.5946 78.8137 46.2731ZM78.8485 67.2715 71.2696 67.2715 71.2696 85.593 78.8137 85.593 78.8137 67.2715ZM87.6094 46.2731 81.2125 46.2731 81.2125 64.5946 87.6094 64.5946Z" transform="matrix(1 0 0 1.01123 1816 1215)"/></g></g></g></g></svg>