<svg width="125" height="124" xmlns="http://www.w3.org/2000/svg" xmlns:xlink="http://www.w3.org/1999/xlink" xml:space="preserve" overflow="hidden"><g transform="translate(-2923 -1924)"><rect x="2925.5" y="1926.5" width="120" height="119" stroke="#000000" stroke-width="4.58333" stroke-miterlimit="8" fill="#FFFFFF"/><g><g><g><path d="M2944.98 1981.9C2947.45 1981.93 2949.47 1979.94 2949.49 1977.47 2949.52 1975.01 2947.53 1972.99 2945.07 1972.97 2942.6 1972.94 2940.58 1974.93 2940.56 1977.39 2940.56 1977.41 2940.56 1977.42 2940.56 1977.43 2940.56 1979.89 2942.53 1981.88 2944.98 1981.9ZM2955.47 1996.2 2955.47 1988.81C2955.36 1985.84 2952.95 1983.47 2949.98 1983.41L2939.95 1983.41C2936.96 1983.41 2934.54 1985.83 2934.54 1988.81L2934.54 1996.2ZM2945.02 2012.13C2947.49 2012.13 2949.49 2010.13 2949.49 2007.66 2949.49 2005.19 2947.49 2003.19 2945.02 2003.19 2942.56 2003.19 2940.56 2005.19 2940.56 2007.66 2940.56 2007.67 2940.56 2007.69 2940.56 2007.7 2940.58 2010.15 2942.57 2012.13 2945.02 2012.13ZM2955.47 2026.43 2955.47 2019.03C2955.36 2016.05 2952.93 2013.67 2949.94 2013.63L2939.91 2013.63C2936.92 2013.63 2934.5 2016.05 2934.5 2019.03L2934.5 2026.43ZM2971.76 1981.9C2974.22 1981.9 2976.22 1979.9 2976.22 1977.43 2976.22 1974.97 2974.22 1972.97 2971.76 1972.97 2969.29 1972.97 2967.29 1974.97 2967.29 1977.43 2967.29 1979.9 2969.29 1981.9 2971.76 1981.9ZM2982.2 1996.2 2982.2 1988.81C2982.11 1985.83 2979.69 1983.45 2976.71 1983.41L2966.68 1983.41C2963.72 1983.38 2961.3 1985.77 2961.27 1988.73 2961.27 1988.75 2961.27 1988.78 2961.27 1988.81L2961.27 1996.2ZM2998.49 1981.9C3000.96 1981.93 3002.97 1979.94 3003 1977.47 3003.02 1975.01 3001.04 1972.99 2998.57 1972.97 2996.1 1972.94 2994.08 1974.93 2994.06 1977.39 2994.06 1977.41 2994.06 1977.42 2994.06 1977.43 2994.06 1979.89 2996.04 1981.88 2998.49 1981.9ZM2993.41 1983.41C2990.43 1983.41 2988.01 1985.83 2988.01 1988.81L2988.01 1996.2 3008.97 1996.2 3008.97 1988.81C3008.86 1985.82 3006.43 1983.45 3003.44 1983.41M2945.27 1951.76C2947.74 1951.76 2949.74 1949.76 2949.74 1947.29 2949.74 1944.82 2947.74 1942.82 2945.27 1942.82 2942.8 1942.82 2940.8 1944.82 2940.8 1947.29 2940.8 1949.76 2942.8 1951.76 2945.27 1951.76ZM2955.71 1966.06 2955.71 1958.67C2955.62 1955.7 2953.23 1953.33 2950.27 1953.26L2940.19 1953.26C2937.21 1953.26 2934.79 1955.68 2934.79 1958.67L2934.79 1966.06ZM2972 1951.76C2974.47 1951.76 2976.47 1949.76 2976.47 1947.29 2976.47 1944.82 2974.47 1942.82 2972 1942.82 2969.53 1942.82 2967.53 1944.82 2967.53 1947.29 2967.55 1949.75 2969.54 1951.74 2972 1951.76ZM2982.44 1966.06 2982.44 1958.67C2982.35 1955.69 2979.94 1953.3 2976.96 1953.26L2966.92 1953.26C2963.94 1953.26 2961.52 1955.68 2961.52 1958.67L2961.52 1966.06ZM3025.22 1981.7C3027.69 1981.7 3029.69 1979.7 3029.69 1977.23 3029.69 1974.76 3027.69 1972.76 3025.22 1972.76 3022.75 1972.76 3020.75 1974.76 3020.75 1977.23 3020.75 1977.24 3020.75 1977.26 3020.75 1977.27 3020.77 1979.72 3022.77 1981.7 3025.22 1981.7ZM3035.66 1996 3035.66 1988.65C3035.59 1985.66 3033.16 1983.26 3030.17 1983.24L3020.14 1983.24C3017.18 1983.22 3014.76 1985.6 3014.74 1988.57 3014.74 1988.59 3014.74 1988.62 3014.74 1988.65L3014.74 1996ZM2998.49 1951.64C3000.96 1951.66 3002.97 1949.68 3003 1947.21 3003.02 1944.74 3001.04 1942.72 2998.57 1942.7 2996.1 1942.68 2994.08 1944.66 2994.06 1947.13 2994.06 1947.16 2994.06 1947.18 2994.06 1947.21 2994.06 1949.65 2996.04 1951.64 2998.49 1951.64ZM2993.41 1953.14C2990.43 1953.14 2988.01 1955.56 2988.01 1958.54L2988.01 1965.94 3008.97 1965.94 3008.97 1958.54C3008.86 1955.56 3006.43 1953.18 3003.44 1953.14M2971.76 2012.17C2974.22 2012.17 2976.22 2010.17 2976.22 2007.7 2976.22 2005.23 2974.22 2003.23 2971.76 2003.23 2969.29 2003.23 2967.29 2005.23 2967.29 2007.7 2967.29 2010.17 2969.29 2012.17 2971.76 2012.17ZM2982.2 2026.47 2982.2 2019.08C2982.11 2016.1 2979.69 2013.71 2976.71 2013.67L2966.68 2013.67C2963.72 2013.65 2961.3 2016.03 2961.27 2018.99 2961.27 2019.02 2961.27 2019.05 2961.27 2019.08L2961.27 2026.47Z"/></g></g></g></g></svg>