<svg width="124" height="124" xmlns="http://www.w3.org/2000/svg" xmlns:xlink="http://www.w3.org/1999/xlink" xml:space="preserve" overflow="hidden"><g transform="translate(-1135 -2231)"><rect x="1137.5" y="2233.5" width="119" height="119" stroke="#000000" stroke-width="4.58333" stroke-miterlimit="8" fill="#FFFFFF"/><g><g><g><path d="M1245.23 2336.66 1245.23 2341.23 1147.77 2341.23 1147.77 2243.77 1152.34 2243.77 1152.34 2336.66ZM1163.35 2330.57C1166.08 2330.57 1168.3 2328.35 1168.3 2325.62 1168.3 2324.31 1167.78 2323.12 1166.95 2322.23L1178.07 2297.44C1178.11 2297.44 1178.15 2297.45 1178.2 2297.45 1180 2297.45 1181.58 2296.48 1182.44 2295.03L1216.04 2299.83C1216.6 2301.96 1218.53 2303.54 1220.83 2303.54 1223.56 2303.54 1225.78 2301.32 1225.78 2298.59 1225.78 2297.54 1225.45 2296.57 1224.89 2295.76L1239.4 2273.01C1239.67 2273.06 1239.96 2273.09 1240.25 2273.09 1242.98 2273.09 1245.19 2270.87 1245.19 2268.14 1245.19 2265.4 1242.98 2263.19 1240.25 2263.19 1237.51 2263.19 1235.3 2265.4 1235.3 2268.14 1235.3 2269.19 1235.63 2270.16 1236.19 2270.96L1221.68 2293.72C1221.4 2293.67 1221.12 2293.64 1220.83 2293.64 1219.02 2293.64 1217.45 2294.61 1216.58 2296.06L1182.98 2291.26C1182.43 2289.13 1180.5 2287.55 1178.2 2287.55 1175.46 2287.55 1173.25 2289.77 1173.25 2292.5 1173.25 2293.81 1173.76 2295 1174.59 2295.89L1163.48 2320.68C1163.44 2320.68 1163.39 2320.67 1163.35 2320.67 1160.62 2320.67 1158.4 2322.89 1158.4 2325.62 1158.4 2328.35 1160.62 2330.57 1163.35 2330.57Z"/></g></g></g></g></svg>