<svg width="124" height="124" xmlns="http://www.w3.org/2000/svg" xmlns:xlink="http://www.w3.org/1999/xlink" xml:space="preserve" overflow="hidden"><g transform="translate(-1135 -2231)"><rect x="1137.5" y="2233.5" width="119" height="119" stroke="#000000" stroke-width="4.58333" stroke-miterlimit="8" fill="#FFFFFF"/><g><g><g><path d="M1158.21 2301.2C1159.07 2301.2 1160.15 2300.85 1163.59 2296.75 1165.47 2294.55 1167.22 2292.22 1168.81 2289.79 1169.68 2290.8 1170.46 2291.88 1171.17 2293 1173.22 2296.14 1175.54 2299.65 1178.71 2299.65 1184.74 2299.65 1193.56 2285.15 1194.72 2279.7 1195.88 2274.25 1198.86 2270.65 1200.68 2270.65L1200.72 2270.65C1206.28 2270.77 1208.76 2281.59 1210.27 2288.09 1210.81 2290.45 1211.23 2292.35 1211.74 2293.43 1215.49 2301.51 1220.55 2303.6 1225.16 2303.6 1228.13 2303.6 1230.88 2302.71 1232.97 2302.09 1234.05 2301.74 1235.21 2301.39 1235.75 2301.39L1235.75 2297.91C1234.67 2297.91 1233.47 2298.3 1231.92 2298.76 1226.78 2300.35 1219.78 2302.52 1214.91 2291.96 1214.56 2291.19 1214.1 2289.29 1213.67 2287.28 1211.81 2279.35 1209.07 2267.36 1200.79 2267.17 1196.46 2267.09 1192.59 2273.13 1191.32 2279 1190.82 2281.4 1188.46 2285.89 1185.75 2289.64 1182.54 2294.12 1179.83 2296.17 1178.71 2296.17 1177.59 2296.17 1175.35 2293 1174.07 2291.11 1172.21 2288.28 1170.74 2286.08 1168.66 2286.08 1167.92 2286.08 1166.88 2286.35 1166.03 2287.7 1163.24 2292.04 1158.76 2297.26 1157.71 2297.84 1157.71 2297.8 1157.91 2297.72 1158.21 2297.72Z"/><path d="M1245.34 2336.6 1152.46 2336.6 1152.46 2243.71 1147.89 2243.71 1147.89 2341.17 1245.34 2341.17Z"/></g></g></g></g></svg>