<svg width="124" height="124" xmlns="http://www.w3.org/2000/svg" xmlns:xlink="http://www.w3.org/1999/xlink" xml:space="preserve" overflow="hidden"><g transform="translate(-53 -1763)"><rect x="55.4998" y="1765.5" width="119" height="119" stroke="#000000" stroke-width="4.58333" stroke-miterlimit="8" fill="#FFFFFF"/><g><g><g><path d="M49.0218 46.468 49.0218 59.57 70.5069 59.57 70.5069 46.468Z" transform="matrix(1 0 0 1.43536 94.6884 1774)"/><path d="M49.0218 43.7198 70.5069 43.7198 70.5069 37.6962 49.0218 37.6962Z" transform="matrix(1 0 0 1.43536 94.6884 1774)"/><path d="M70.5069 34.9759 70.5069 11.4921 49.0218 11.4921 49.0218 34.9759Z" transform="matrix(1 0 0 1.43536 94.6884 1774)"/><path d="M35.5804 60.403 35.5804 85.5045 66.4194 85.5045 66.4194 60.403Z" transform="matrix(1.00981 0 0 1 72.6562 1774)"/><path d="M35.5804 56.4983 66.4194 56.4983 66.4194 41.5968 35.5804 41.5968Z" transform="matrix(1.00981 0 0 1 72.6562 1774)"/><path d="M66.4194 37.6522 66.4194 16.4953 35.5804 16.4953 35.5804 37.6921 66.4194 37.6921Z" transform="matrix(1.00981 0 0 1 72.6562 1774)"/><path d="M0.796873 56.4983 0.796873 85.5045 31.6359 85.5045 31.6359 56.4983Z" transform="matrix(1.32293 0 0 1 62.7504 1774)"/><path d="M31.6359 52.5538 31.6359 32.9507 0.796873 32.9507 0.796873 52.5538Z" transform="matrix(1.32293 0 0 1 62.7504 1774)"/><path d="M0.796873 29.046 0.796873 16.4953 31.6359 16.4953 31.6359 29.046Z" transform="matrix(1.32293 0 0 1 62.7504 1774)"/></g></g></g></g></svg>