<svg width="124" height="125" xmlns="http://www.w3.org/2000/svg" xmlns:xlink="http://www.w3.org/1999/xlink" xml:space="preserve" overflow="hidden"><g transform="translate(-839 -2051)"><rect x="841.5" y="2053.5" width="119" height="120" stroke="#000000" stroke-width="4.58333" stroke-miterlimit="8" fill="#FFFFFF"/><g><g><g><path d="M850.797 2091.05 850.797 2078.5 881.636 2078.5 881.636 2091.05 850.797 2091.05ZM881.636 2114.55 881.636 2094.95 850.797 2094.95 850.797 2114.55 881.636 2114.55ZM916.419 2099.65 916.419 2078.5 885.581 2078.5 885.581 2099.69 916.419 2099.69ZM951.203 2112.2 951.203 2078.5 920.364 2078.5 920.364 2112.2 951.203 2112.2ZM920.364 2124.75 951.203 2124.75 951.203 2116.11 920.364 2116.11 920.364 2124.75ZM850.797 2118.5 850.797 2147.5 881.636 2147.5 881.636 2118.5 850.797 2118.5ZM920.364 2128.7 920.364 2147.5 951.203 2147.5 951.203 2128.7 920.364 2128.7ZM885.581 2118.5 916.419 2118.5 916.419 2103.6 885.581 2103.6 885.581 2118.5ZM885.581 2122.4 885.581 2147.5 916.419 2147.5 916.419 2122.4 885.581 2122.4Z"/></g></g></g></g></svg>