<svg width="125" height="119" xmlns="http://www.w3.org/2000/svg" xmlns:xlink="http://www.w3.org/1999/xlink" xml:space="preserve" overflow="hidden"><g transform="translate(-738 -1978)"><path d="M741.5 2024.66 800.5 1981.5 859.5 2024.66 836.964 2094.5 764.036 2094.5Z" stroke="#000000" stroke-width="4.58333" stroke-miterlimit="8" fill="#FFFFFF" fill-rule="evenodd"/><g><g><g><path d="M820.848 2051.09C820.867 2054.29 818.286 2056.9 815.082 2056.92 811.878 2056.94 809.266 2054.36 809.246 2051.16 809.227 2047.95 811.808 2045.34 815.012 2045.32 815.023 2045.32 815.035 2045.32 815.047 2045.32 818.231 2045.3 820.828 2047.87 820.847 2051.05 820.848 2051.06 820.848 2051.07 820.848 2051.09ZM824.293 2058.01C821.516 2058.01 819.266 2060.26 819.266 2063.04 819.266 2065.82 821.516 2068.07 824.293 2068.07 827.069 2068.07 829.32 2065.82 829.32 2063.04 829.32 2060.26 827.069 2058.01 824.293 2058.01ZM788.082 2046.27C788.082 2050 791.104 2053.02 794.832 2053.02 798.56 2053.02 801.582 2050 801.582 2046.27 801.582 2042.54 798.56 2039.52 794.832 2039.52 791.104 2039.52 788.082 2042.54 788.082 2046.27ZM791.984 2037.66C794.998 2034.66 795.009 2029.78 792.009 2026.77 789.01 2023.75 784.135 2023.74 781.121 2026.74 778.107 2029.74 778.096 2034.62 781.096 2037.63 781.104 2037.64 781.113 2037.65 781.121 2037.66 784.107 2040.66 788.96 2040.67 791.96 2037.68 791.968 2037.67 791.976 2037.66 791.984 2037.66ZM775.953 2039.91C769.449 2039.89 764.16 2045.14 764.141 2051.65 764.121 2058.15 769.378 2063.44 775.883 2063.46 782.387 2063.48 787.676 2058.22 787.695 2051.72 787.695 2051.71 787.695 2051.7 787.695 2051.68 787.695 2045.19 782.444 2039.93 775.953 2039.91ZM843.945 2043C843.945 2067.46 824.113 2087.3 799.648 2087.3 775.184 2087.3 755.351 2067.46 755.351 2043 755.351 2018.54 775.184 1998.7 799.648 1998.7 824.113 1998.7 843.945 2018.54 843.945 2043ZM802.742 2043.39C802.762 2031.25 792.94 2021.4 780.805 2021.38 768.669 2021.36 758.816 2031.18 758.797 2043.32 758.777 2055.45 768.599 2065.3 780.734 2065.32 780.746 2065.32 780.758 2065.32 780.769 2065.32 792.891 2065.32 802.723 2055.51 802.742 2043.39ZM836.246 2055.52C836.246 2047.32 829.604 2040.68 821.41 2040.68 813.216 2040.68 806.574 2047.32 806.574 2055.52 806.574 2063.71 813.216 2070.35 821.41 2070.35 829.604 2070.35 836.246 2063.71 836.246 2055.52Z"/></g></g></g></g></svg>