<svg width="126" height="119" xmlns="http://www.w3.org/2000/svg" xmlns:xlink="http://www.w3.org/1999/xlink" xml:space="preserve" overflow="hidden"><g transform="translate(-998 -464)"><path d="M1001.5 510.662 1061 467.5 1120.5 510.662 1097.77 580.5 1024.23 580.5Z" stroke="#000000" stroke-width="4.58333" stroke-miterlimit="8" fill="#FFFFFF" fill-rule="evenodd"/><g><g><g><path d="M1092.01 549.116 1091.25 528.116C1095.19 527.427 1098.18 524.014 1098.18 519.88 1098.18 515.253 1094.44 511.512 1089.81 511.512 1085.18 511.512 1081.44 515.253 1081.44 519.88 1081.44 521.225 1081.77 522.505 1082.33 523.62L1077.08 527.23 1063.53 500.553C1065.69 499.044 1067.14 496.517 1067.14 493.695 1067.14 489.069 1063.4 485.328 1058.77 485.328 1054.14 485.328 1050.4 489.069 1050.4 493.695 1050.4 494.647 1050.57 495.598 1050.86 496.452L1032.91 505.639C1031.37 503.506 1028.88 502.062 1026.02 502.062 1021.4 502.062 1017.66 505.836 1017.66 510.462 1017.66 515.089 1021.4 518.83 1026.02 518.83 1028.71 518.83 1031.08 517.583 1032.62 515.614L1049.35 524.375C1049.03 525.261 1048.86 526.212 1048.86 527.197 1048.86 529.428 1049.75 531.462 1051.19 532.972L1035.24 553.086C1034 552.364 1032.55 551.937 1030.98 551.937 1026.35 551.937 1022.61 555.678 1022.61 560.305 1022.61 564.931 1026.35 568.672 1030.98 568.672 1035.34 568.672 1038.95 565.325 1039.31 561.059L1082.92 558.992C1083.64 562.897 1087.05 565.817 1091.16 565.817 1095.78 565.817 1099.52 562.076 1099.52 557.45 1099.52 553.119 1096.24 549.542 1092.01 549.116ZM1038.46 556.564 1076.23 530.642 1086.37 550.592C1084.4 551.97 1083.02 554.169 1082.82 556.728L1039.21 558.795C1039.08 557.975 1038.82 557.253 1038.46 556.564ZM1083.64 525.523C1084.99 527 1086.86 527.984 1088.99 528.214L1089.75 549.214C1089.29 549.28 1088.86 549.411 1088.47 549.542L1078.13 529.297 1083.64 525.523ZM1075.18 528.575 1037.18 554.661C1037.15 554.628 1037.08 554.562 1037.05 554.53L1053 534.416C1054.24 535.137 1055.69 535.564 1057.26 535.564 1061.89 535.564 1065.63 531.823 1065.63 527.197 1065.63 523.095 1062.68 519.683 1058.77 518.961L1059.53 502.03C1060.21 501.964 1060.87 501.833 1061.49 501.603L1075.18 528.575ZM1033.8 513.612C1034.19 512.628 1034.42 511.578 1034.42 510.462 1034.42 509.511 1034.26 508.559 1033.96 507.706L1051.91 498.519C1053.16 500.291 1055.06 501.538 1057.26 501.964L1056.51 518.895C1054.01 519.125 1051.85 520.438 1050.47 522.373L1033.8 513.612Z"/></g></g></g></g></svg>