<svg width="105" height="105" xmlns="http://www.w3.org/2000/svg" xmlns:xlink="http://www.w3.org/1999/xlink" xml:space="preserve" overflow="hidden"><g transform="translate(-1867 -607)"><rect x="1869.5" y="609.5" width="99.9996" height="100" stroke="#000000" stroke-width="4.58333" stroke-miterlimit="8" fill="#FFFFFF"/><g><g><g><path d="M80.037 0.671874 80.037 14.1282 45.6455 4.95709 45.6455 0.671874 40.3545 0.671874 40.3545 5.72975 5.96289 28.468 5.96289 0.671874 0.671874 0.671874 0.671874 85.3281 5.96289 85.3281 5.96289 57.3327 40.3545 80.2604 40.3545 85.3281 45.6455 85.3281 45.6455 79.6329 67.6682 56.1418 80.037 64.3877 80.037 85.3281 85.3281 85.3281 85.3281 0.671874ZM80.037 17.5507 80.037 38.1134 67.1717 51.8365 45.6455 37.4856 45.6455 8.37962ZM40.3545 35.6913 7.58748 31.3584 40.3545 9.69414ZM5.96289 53.3586 5.96289 34.4796 40.3545 39.0272 40.3545 76.2863ZM45.6455 74.7974 45.6455 41.4597 64.8789 54.2817ZM69.9613 53.6959 80.037 42.9482 80.037 60.4129Z" transform="matrix(1 0 0 1 1876 616)"/></g></g></g></g></svg>