<svg width="142" height="141" xmlns="http://www.w3.org/2000/svg" xmlns:xlink="http://www.w3.org/1999/xlink" xml:space="preserve" overflow="hidden"><g transform="translate(-1205 -2151)"><path d="M1207.5 2193.33 1247.33 2153.5 1304.67 2153.5 1344.5 2193.33 1344.5 2249.67 1304.67 2289.5 1247.33 2289.5 1207.5 2249.67Z" stroke="#042433" stroke-width="4.58333" stroke-miterlimit="8" fill="#FFFFFF" fill-rule="evenodd"/><g><g><g><path d="M1270.69 2226.84 1274.9 2226.84 1274.9 2231.44 1270.69 2231.44ZM1270.69 2218.8 1274.9 2218.8 1274.9 2214.2 1270.69 2214.2ZM1243.65 2251.67 1243.65 2251.67 1237.35 2244.13 1231.01 2251.67 1231.01 2251.67 1231.01 2260.56 1235.01 2260.56 1235.01 2255.2 1239.78 2255.2 1239.78 2260.56 1243.65 2260.56 1243.65 2251.71 1243.65 2251.71ZM1323.06 2196.02 1324.89 2198.74 1324.21 2199.89 1323.87 2199.47 1323.78 2199.47 1323.19 2200.91 1320.29 2202.79 1319.82 2202.91 1320.85 2206.66 1318.8 2206.32 1318.29 2207.13 1320.55 2210.96 1320.51 2210.96 1320.42 2212.45 1319.95 2212.79 1318.08 2212.62 1318.76 2213.3 1318.97 2215.43 1321.06 2217.31 1320.72 2217.31 1322.21 2219.43 1318.08 2227.65 1317.44 2230.42 1314.59 2235.53 1314.42 2240.85 1319.31 2249.15 1322.29 2255.11 1323.19 2263.03 1317.27 2258.86 1313.82 2253.28 1313.31 2248.77 1308.5 2244.47 1306.41 2246.85 1302.96 2244.56 1299.3 2244.34 1296.75 2244.98 1293.89 2246.13 1293.64 2249.41 1290.66 2250.81 1287.81 2248.09 1286.7 2249.37 1282.44 2247.66 1277.59 2252.86 1273.58 2255.97 1271.92 2260.52 1272.56 2264.61 1267.33 2263.12 1266.35 2257.84 1261.71 2248.09 1258.21 2247.92 1256.6 2250.94 1253.23 2247.66 1252.55 2243.49 1249.4 2238.72 1245.1 2237.96 1242.67 2238.38 1237.78 2237.4 1229.77 2231.74 1230.28 2231.02 1224.54 2230.08 1224.71 2227.01 1223.39 2223.91 1219.85 2221.14 1219.85 2205.17 1220.79 2200.49 1223.26 2196.44 1223.81 2194.02 1228.37 2187.59 1229.9 2182.09 1233.14 2181.88 1234.16 2179.84 1242.63 2182.31 1244.16 2182.65 1249.57 2183.84 1263.15 2185.76 1274.35 2186.35 1277.67 2186.35 1280.06 2187.54 1281.89 2187.42 1284.02 2188.61 1283.08 2192.1 1286.1 2192.4 1289.38 2190.65 1291.47 2192.14 1295.43 2190.86 1297.47 2192.87 1292.32 2193.67 1291.55 2195.97 1292.19 2196.78 1291.77 2201.25 1292.32 2203.47 1293.21 2205.68 1294.49 2205.43 1295.13 2201.76 1294.02 2198.61 1294.41 2196.23 1297.05 2193.42 1298.75 2194.4 1299.64 2197.17 1302.24 2200.61 1301.13 2204.66 1303.22 2205.34 1306.58 2202.91 1307.78 2201.81 1308.97 2199.81 1313.05 2196.61 1312.25 2195.21 1313.95 2192.23 1316.46 2191.55 1319.44 2190.61 1319.82 2189.67 1320.42 2188.22 1320.17 2183.46 1322.85 2183.71 1324.55 2187.03 1326.98 2188.61 1324.08 2192.74 1322.98 2195.42ZM1248.93 2209.39 1248.93 2209.39 1242.63 2201.81 1236.29 2209.39 1236.29 2209.39 1236.29 2218.28 1240.29 2218.28 1240.29 2212.92 1245.06 2212.92 1245.06 2218.28 1248.93 2218.28 1248.93 2209.39ZM1279.12 2211.13 1279.12 2211.13 1272.78 2203.55 1266.43 2211.09 1266.43 2211.09 1266.43 2235.15 1279.12 2235.15 1279.12 2211.13ZM1309.78 2220.8 1309.78 2220.8 1303.43 2213.22 1297.09 2220.8 1297.09 2220.8 1297.09 2229.7 1301.13 2229.7 1301.13 2224.29 1305.9 2224.29 1305.9 2229.7 1309.78 2229.7 1309.78 2220.8Z"/></g></g></g></g></svg>