<svg width="141" height="141" xmlns="http://www.w3.org/2000/svg" xmlns:xlink="http://www.w3.org/1999/xlink" xml:space="preserve" overflow="hidden"><g transform="translate(-2284 -2225)"><path d="M2286.5 2267.33 2326.33 2227.5 2382.67 2227.5 2422.5 2267.33 2422.5 2323.67 2382.67 2363.5 2326.33 2363.5 2286.5 2323.67Z" stroke="#042433" stroke-width="4.58333" stroke-miterlimit="8" fill="#FFFFFF" fill-rule="evenodd"/><g><g><g><path d="M63.5733 32.9304C67.4058 33.2082 70.7379 30.3265 71.0157 26.4938 71.2936 22.6612 68.4118 19.329 64.5793 19.0512 60.762 18.7745 57.438 21.6327 57.1397 25.4484 56.8399 29.2794 59.7031 32.6279 63.5337 32.9274 63.5471 32.9284 63.5599 32.9294 63.5733 32.9304M57.6639 35.7897C59.0464 34.7546 60.7535 34.2475 62.4772 34.3601 64.7313 34.6096 66.7577 35.8498 68.0053 37.7436L74.9631 51.6116 84.4943 58.2358C85.3121 58.8953 85.771 59.9023 85.7334 60.9522 85.527 62.7035 83.9396 63.9559 82.1882 63.7491 81.7212 63.6943 81.2718 63.5366 80.8724 63.2873L70.674 56.3295C70.3533 56.0403 70.0802 55.7024 69.8639 55.3288L67.1951 50.1342 64.0975 63.9545 76.4404 78.5849C76.7063 79.0334 76.9146 79.5138 77.0599 80.0146L80.3482 97.6474 80.3482 98.6482C80.1452 101.238 77.8873 103.176 75.2967 102.985 73.2351 102.777 71.5323 101.284 71.0553 99.2677L67.9576 82.874 57.9022 71.7225 55.6147 82.4451C55.3288 83.1042 54.9942 83.7413 54.6139 84.3513L45.035 100.602C44.0343 102.079 42.5093 103.08 40.6507 102.89 38.0511 102.712 36.0874 100.461 36.2646 97.8614 36.2652 97.8537 36.2657 97.8456 36.2663 97.838 36.343 97.116 36.5703 96.4179 36.9335 95.7888L45.8928 80.8248 53.3272 47.8467 48.4663 51.7545 45.8452 63.478C45.5064 65.0458 44.1132 66.1605 42.5093 66.1467 40.7936 66.099 39.5069 64.4787 39.6022 62.7631 39.5997 62.6344 39.6157 62.5058 39.6499 62.3819L42.6522 48.7046C42.8064 48.1117 43.1598 47.5903 43.653 47.2272ZM85.781 121.047 36.171 121.047 1.14375 85.9716 1.14375 36.3616 36.171 1.28672 85.781 1.28672 120.856 36.3616 120.856 85.9716ZM38.7444 114.851 83.2076 114.851 114.661 83.3982 114.661 38.9351 83.2076 7.48201 38.7444 7.48201 7.33904 38.9351 7.33904 83.3982Z" transform="matrix(1 0 0 1 2293 2235)"/></g></g></g></g></svg>