<svg width="125" height="125" xmlns="http://www.w3.org/2000/svg" xmlns:xlink="http://www.w3.org/1999/xlink" xml:space="preserve" overflow="hidden"><g transform="translate(-2619 -1130)"><path d="M2621.5 1192.5C2621.5 1159.36 2648.36 1132.5 2681.5 1132.5 2714.64 1132.5 2741.5 1159.36 2741.5 1192.5 2741.5 1225.64 2714.64 1252.5 2681.5 1252.5 2648.36 1252.5 2621.5 1225.64 2621.5 1192.5Z" stroke="#000000" stroke-width="4.58333" stroke-miterlimit="8" fill="#FFFFFF" fill-rule="evenodd"/><g><g><g><path d="M2679.88 1193.12 2723.41 1193.12C2723.31 1216.97 2703.94 1236.28 2680.07 1236.28 2656.13 1236.28 2636.72 1216.87 2636.72 1192.93 2636.72 1169.06 2656.03 1149.69 2679.88 1149.59ZM2727.28 1188.88C2727.09 1165.12 2707.88 1145.91 2684.12 1145.72L2684.12 1188.88Z"/></g></g></g></g></svg>