<svg width="114" height="115" xmlns="http://www.w3.org/2000/svg" xmlns:xlink="http://www.w3.org/1999/xlink" xml:space="preserve" overflow="hidden"><g transform="translate(-1511 -2272)"><path d="M1513.5 2329.5C1513.5 2299.12 1537.9 2274.5 1568 2274.5 1598.1 2274.5 1622.5 2299.12 1622.5 2329.5 1622.5 2359.88 1598.1 2384.5 1568 2384.5 1537.9 2384.5 1513.5 2359.88 1513.5 2329.5Z" stroke="#000000" stroke-width="4.58333" stroke-miterlimit="8" fill="#FFFFFF" fill-rule="evenodd"/><g><g><g><path d="M1559.25 2307.96 1557.97 2304.8C1560.65 2303.81 1563.48 2303.26 1566.34 2303.19L1566.34 2310.93C1564.58 2310.82 1563 2311.08 1560.87 2311.78ZM1554.99 2315.41 1555.03 2315.41C1556.35 2314.29 1557.82 2313.37 1559.4 2312.66L1559.44 2312.66C1557.45 2307.67 1553.19 2297.17 1551.21 2292.28 1547.12 2294.02 1543.35 2296.43 1540.05 2299.4ZM1550.73 2320.67C1550.78 2320.63 1550.81 2320.58 1550.81 2320.52 1551.65 2319.07 1552.66 2317.72 1553.82 2316.52L1553.85 2316.52C1551.58 2314.06 1544.71 2306.64 1542.58 2304.4 1539.86 2307.03 1537.59 2310.1 1535.86 2313.47L1550.73 2320.7ZM1548.64 2327.13C1548.87 2325.41 1549.34 2323.72 1550.04 2322.13L1524.77 2309.8C1522.57 2314.5 1521.17 2319.54 1520.62 2324.7L1548.64 2327.16ZM1548.49 2329.04 1548.49 2328.74 1540.78 2328.05C1540.64 2330.75 1540.9 2333.46 1541.55 2336.09L1549.01 2333.96C1548.61 2332.35 1548.44 2330.69 1548.49 2329.04ZM1551.98 2340.42 1551.95 2340.42C1550.88 2338.92 1550.04 2337.28 1549.45 2335.54 1545.56 2336.67 1537.44 2338.95 1533.55 2340.02 1534.73 2343.82 1536.55 2347.4 1538.95 2350.59ZM1556.87 2345.16 1556.83 2345.16C1555.4 2344.19 1554.11 2343.04 1552.97 2341.74L1552.94 2341.74C1549.85 2344.05 1538.4 2353.05 1535.68 2355.14 1538.47 2358.6 1541.82 2361.57 1545.59 2363.92 1548.2 2359.51 1554.22 2349.53 1556.87 2345.16ZM1563.07 2347.76C1561.37 2347.41 1559.72 2346.82 1558.19 2346L1552.09 2356.1C1554.89 2357.68 1557.93 2358.81 1561.09 2359.44 1561.6 2356.54 1562.59 2350.74 1563.11 2347.8ZM1569.86 2348.02C1568.13 2348.19 1566.39 2348.22 1564.65 2348.09L1563.92 2352.24C1566.17 2352.55 1568.46 2352.52 1570.71 2352.17L1569.9 2348.06ZM1588.77 2365.68 1576.33 2345.78C1574.97 2346.44 1573.39 2347.32 1571.44 2347.62 1572.18 2351.47 1576 2371.04 1576.8 2375.19 1581.9 2374.18 1586.78 2372.29 1591.23 2369.61ZM1581.54 2341.41 1581.5 2341.41C1580.4 2342.74 1579.11 2343.92 1577.69 2344.9L1577.65 2344.9 1589.29 2363.48C1592.99 2361.03 1596.27 2358 1599.02 2354.52ZM1584.92 2335.21C1584.35 2336.94 1583.55 2338.58 1582.53 2340.09L1582.53 2340.16 1591.97 2347.29C1593.92 2344.52 1595.41 2341.46 1596.38 2338.22L1584.96 2335.13ZM1585.73 2328.41C1585.72 2328.45 1585.74 2328.49 1585.76 2328.52 1585.73 2328.67 1585.84 2330.25 1585.73 2330.65 1585.62 2331.06 1585.62 2331.94 1585.54 2332.64L1585.51 2332.64C1585.43 2332.95 1585.38 2333.27 1585.36 2333.59L1606.55 2339.28C1607.59 2334.96 1607.93 2330.5 1607.57 2326.06ZM1584.11 2321.84C1584.11 2321.9 1584.14 2321.95 1584.18 2321.99 1584.85 2323.51 1585.32 2325.12 1585.58 2326.76 1586.68 2326.69 1611.8 2324.01 1613.52 2323.82 1612.9 2318.67 1611.42 2313.66 1609.15 2308.99L1584.07 2321.73ZM1591.23 2303.96 1580.18 2316.26 1580.22 2316.26C1581.44 2317.47 1582.49 2318.84 1583.34 2320.33L1598.1 2312.84C1596.3 2309.53 1593.98 2306.53 1591.23 2303.96ZM1574.53 2312.44C1576.14 2313.09 1577.64 2313.99 1578.97 2315.12L1579.01 2315.12 1593.66 2298.85C1590.31 2295.93 1586.5 2293.59 1582.39 2291.91ZM1572.07 2311.6C1572.25 2311.6 1572.54 2311.85 1573.06 2311.85 1574.2 2308.84 1582.31 2287.88 1583.16 2285.64 1578.27 2283.87 1573.12 2282.92 1567.92 2282.84L1567.92 2310.93C1569.06 2311.04 1570.64 2311.04 1572.07 2311.6Z"/></g></g></g></g></svg>