<svg width="124" height="124" xmlns="http://www.w3.org/2000/svg" xmlns:xlink="http://www.w3.org/1999/xlink" xml:space="preserve" overflow="hidden"><g transform="translate(-3016 -899)"><rect x="3018.5" y="901.5" width="119" height="119" stroke="#000000" stroke-width="4.58333" stroke-miterlimit="8" fill="#FFFFFF"/><g><g><g><path d="M3023.72 999.887 3076.44 999.887 3076.44 1014.45 3023.72 1014.45ZM3035.58 981.41 3076.48 981.41 3076.48 995.977 3035.58 995.977ZM3046.49 962.934 3076.44 962.934 3076.44 977.5 3046.49 977.5ZM3060.41 944.457 3076.44 944.457 3076.44 959.024 3060.41 959.024ZM3066.21 926.024 3076.44 926.024 3076.44 940.59 3066.21 940.59ZM3071.71 907.547 3076.44 907.547 3076.44 922.113 3071.71 922.113ZM3130.71 1014.41 3078.93 1014.41 3078.93 999.844 3130.71 999.844ZM3122.46 995.977 3078.93 995.977 3078.93 981.41 3122.46 981.41ZM3114.55 977.543 3078.98 977.543 3078.98 962.977 3114.55 962.977ZM3109.01 959.067 3078.93 959.067 3078.93 944.5 3109.01 944.5ZM3098.91 940.59 3078.93 940.59 3078.93 926.024 3098.91 926.024ZM3092.17 922.156 3078.93 922.156 3078.93 907.547 3092.17 907.547Z"/></g></g></g></g></svg>