<svg width="141" height="141" xmlns="http://www.w3.org/2000/svg" xmlns:xlink="http://www.w3.org/1999/xlink" xml:space="preserve" overflow="hidden"><g transform="translate(-371 -1910)"><path d="M373.5 1952.33 413.333 1912.5 469.667 1912.5 509.5 1952.33 509.5 2008.67 469.667 2048.5 413.333 2048.5 373.5 2008.67Z" stroke="#042433" stroke-width="4.58333" stroke-miterlimit="8" fill="#FFFFFF" fill-rule="evenodd"/><g><g><g><path d="M500.055 1961.03 497.644 1959.28 496.415 1955.55 493.343 1955.27 492.587 1960.61 491.594 1962.17 490.98 1963.21 487.387 1964.2 484.41 1964.91 481.999 1968.03 482.661 1969.49 477.603 1972.71 476.044 1974.69 474.578 1975.78 470.655 1978.09 468.481 1977.43 470.135 1973.51 467.678 1970.06 466.969 1967.18 465.125 1966.18 461.958 1969.07 461.297 1971.52 462.242 1974.64 461.297 1978.19 459.879 1978.43 459.075 1976.3 458.65 1974.12 459.406 1969.63 458.792 1968.83 459.784 1966.42 465.692 1965.57 463.565 1963.44 458.933 1964.81 456.665 1963.25 452.883 1965.1 449.48 1964.77 450.662 1961.03 448.251 1959.71 446.124 1959.85 443.383 1958.53 439.507 1958.53 426.509 1957.86 410.439 1955.69 403.916 1954.37 402.073 1953.94 391.533 1951.11 390.776 1953.47 386.995 1953.71 386.428 1959.9 382.789 1966.8 382.741 1969.3 380.945 1973.37 381.04 1977.95 384.585 1992.27 388.697 1994.59 390.587 1997.14 390.965 1999.6 396.732 2000.36 396.354 2000.92 405.003 2005.93 409.777 2006.69 411.951 2005.7 416.111 2006.26 419.467 2009.76 420.365 2012.74 423.673 2015.01 424.997 2012.93 428.211 2013.02 432.748 2019.64 433.741 2023.04 438.373 2023.99 437.758 2021.39 439.176 2018.41 442.816 2016.33 447.306 2012.74 451.182 2013.92 452.222 2013.02 454.727 2014.91 457.515 2013.97 457.941 2011.65 460.682 2010.9 463.093 2010.42 466.496 2010.57 469.474 2012.22 471.648 2010.52 475.618 2013.54 475.571 2016.66 478.029 2020.35 482.708 2023.04 482.992 2017.89 481.101 2013.83 477.603 2007.87 478.454 2003.9 481.952 1999.93 482.992 1997.71 488.427 1990.9 487.293 1989.06 487.34 1989.06 487.435 1989.06 487.624 1989.01 487.671 1989.01 485.828 1987.36 485.969 1985.47 485.355 1984.85 487.293 1984.99 487.86 1984.71 488.191 1983.34 488.238 1983.34 488.238 1983.34 486.537 1979.8 487.246 1978.99 489.372 1979.32 488.947 1975.73 489.514 1975.59 493.012 1973.75 493.957 1972.33 494.052 1972.38 494.335 1972.8 495.328 1971.62 493.91 1968.88 493.91 1968.26 495.753 1965.47 500.055 1961.03ZM398.953 1974.6C395.739 1974.6 393.14 1972 393.14 1968.78 393.14 1965.57 395.739 1962.97 398.953 1962.97 402.167 1962.97 404.767 1965.57 404.767 1968.78 404.814 1972 402.167 1974.6 398.953 1974.6ZM418.38 1992.84C415.685 1992.84 413.511 1990.67 413.511 1987.97 413.511 1985.28 415.685 1983.1 418.38 1983.1 421.074 1983.1 423.248 1985.28 423.248 1987.97 423.295 1990.67 421.121 1992.84 418.38 1992.84ZM437.239 1967.6C439.413 1967.6 441.209 1969.35 441.209 1971.57 441.209 1973.79 439.46 1975.54 437.239 1975.54 435.017 1975.54 433.268 1973.79 433.268 1971.57 433.268 1969.35 435.064 1967.6 437.239 1967.6ZM437.711 2006.64C433.599 2006.64 430.243 2003.29 430.243 1999.17 430.243 1995.06 433.599 1991.71 437.711 1991.71 441.823 1991.71 445.179 1995.06 445.179 1999.17 445.179 2003.29 441.823 2006.64 437.711 2006.64ZM469.001 1996.34C465.976 1996.34 463.518 1993.88 463.518 1990.86 463.518 1987.83 465.976 1985.37 469.001 1985.37 472.026 1985.37 474.484 1987.83 474.484 1990.86 474.484 1993.88 472.026 1996.34 469.001 1996.34Z"/></g></g></g></g></svg>