<svg width="125" height="118" xmlns="http://www.w3.org/2000/svg" xmlns:xlink="http://www.w3.org/1999/xlink" xml:space="preserve" overflow="hidden"><g transform="translate(-2238 -1591)"><path d="M2241.5 1637.28 2300.5 1594.5 2359.5 1637.28 2336.96 1706.5 2264.04 1706.5Z" stroke="#000000" stroke-width="4.58333" stroke-miterlimit="8" fill="#FFFFFF" fill-rule="evenodd"/><g><g><g><path d="M77.8119 28.8995C77.8119 28.5441 77.8474 28.1886 77.8474 27.8331 77.8314 17.2122 69.2085 8.61526 58.5878 8.63118 53.1111 8.63943 47.8982 10.9822 44.2557 15.0718 41.4347 14.3406 38.5323 13.9703 35.6179 13.9699 17.1246 13.9658 2.12945 28.9542 2.12531 47.4475 2.12117 65.9407 17.1096 80.9357 35.6029 80.94 41.5979 80.9414 47.4834 79.3333 52.6448 76.2834 55.9186 77.6612 59.437 78.3622 62.9889 78.3451 77.8698 78.3454 89.9337 66.2823 89.9341 51.4013 89.9341 42.3394 85.3794 33.8845 77.8119 28.8995ZM67.0057 47.4549C67.0003 58.1766 61.5165 68.1521 52.467 73.9017 40.0474 68.1115 34.6734 53.3493 40.4636 40.9296 40.9655 39.8536 41.5435 38.8149 42.194 37.8218 45.6801 43.5572 51.9047 47.0604 58.6166 47.0639 61.4842 47.0685 64.3155 46.4244 66.899 45.1799 66.9701 45.9264 67.0057 46.6729 67.0057 47.4549ZM41.5186 27.8331C41.5236 24.1089 42.7471 20.4885 45.0022 17.5246 49.6979 19.003 53.9831 21.5594 57.5147 24.9894 51.717 26.218 46.4767 29.2998 42.585 33.7694 41.8833 31.8687 41.5225 29.8592 41.5186 27.8331ZM61.8158 26.589 62.9889 26.589C67.4127 26.5844 71.7572 27.7625 75.5724 30.0015 74.965 34.6947 72.4433 38.9276 68.6053 41.6964 67.6668 36.1642 65.3296 30.9638 61.8158 26.589ZM58.6166 10.7707C67.9573 10.7699 75.5625 18.2799 75.6791 27.6198 71.7764 25.5308 67.4155 24.4437 62.9889 24.4562 62.0153 24.4495 61.0423 24.4969 60.074 24.5984 56.3413 20.6049 51.6932 17.5794 46.5307 15.7828 49.731 12.5691 54.0812 10.7651 58.6166 10.7707ZM35.6179 78.8072C18.3025 78.8072 4.26561 64.7705 4.26561 47.4549 4.26561 30.1396 18.3025 16.1027 35.6179 16.1027 38.0464 16.1011 40.4672 16.3753 42.8339 16.9203 40.587 20.1155 39.3826 23.927 39.3858 27.8331 39.3773 30.5446 39.9595 33.2254 41.0921 35.689 37.7841 40.2596 36.005 45.7586 36.0089 51.4006 36.0203 61.3473 41.4962 70.4829 50.2631 75.1814 45.7508 77.568 40.7224 78.8129 35.6179 78.8072ZM62.9889 76.2123C60.2191 76.2208 57.4674 75.7644 54.8487 74.8615 63.7954 68.6021 69.1285 58.3738 69.1385 47.4549 69.1385 46.3174 69.0674 45.1444 68.9607 44.0425 73.4538 41.1518 76.5535 36.5343 77.5275 31.2812 88.6391 39.3002 91.1462 54.8089 83.1272 65.9204 78.4592 72.3889 70.9659 76.2183 62.9889 76.2123Z" transform="matrix(1.01099 0 0 1 2254 1609)"/></g></g></g></g></svg>