<svg width="141" height="142" xmlns="http://www.w3.org/2000/svg" xmlns:xlink="http://www.w3.org/1999/xlink" xml:space="preserve" overflow="hidden"><g transform="translate(-687 -1557)"><path d="M689.5 1599.33 729.333 1559.5 785.667 1559.5 825.5 1599.33 825.5 1656.67 785.667 1696.5 729.333 1696.5 689.5 1656.67Z" stroke="#042433" stroke-width="4.58333" stroke-miterlimit="8" fill="#FFFFFF" fill-rule="evenodd"/><g><g><g><path d="M817.047 1608.31 814.617 1606.55 813.378 1602.78 810.28 1602.5 809.517 1607.88 808.517 1609.46 807.897 1610.5 804.275 1611.51 801.273 1612.22 798.842 1615.37 799.51 1616.84 794.41 1620.08 792.838 1622.09 791.36 1623.18 787.405 1625.52 785.213 1624.85 786.881 1620.89 784.402 1617.41 783.688 1614.51 781.829 1613.51 778.636 1616.41 777.969 1618.89 778.922 1622.04 777.969 1625.61 776.539 1625.85 775.729 1623.71 775.3 1621.51 776.063 1616.99 775.443 1616.18 776.444 1613.75 782.401 1612.89 780.256 1610.74 775.586 1612.12 773.299 1610.55 769.486 1612.41 766.055 1612.08 767.246 1608.31 764.816 1606.98 762.671 1607.12 759.907 1605.79 755.999 1605.79 742.894 1605.12 726.691 1602.93 720.114 1601.59 718.256 1601.16 707.628 1598.3 706.866 1600.69 703.053 1600.93 702.481 1607.17 698.812 1614.13 698.764 1616.65 696.953 1620.75 697.049 1625.37 700.623 1639.81 704.769 1642.15 706.675 1644.72 707.056 1647.2 712.87 1647.96 712.489 1648.53 721.21 1653.59 726.024 1654.35 728.216 1653.35 732.409 1653.92 735.793 1657.45 736.699 1660.45 740.034 1662.74 741.369 1660.64 744.609 1660.73 749.185 1667.41 750.185 1670.84 754.856 1671.79 754.236 1669.17 755.666 1666.17 759.335 1664.07 763.863 1660.45 767.77 1661.64 768.819 1660.73 771.345 1662.64 774.156 1661.69 774.585 1659.35 777.349 1658.59 779.78 1658.11 783.211 1658.26 786.213 1659.92 788.406 1658.21 792.409 1661.26 792.361 1664.4 794.839 1668.12 799.557 1670.84 799.843 1665.64 797.937 1661.54 794.41 1655.54 795.268 1651.54 798.795 1647.53 799.843 1645.29 805.324 1638.43 804.18 1636.57 804.227 1636.57 804.323 1636.57 804.513 1636.53 804.561 1636.53 802.703 1634.86 802.845 1632.95 802.226 1632.33 804.18 1632.47 804.752 1632.19 805.085 1630.81 805.133 1630.81 803.417 1627.23 804.132 1626.42 806.277 1626.76 805.848 1623.13 806.42 1622.99 809.946 1621.13 810.899 1619.7 810.995 1619.75 811.281 1620.18 812.281 1618.99 810.852 1616.22 810.852 1615.6 812.71 1612.79ZM769.915 1650.87 770.582 1647.01 727.549 1639.77C727.501 1639.67 721.83 1629.33 715.158 1622.04L713.728 1623.56 711.727 1616.84 718.542 1618.46 717.112 1619.99C721.496 1624.71 725.404 1630.62 727.739 1634.43L736.413 1623.61 732.124 1620.18 747.993 1613.98 745.42 1630.81 741.131 1627.38 733.506 1636.91 771.154 1643.24 771.821 1639.38 780.781 1646.77Z"/></g></g></g></g></svg>