<svg width="124" height="124" xmlns="http://www.w3.org/2000/svg" xmlns:xlink="http://www.w3.org/1999/xlink" xml:space="preserve" overflow="hidden"><defs><clipPath id="clip0"><rect x="1972" y="619" width="124" height="124"/></clipPath><clipPath id="clip1"><rect x="1984" y="625" width="101" height="101"/></clipPath><clipPath id="clip2"><rect x="1984" y="625" width="101" height="101"/></clipPath><clipPath id="clip3"><rect x="1984" y="625" width="101" height="101"/></clipPath></defs><g clip-path="url(#clip0)" transform="translate(-1972 -619)"><path d="M1974.5 681C1974.5 648.139 2001.14 621.5 2034 621.5 2066.86 621.5 2093.5 648.139 2093.5 681 2093.5 713.861 2066.86 740.5 2034 740.5 2001.14 740.5 1974.5 713.861 1974.5 681Z" stroke="#000000" stroke-width="4.58333" stroke-miterlimit="8" fill="#FFFFFF" fill-rule="evenodd"/><g clip-path="url(#clip1)"><g clip-path="url(#clip2)"><g clip-path="url(#clip3)"><path d="M2034 629.203 1984.78 664.945 2003.57 722.797 2064.39 722.797 2083.22 664.945ZM2032.83 679.359 1990.45 665.57 2032.83 634.789ZM2035.17 634.789 2077.55 665.57 2035.17 679.359ZM1989.74 667.797 2032.13 681.586 2005.91 717.641ZM2034 682.914 2060.21 718.969 2007.79 718.969ZM2062.05 717.602 2035.84 681.547 2078.26 667.797Z" fill="#000000" fill-opacity="0.42"/><path d="M2034 661.469 2068.26 670.041 2053.38 707.836 2010.37 713.904 2018.38 676Z" stroke="#000000" stroke-width="3.04872" fill="none"/><path d="M1997.95 718.682 1997.95 728.828 2068.96 728.828 2068.96 718.682Z" fill="#FFFFFF"/><path d="M1985.85 655.48 1976.2 658.628 1998.24 726.131 2007.88 722.982Z" fill="#FFFFFF"/><path d="M2039.13 630.471 2033.17 622.26 1975.71 663.978 1981.67 672.189Z" fill="#FFFFFF"/><path d="M2081.29 668.743 2087.27 660.544 2029.9 618.704 2023.92 626.902Z" fill="#FFFFFF"/><path d="M2057.66 730.698 2067.33 733.8 2089.03 666.189 2079.37 663.088Z" fill="#FFFFFF"/></g></g></g></g></svg>