<svg width="114" height="114" xmlns="http://www.w3.org/2000/svg" xmlns:xlink="http://www.w3.org/1999/xlink" xml:space="preserve" overflow="hidden"><g transform="translate(-604 -2126)"><path d="M606.5 2183C606.5 2152.9 630.9 2128.5 661 2128.5 691.099 2128.5 715.5 2152.9 715.5 2183 715.5 2213.1 691.099 2237.5 661 2237.5 630.9 2237.5 606.5 2213.1 606.5 2183Z" stroke="#000000" stroke-width="4.58333" stroke-miterlimit="8" fill="#FFFFFF" fill-rule="evenodd"/><g><g><g><path d="M40.7602 46.7156 2.78437 46.7156 6.1875 32.291ZM17.209 20.6895 7.03828 30.8602 41.959 45.4395ZM42.8871 44.0473 33.7992 22.0816C31.3629 22.159 22.5457 20.8441 19.1426 20.3027ZM80.3988 11.1762 63.8086 4.75664 47.5277 44.0473ZM48.9586 50.1188 75.3715 76.5316 95.6742 69.6094ZM14.2312 79.6641 30.3188 81.327 42.8871 51.0082ZM47.5277 51.0082 62.9965 88.3652 74.1727 77.6531ZM2.39766 48.3398 2.32031 48.6105 8.97188 61.643 41.1082 48.3398ZM46.0195 51.627 46.0195 96.6797 61.643 89.3707ZM86.9344 29.352 81.4816 12.375 48.6879 45.2074ZM44.3953 51.627 31.827 81.9844 44.3953 96.525ZM49.3066 46.7156 89.7574 46.7156 87.3598 30.9375ZM97.4531 68.6039 89.9894 48.3398 48.9199 48.3398ZM46.0195 43.4285 62.223 4.29258 46.0195 2.55234ZM44.3953 3.90586 34.882 20.4961 44.3953 43.4285ZM9.39727 63.2285 12.9551 78.6199 41.727 49.848Z" transform="matrix(1 0 0 1.0101 611 2132)"/></g></g></g></g></svg>