<svg width="124" height="124" xmlns="http://www.w3.org/2000/svg" xmlns:xlink="http://www.w3.org/1999/xlink" xml:space="preserve" overflow="hidden"><g transform="translate(-791 -2254)"><rect x="793.5" y="2256.5" width="119" height="119" stroke="#000000" stroke-width="4.58333" stroke-miterlimit="8" fill="#FFFFFF"/><g><g><g><path d="M901.219 2365.22 802.781 2365.22 802.781 2266.78 807.391 2266.78 807.391 2360.61 901.219 2360.61ZM900.75 2272.33 891.922 2272.68 882.547 2287.37 873.133 2284.28 865.164 2303.73 856.609 2294.87 847.781 2303.73 840.086 2300.69 829.539 2315.73 820.437 2320.26 811.883 2330.02 811.883 2348.46 820.437 2342.41 829.539 2344.01 838.68 2327.99 847.781 2346.78 856.609 2348.5 865.164 2350.88 874.266 2334.83 883.094 2332.45 891.922 2319.79 900.75 2326.62"/></g></g></g></g></svg>