<svg width="124" height="124" xmlns="http://www.w3.org/2000/svg" xmlns:xlink="http://www.w3.org/1999/xlink" xml:space="preserve" overflow="hidden"><g transform="translate(-3164 -378)"><rect x="3166.5" y="380.5" width="119" height="119" stroke="#000000" stroke-width="4.58333" stroke-miterlimit="8" fill="#FFFFFF"/><g><g><g><path d="M3191.24 469.954C3193.34 469.954 3195.05 471.659 3195.05 473.761 3195.05 475.864 3193.34 477.568 3191.24 477.568 3189.14 477.568 3187.43 475.864 3187.43 473.761 3187.43 471.659 3189.14 469.954 3191.24 469.954ZM3204.94 450.159C3207.05 450.159 3208.75 451.864 3208.75 453.966 3208.75 456.069 3207.05 457.773 3204.94 457.773 3202.84 457.773 3201.14 456.068 3201.14 453.966 3201.14 451.863 3202.84 450.159 3204.94 450.159ZM3241.49 451.641C3243.59 451.641 3245.3 453.345 3245.3 455.448 3245.3 457.551 3243.59 459.255 3241.49 459.255 3239.39 459.255 3237.68 457.551 3237.68 455.448 3237.68 453.345 3239.39 451.641 3241.49 451.641ZM3235.4 425.796C3237.5 425.796 3239.2 427.5 3239.2 429.603 3239.2 431.705 3237.5 433.41 3235.4 433.41 3233.3 433.41 3231.59 431.705 3231.59 429.603 3231.59 427.5 3233.3 425.796 3235.4 425.796ZM3223.22 396.864C3225.32 396.864 3227.02 398.569 3227.02 400.671 3227.02 402.774 3225.32 404.478 3223.22 404.478 3221.11 404.478 3219.41 402.774 3219.41 400.671 3219.41 398.569 3221.11 396.864 3223.22 396.864ZM3258.24 425.796C3260.34 425.796 3262.04 427.5 3262.04 429.603 3262.04 431.705 3260.34 433.41 3258.24 433.41 3256.14 433.41 3254.43 431.705 3254.43 429.603 3254.43 427.5 3256.14 425.796 3258.24 425.796ZM3264.33 402.955C3266.43 402.955 3268.14 404.66 3268.14 406.762 3268.14 408.865 3266.43 410.569 3264.33 410.569 3262.23 410.569 3260.52 408.865 3260.52 406.762 3260.52 404.66 3262.23 402.955 3264.33 402.955ZM3274.23 483.659 3181.34 483.659 3181.34 390.774 3176.77 390.774 3176.77 488.227 3274.23 488.227Z"/></g></g></g></g></svg>