<svg width="124" height="124" xmlns="http://www.w3.org/2000/svg" xmlns:xlink="http://www.w3.org/1999/xlink" xml:space="preserve" overflow="hidden"><g transform="translate(-402 -2299)"><rect x="404.5" y="2301.5" width="119" height="119" stroke="#000000" stroke-width="4.58333" stroke-miterlimit="8" fill="#FFFFFF"/><g><g><g><path d="M485.401 2355.38C485.401 2352.52 487.725 2350.19 490.592 2350.19 493.459 2350.19 495.783 2352.52 495.783 2355.38 495.783 2358.25 493.459 2360.58 490.592 2360.58 487.725 2360.58 485.401 2358.25 485.401 2355.38ZM472.518 2342.09C475.385 2342.09 477.709 2339.76 477.709 2336.89 477.709 2334.03 475.385 2331.7 472.518 2331.7 469.651 2331.7 467.327 2334.03 467.327 2336.89 467.327 2339.76 469.651 2342.09 472.518 2342.09ZM417.766 2405.32 417.766 2315.11 416.629 2315.11 416.629 2406.46 510.219 2406.46 510.219 2405.32ZM449.405 2369.4C452.271 2369.4 454.596 2367.08 454.596 2364.21 454.596 2361.35 452.271 2359.02 449.405 2359.02 446.538 2359.02 444.214 2361.35 444.214 2364.21 444.214 2367.08 446.538 2369.4 449.405 2369.4ZM432.089 2381.72C434.955 2381.72 437.28 2379.39 437.28 2376.53 437.28 2373.66 434.955 2371.34 432.089 2371.34 429.222 2371.34 426.898 2373.66 426.898 2376.53 426.898 2379.39 429.222 2381.72 432.089 2381.72ZM449.48 2346.97 451.678 2346.97 451.678 2343.41 455.467 2343.41 455.467 2341.18 451.678 2341.18 451.678 2337.16 449.48 2337.16 449.48 2341.18 445.653 2341.18 445.653 2343.41 449.48 2343.41ZM475.246 2364.02 475.246 2360.46 479.035 2360.46 479.035 2358.23 475.246 2358.23 475.246 2354.21 473.048 2354.21 473.048 2358.23 469.259 2358.23 469.259 2360.46 473.048 2360.46 473.048 2364.02ZM501.807 2333.07 504.043 2333.07 504.043 2329.51 507.832 2329.51 507.832 2327.27 504.043 2327.27 504.043 2323.29 501.807 2323.29 501.807 2327.27 498.018 2327.27 498.018 2329.51 501.807 2329.51Z"/></g></g></g></g></svg>