<svg width="124" height="124" xmlns="http://www.w3.org/2000/svg" xmlns:xlink="http://www.w3.org/1999/xlink" xml:space="preserve" overflow="hidden"><g transform="translate(-3330 -629)"><rect x="3332.5" y="631.5" width="119" height="119" stroke="#000000" stroke-width="4.58333" stroke-miterlimit="8" fill="#FFFFFF"/><g><g><g><path d="M3353.83 673.308C3353.81 672.133 3354.75 671.164 3355.92 671.143 3357.1 671.122 3358.07 672.057 3358.09 673.231 3358.11 674.406 3357.17 675.375 3356 675.396 3355.97 675.396 3355.95 675.396 3355.92 675.396 3354.78 675.375 3353.85 674.452 3353.83 673.308ZM3362.07 654.126C3363.22 654.126 3364.16 653.191 3364.16 652.038 3364.16 650.885 3363.22 649.95 3362.07 649.95 3360.92 649.95 3359.98 650.885 3359.98 652.038 3359.98 653.191 3360.92 654.126 3362.07 654.126ZM3379.63 656.563C3380.78 656.563 3381.72 655.628 3381.72 654.474 3381.72 653.321 3380.78 652.386 3379.63 652.386 3378.47 652.386 3377.54 653.321 3377.54 654.474 3377.54 655.628 3378.47 656.563 3379.63 656.563ZM3368.06 665.689C3369.24 665.689 3370.19 664.737 3370.19 663.562 3370.03 662.398 3368.96 661.583 3367.8 661.741 3366.85 661.87 3366.11 662.615 3365.98 663.562 3365.98 664.722 3366.91 665.668 3368.06 665.689ZM3350.47 683.285C3351.62 683.285 3352.56 682.35 3352.56 681.197 3352.56 680.043 3351.62 679.108 3350.47 679.108 3349.32 679.108 3348.38 680.043 3348.38 681.197 3348.38 682.35 3349.32 683.285 3350.47 683.285ZM3368.41 673.888C3368.41 675.041 3369.35 675.976 3370.5 675.976 3371.65 675.976 3372.59 675.041 3372.59 673.888 3372.59 672.734 3371.65 671.799 3370.5 671.799 3369.35 671.799 3368.41 672.734 3368.41 673.888ZM3347.1 647.514 3344.13 647.514 3344.13 687.539 3384.15 687.539 3384.15 684.561 3347.1 684.561ZM3377.19 665.689C3378.35 665.668 3379.28 664.722 3379.28 663.562 3379.28 662.409 3378.34 661.474 3377.19 661.474 3376.04 661.474 3375.1 662.409 3375.1 663.562 3375.1 664.722 3376.03 665.668 3377.19 665.689ZM3347.1 701.074 3344.13 701.074 3344.13 741.099 3384.15 741.099 3384.15 738.122 3347.1 738.122ZM3352.56 734.757C3352.56 733.604 3351.62 732.669 3350.47 732.669 3349.32 732.669 3348.38 733.604 3348.38 734.757 3348.38 735.911 3349.32 736.846 3350.47 736.846 3351.62 736.846 3352.56 735.911 3352.56 734.757ZM3375.1 717.162C3375.12 718.315 3376.08 719.232 3377.23 719.211 3378.38 719.19 3379.3 718.237 3379.28 717.084 3379.26 715.947 3378.33 715.035 3377.19 715.035 3376.04 715.034 3375.1 715.969 3375.1 717.123 3375.1 717.136 3375.1 717.148 3375.1 717.162ZM3375.45 707.378C3375.45 706.224 3374.52 705.289 3373.36 705.289 3372.21 705.289 3371.27 706.224 3371.27 707.378 3371.27 708.531 3372.21 709.466 3373.36 709.466 3374.52 709.466 3375.45 708.531 3375.45 707.378ZM3368.41 727.448C3368.41 728.602 3369.35 729.537 3370.5 729.537 3371.65 729.537 3372.59 728.602 3372.59 727.448 3372.59 726.295 3371.65 725.36 3370.5 725.36 3369.35 725.36 3368.41 726.295 3368.41 727.448ZM3360.1 730.967C3360.1 732.121 3361.03 733.056 3362.19 733.056 3363.34 733.056 3364.27 732.121 3364.27 730.967 3364.27 729.814 3363.34 728.879 3362.19 728.879 3361.03 728.879 3360.1 729.814 3360.1 730.967ZM3359.67 716.117C3358.5 716.096 3357.53 717.031 3357.51 718.206 3357.49 719.38 3358.42 720.349 3359.6 720.371 3360.77 720.392 3361.74 719.457 3361.76 718.282 3361.76 718.257 3361.76 718.231 3361.76 718.206 3361.76 717.053 3360.83 716.117 3359.67 716.117ZM3365.32 705.599C3365.32 704.445 3364.38 703.51 3363.23 703.51 3362.08 703.51 3361.14 704.445 3361.14 705.599 3361.14 706.752 3362.08 707.687 3363.23 707.687 3364.38 707.687 3365.32 706.752 3365.32 705.599ZM3422.17 719.25C3423.34 719.271 3424.31 718.336 3424.33 717.162 3424.35 715.987 3423.42 715.018 3422.24 714.997 3421.07 714.975 3420.1 715.911 3420.08 717.085 3420.08 717.111 3420.08 717.136 3420.08 717.162 3420.08 718.315 3421.01 719.25 3422.17 719.25ZM3417.45 730.581C3417.45 731.734 3418.38 732.669 3419.54 732.669 3420.69 732.669 3421.63 731.734 3421.63 730.581 3421.63 729.428 3420.69 728.492 3419.54 728.492 3418.38 728.492 3417.45 729.428 3417.45 730.581ZM3433.69 710.123C3434.84 710.123 3435.78 709.188 3435.78 708.035 3435.78 706.882 3434.84 705.947 3433.69 705.947 3432.54 705.947 3431.6 706.882 3431.6 708.035 3431.62 709.18 3432.55 710.103 3433.69 710.123ZM3427.81 724.548C3428.99 724.548 3429.94 723.596 3429.94 722.421 3429.92 721.262 3428.97 720.332 3427.81 720.333 3426.66 720.333 3425.72 721.268 3425.72 722.421 3425.72 723.581 3426.65 724.527 3427.81 724.548ZM3404.57 736.846C3405.72 736.846 3406.66 735.911 3406.66 734.757 3406.66 733.604 3405.72 732.669 3404.57 732.669 3403.42 732.669 3402.48 733.604 3402.48 734.757 3402.48 735.911 3403.42 736.846 3404.57 736.846ZM3415.71 711.167C3416.87 711.009 3417.69 709.938 3417.53 708.774 3417.4 707.826 3416.66 707.081 3415.71 706.952 3414.54 706.794 3413.47 707.61 3413.31 708.774 3413.16 709.938 3413.97 711.009 3415.14 711.167 3415.33 711.193 3415.52 711.193 3415.71 711.167ZM3401.21 738.122 3401.21 701.074 3398.23 701.074 3398.23 741.099 3438.25 741.099 3438.25 738.122ZM3410.02 728.957C3411.18 728.957 3412.11 728.021 3412.11 726.868 3412.11 725.715 3411.18 724.78 3410.02 724.78 3408.86 724.801 3407.94 725.747 3407.94 726.907 3407.96 728.045 3408.89 728.957 3410.02 728.957Z"/><path d="M3431.29 665.681C3432.45 665.66 3433.38 664.714 3433.38 663.554 3433.38 662.401 3432.44 661.466 3431.29 661.466 3430.13 661.466 3429.2 662.401 3429.2 663.554 3429.2 664.714 3430.13 665.66 3431.29 665.681Z"/><path d="M3401.2 647.505 3398.22 647.505 3398.22 687.531 3438.25 687.531 3438.25 684.553 3401.2 684.553Z"/><path d="M3429.97 675.952C3429.97 677.105 3430.9 678.04 3432.06 678.04 3433.21 678.04 3434.15 677.105 3434.15 675.952 3434.15 674.798 3433.21 673.863 3432.06 673.863 3430.9 673.863 3429.97 674.798 3429.97 675.952Z"/><path d="M3410.78 663.796C3411.94 663.796 3412.87 662.862 3412.87 661.708 3412.87 660.555 3411.94 659.62 3410.78 659.62 3409.63 659.62 3408.69 660.555 3408.69 661.708 3408.69 662.862 3409.63 663.796 3410.78 663.796Z"/><path d="M3421.75 668.582C3422.92 668.582 3423.87 667.63 3423.87 666.455 3423.72 665.291 3422.64 664.476 3421.48 664.634 3420.53 664.763 3419.79 665.508 3419.66 666.455 3419.66 667.615 3420.59 668.561 3421.75 668.582Z"/><path d="M3417.56 674.377C3418.71 674.377 3419.65 673.442 3419.65 672.289 3419.65 671.135 3418.71 670.2 3417.56 670.2 3416.41 670.2 3415.47 671.135 3415.47 672.289 3415.47 673.442 3416.41 674.377 3417.56 674.377Z"/><path d="M3418.24 681.059C3419.39 681.059 3420.33 680.124 3420.33 678.971 3420.33 677.817 3419.39 676.883 3418.24 676.883 3417.09 676.883 3416.15 677.817 3416.15 678.971 3416.15 680.124 3417.09 681.059 3418.24 681.059Z"/><path d="M3407.93 673.3C3407.91 672.125 3408.84 671.156 3410.02 671.134 3411.19 671.113 3412.16 672.048 3412.18 673.223 3412.2 674.397 3411.27 675.367 3410.09 675.388 3410.07 675.388 3410.04 675.388 3410.02 675.388 3408.87 675.367 3407.95 674.444 3407.93 673.3Z"/></g></g></g></g></svg>