<svg width="124" height="125" xmlns="http://www.w3.org/2000/svg" xmlns:xlink="http://www.w3.org/1999/xlink" xml:space="preserve" overflow="hidden"><g transform="translate(-2752 -652)"><path d="M2754.5 714.5C2754.5 681.363 2781.14 654.5 2814 654.5 2846.86 654.5 2873.5 681.363 2873.5 714.5 2873.5 747.637 2846.86 774.5 2814 774.5 2781.14 774.5 2754.5 747.637 2754.5 714.5Z" stroke="#000000" stroke-width="4.58333" stroke-miterlimit="8" fill="#FFFFFF" fill-rule="evenodd"/><g><g><g><path d="M79.4939 64.0407 79.2782 64.436C78.8872 65.0495 78.442 65.6266 77.9485 66.161 77.5284 66.772 77.0469 67.338 76.511 67.8501 75.972 68.3173 75.397 68.7485 74.8579 69.2517L73.061 70.761C71.8431 71.7087 70.5713 72.5845 69.2517 73.3845 67.9579 74.0673 66.6642 74.7142 65.4423 75.4689 64.8737 75.8979 64.2732 76.2825 63.6454 76.6189L61.7407 77.4814 59.6563 78.272C58.9419 78.6274 58.1958 78.916 57.4282 79.1345 56.6735 79.3501 55.9188 79.4939 55.1641 79.6735 54.7872 79.8026 54.4033 79.9107 54.0141 79.997 53.1908 80.0876 52.3624 80.1235 51.5344 80.1048 48.336 80.1767 45.1376 80.1767 41.9032 80.1767L34.0688 80.1767C32.8268 80.1659 31.5881 80.0455 30.3672 79.8173 28.8663 79.6168 27.3784 79.3286 25.911 78.9548L21.6344 77.7689 21.4547 78.1282C21.215 78.6177 20.8411 79.0292 20.3766 79.3142 19.9824 79.7019 19.4822 79.9646 18.9391 80.0689 18.3944 80.2532 17.8084 80.278 17.25 80.1407 16.7018 80.13 16.1671 79.9682 15.7047 79.6735 15.0093 79.2764 14.4277 78.7072 14.0156 78.0204 13.6181 77.3452 13.4072 76.5761 13.4047 75.7923 13.435 75.4663 13.483 75.1425 13.5485 74.822L13.4047 74.7501C13.1531 74.6064 12.9016 74.3548 12.6141 74.211 12.3266 74.0673 11.9313 74.0314 11.6078 73.9235 11.2844 73.8157 11.2485 72.6298 11.8953 72.8814 12.5422 73.1329 12.5781 73.0251 12.9016 73.1689 13.1686 73.2982 13.4215 73.4549 13.6563 73.636L13.9438 73.7798C13.9438 73.7439 13.9797 73.7079 14.0156 73.672 14.9875 71.9574 17.0126 71.1384 18.9032 71.6954 19.4141 71.8093 19.8855 72.0577 20.2688 72.4142 20.5655 72.573 20.8138 72.8088 20.9875 73.097 21.2598 73.4262 21.4671 73.8042 21.5985 74.211 21.7094 74.4321 21.8055 74.6603 21.886 74.8939 22.0533 75.4908 22.0779 76.1186 21.9578 76.7267L22.9282 77.0142 25.6953 77.8048C27.061 78.1642 28.4266 78.4157 29.8282 78.6673 31.156 78.9192 32.5021 79.0633 33.8532 79.0985L45.8923 79.0985C48.4079 79.0626 50.9594 79.0985 53.4751 78.9548L53.7985 78.9548 54.4813 78.7751C55.9188 78.4157 57.4282 78.1642 58.7938 77.5532 59.4766 77.2298 60.1595 76.9782 60.8782 76.6907 61.597 76.4032 62.136 76.1157 62.7829 75.8642 63.3974 75.5867 63.9764 75.2367 64.5079 74.822 65.0861 74.4403 65.6863 74.0921 66.3048 73.7798 67.5267 73.097 68.7845 72.486 69.9704 71.6954 71.2656 70.8451 72.5026 69.9086 73.672 68.8923 74.211 68.4251 74.7142 67.922 75.2892 67.4907 75.8185 67.0627 76.29 66.5675 76.6907 66.0173 77.1622 65.4894 77.6061 64.9377 78.0204 64.3642L78.5236 63.6095C78.3521 63.4973 78.1951 63.3647 78.0564 63.2141L77.9845 63.1423 77.9485 63.1423C77.7225 62.8713 77.518 62.5831 77.3376 62.2798L77.3017 62.2798 77.1939 61.9563C77.1094 61.782 77.0375 61.6016 76.9782 61.4173 76.7985 60.7341 76.7985 60.0161 76.9782 59.3329 77.1468 58.6652 77.4947 58.056 77.9845 57.572 78.9882 56.5628 80.4606 56.1776 81.8298 56.5657L82.2251 56.6735C82.5126 55.8829 82.8361 55.0923 83.0876 54.2657 83.59 52.8555 83.9508 51.399 84.1657 49.9173 84.3814 48.4798 84.3814 47.0423 84.4532 45.6048 84.4892 44.886 84.4892 44.1313 84.4532 43.4126 84.4065 42.6719 84.2861 41.9373 84.0939 41.2204 83.8064 39.6391 83.447 38.0938 83.1236 36.5126 82.8001 34.9313 82.6923 33.4938 82.1892 32.0563 81.6397 30.6637 80.9784 29.3176 80.2126 28.0313 78.8276 25.4385 77.2161 22.9733 75.397 20.6641 74.4267 19.5141 73.3485 18.4719 72.3782 17.3578 71.9391 16.805 71.432 16.31 70.8689 15.8844 70.3298 15.4891 69.8267 15.0578 69.2876 14.6985 68.7485 14.3391 68.2095 14.0875 67.7063 13.7281 67.4548 14.0876 67.1224 14.383 66.736 14.5906L65.8376 14.986 65.3345 15.0938 65.0829 15.1656C64.5783 15.2971 64.0522 15.3216 63.5376 15.2375 63.1513 15.214 62.7728 15.1164 62.4235 14.95 61.9815 14.8021 61.5851 14.5421 61.2735 14.1953 60.8534 13.7605 60.5451 13.2302 60.3751 12.65 60.0797 11.5892 60.2087 10.455 60.7345 9.48751 58.5782 8.37345 56.4938 7.18751 54.1938 6.43282 52.7822 5.97214 51.3239 5.6708 49.8454 5.53438L47.5454 5.24688C46.7907 5.13907 46.036 4.99532 45.2813 4.95938 44.5266 4.92344 43.7001 4.99532 42.9454 4.99532L40.6454 5.06719C39.1001 5.13907 37.5547 5.31876 36.0094 5.46251L33.6735 5.53438C33.2876 5.53456 32.9026 5.57064 32.5235 5.6422 32.2172 5.73499 31.9051 5.80704 31.5891 5.85782 31.2297 5.85782 30.8704 5.78595 30.5469 5.82188L29.5766 5.96563C29.2406 5.98971 28.9117 6.07496 28.6063 6.2172 28.3383 6.375 28.0624 6.51893 27.7797 6.64845 27.0969 6.93595 26.3782 7.00782 25.7313 7.33126 25.0844 7.6547 24.6172 8.08595 24.0422 8.44532 22.7894 9.12271 21.5883 9.89145 20.4485 10.7453L20.2688 10.925 20.5203 11.2485C20.7908 11.676 20.9051 12.1838 20.8438 12.686L20.8438 12.7578C21.0953 13.5844 20.8438 14.4828 20.4844 15.2375 20.3256 15.5435 20.1194 15.8225 19.8735 16.0641 19.4981 16.5679 18.987 16.9543 18.4 17.1781 17.4623 17.585 16.4005 17.5979 15.4531 17.2141 15.4172 17.286 15.3813 17.3219 15.3813 17.3938 14.6625 18.6875 14.3031 20.0532 13.9078 21.4547 13.5125 22.8563 12.9016 24.3657 12.7938 25.8391 12.7578 26.1985 12.7578 26.5578 12.7219 26.9532 12.686 27.3485 12.6141 27.5641 12.5422 27.8875 12.4205 28.6115 12.3724 29.346 12.3985 30.0797 12.4344 30.7625 12.4344 31.4813 12.5063 32.2 12.5436 32.5537 12.6158 32.9028 12.7219 33.2422 12.7938 33.5657 12.7938 33.925 12.8656 34.2844 12.9375 34.6438 13.0094 35.686 13.1531 36.3688 13.3029 37.0707 13.5195 37.7567 13.8 38.4172 14.2638 39.9054 14.8036 41.3688 15.4172 42.8016 16.0472 44.085 16.8057 45.3011 17.6813 46.4313 18.5326 47.6 19.4954 48.6832 20.5563 49.6657 21.5866 50.6788 22.6788 51.6268 23.8266 52.5048 25.0125 53.4032 26.2703 54.086 27.4563 54.9485L28.4266 55.6313 28.8579 55.0923 29.6125 54.5173 30.475 54.1579 31.4094 54.0141C31.8988 53.9742 32.3885 54.0875 32.811 54.3376 33.1271 54.4069 33.415 54.5697 33.6375 54.8048 33.9035 54.9636 34.1257 55.1857 34.2844 55.4516 34.6766 55.9332 34.9145 56.5219 34.9672 57.1407 35.0818 57.6269 35.0695 58.1344 34.9313 58.6141 34.8562 58.7511 34.796 58.8955 34.7516 59.0454L34.7157 59.0454 35.1829 59.2251C35.872 59.4946 36.5808 59.711 37.3032 59.872 38.0219 60.0517 38.6688 60.3751 39.4235 60.447 41.0119 60.5965 42.6079 60.6565 44.2032 60.6266 45.6766 60.6266 47.186 60.6985 48.6594 60.447L50.7798 59.9438C51.5517 59.8288 52.3103 59.6362 53.0438 59.3688 54.3376 58.8298 55.7032 58.5063 56.961 57.8954 58.1545 57.2837 59.2653 56.5229 60.2673 55.6313 61.3379 54.7767 62.2924 53.7859 63.1063 52.6845 63.824 51.5064 64.4375 50.268 64.9392 48.9829 65.5875 47.6611 66.059 46.2592 66.3407 44.8141 66.335 44.7286 66.3472 44.6431 66.3767 44.5626 65.8699 44.4878 65.3819 44.3171 64.9392 44.0594L64.1126 43.4126C63.6113 42.9173 63.2515 42.2967 63.0704 41.6157L62.8907 40.5376C62.8774 39.9888 63.001 39.4454 63.2501 38.9563 63.4327 38.4532 63.7277 37.9986 64.1126 37.6266 64.4572 37.2345 64.9057 36.9481 65.4063 36.8001L65.5501 36.7282 65.3345 36.1891C65.0829 35.5782 64.6516 35.0032 64.4001 34.3922 64.1485 33.7813 63.8251 32.9547 63.5017 32.236 62.9112 31.0045 62.0943 29.8951 61.0938 28.9657 60.066 28.0287 58.9462 27.198 57.7516 26.486L54.122 24.186C53.5484 23.8153 52.9335 23.5137 52.2891 23.2875 51.5772 23.0814 50.838 22.9845 50.0969 23 48.6594 23 47.1501 22.9641 45.7126 23.0719 46.0058 23.6118 46.1546 24.2185 46.1438 24.8328 46.1442 25.512 45.971 26.18 45.6407 26.7735 45.4078 27.174 45.0883 27.5177 44.7063 27.7797 44.499 27.9897 44.2377 28.1388 43.9516 28.211 43.5276 28.4233 43.06 28.5341 42.586 28.5344L41.6516 28.3907 40.7891 28.0313 40.0704 27.4922C39.7257 27.1857 39.476 26.7865 39.3516 26.3422 39.2496 26.2199 39.187 26.0695 39.1719 25.911 39.0228 25.4587 38.998 24.9746 39.1001 24.5094 39.1036 24.2361 39.1647 23.9668 39.2797 23.7188 39.4145 23.45 39.5345 23.1741 39.6391 22.8922 39.8494 22.4964 40.1591 22.1621 40.5376 21.9219 40.7521 21.7129 41.0094 21.5534 41.2922 21.4547 41.7062 21.2539 42.1619 21.1553 42.6219 21.1672L43.5563 21.311C43.9994 21.4042 44.4091 21.6153 44.7423 21.9219L44.9219 22.0657C46.1995 21.94 47.4846 21.9039 48.7673 21.9578 50.3126 21.9219 51.8219 21.886 53.2954 22.5328 54.7688 23.1797 55.7032 23.9703 56.9251 24.6891 59.3329 26.1625 61.9563 27.7079 63.5376 30.1157 63.953 30.7424 64.3135 31.4037 64.6157 32.0922 64.9032 32.775 65.1548 33.4938 65.4782 34.1766 65.8017 34.8594 66.161 35.4344 66.4485 36.0813L66.5923 36.4407 66.9876 36.4407C67.7121 36.4256 68.4251 36.6258 69.036 37.0157L69.8626 37.6266C70.3618 38.1297 70.7319 38.7461 70.9407 39.4235 70.9688 39.7972 71.0165 40.1692 71.0845 40.5376 71.0935 41.0745 70.9698 41.6049 70.7251 42.0829 70.5508 42.59 70.2547 43.0467 69.8626 43.4126 69.518 43.8046 69.0695 44.0911 68.5688 44.2391 68.2303 44.4436 67.849 44.5665 67.4548 44.5985 67.3197 45.4405 67.1152 46.27 66.8438 47.0782 66.3432 48.4859 65.7675 49.8652 65.1188 51.211 64.5144 52.4893 63.714 53.6655 62.747 54.697 60.8804 56.7738 58.5545 58.3856 55.9548 59.4048 55.236 59.6923 54.5173 59.872 53.8345 60.1235 53.1258 60.4161 52.3919 60.6446 51.6423 60.8063 50.1688 61.0938 48.7313 61.5251 47.186 61.597 45.6407 61.6688 43.9876 61.6329 42.3704 61.6329 40.7532 61.6329 39.136 61.597 37.6985 61.0579 36.9797 60.7704 36.1891 60.6626 35.4704 60.411L34.1766 59.9438C34.0192 60.1792 33.8103 60.3758 33.5657 60.5188 33.25 60.8106 32.8674 61.0205 32.4516 61.1298L31.5532 61.2376 30.6547 61.1298 30.5469 61.1298 29.6844 60.7704C29.3855 60.5864 29.1082 60.3693 28.8579 60.1235 28.5111 59.8119 28.251 59.4156 28.1032 58.9735 27.9596 58.6831 27.8858 58.3633 27.8875 58.0391 27.7743 57.5651 27.7867 57.0695 27.9235 56.6016L27.9235 56.5298 27.4563 56.2063 25.5516 54.8766C24.2415 54.0975 22.9922 53.2203 21.8141 52.2532 19.5276 50.3586 17.5405 48.1294 15.9203 45.6407 15.4891 44.9938 15.0938 44.3829 14.7344 43.736 14.3918 43.0607 14.0917 42.3643 13.836 41.6516 13.2969 40.1782 12.7578 38.7047 12.2547 37.1954 12.0391 36.5126 12.0391 35.7579 11.8953 35.0391 11.8135 34.3027 11.6935 33.571 11.536 32.8469 11.3854 32.1386 11.325 31.4141 11.3563 30.6907 11.3141 29.9481 11.3261 29.2034 11.3922 28.4625 11.4281 27.7438 11.6797 27.061 11.6797 26.3782 11.7143 25.6148 11.8226 24.8566 12.0031 24.1141 12.3625 22.5328 12.8656 21.0235 13.3328 19.4782 13.6219 18.4679 14.0195 17.4919 14.5188 16.5672 14.0045 16.1638 13.6075 15.6303 13.3688 15.0219 12.8681 13.9227 12.9351 12.6484 13.5485 11.6078 14.0635 10.7276 14.9015 10.083 15.8844 9.81095 16.404 9.7022 16.9361 9.66591 17.4656 9.70314L17.825 9.70314C18.378 9.69106 18.9241 9.82755 19.4063 10.0985L19.4782 10.0985C19.8748 9.74677 20.2951 9.42257 20.736 9.12814 21.9578 8.30157 23.2157 7.58282 24.4375 6.75626 25.0282 6.37087 25.6692 6.06856 26.3422 5.85782L27.4204 5.53438 28.2829 5.06719C28.9297 4.77969 29.6485 4.77969 30.3313 4.67188 30.7018 4.63584 31.0749 4.63584 31.4454 4.67188 31.7625 4.64694 32.0759 4.58667 32.3797 4.49219 33.1282 4.3727 33.8863 4.32454 34.6438 4.34844L37.1235 4.16876C38.7407 4.02501 40.3579 3.84532 41.9391 3.84532 43.5204 3.84532 45.0298 3.66563 46.5391 3.91719L51.4626 4.56407C54.4454 4.99532 57.1766 6.28907 59.836 7.6547L61.3454 8.48126C61.6149 8.23186 61.9031 8.00358 62.2079 7.79845 62.826 7.46096 63.516 7.27617 64.2204 7.25939 64.6639 7.25931 65.103 7.34474 65.5142 7.51095 65.7808 7.53966 66.0381 7.62548 66.2688 7.76251 66.7393 7.9123 67.1612 8.18528 67.4907 8.55314L68.1017 9.30783C68.3672 9.72847 68.516 10.2122 68.5329 10.7094 68.6533 11.2091 68.6285 11.7328 68.461 12.2188 68.4298 12.3908 68.3816 12.5593 68.3173 12.7219L69.3954 13.4047C69.9629 13.7467 70.5034 14.1311 71.0126 14.5547 71.5815 14.9603 72.122 15.4045 72.6298 15.8844 73.1689 16.4953 73.636 17.1063 74.1751 17.6453 76.2789 19.8301 78.1351 22.2405 79.7095 24.8328 80.5001 26.1625 81.2189 27.5282 81.9736 28.8938 82.73 30.2479 83.2982 31.6988 83.6626 33.2063 83.9861 34.7516 84.2017 36.3688 84.5611 37.9141 84.9204 39.4594 85.2798 41.0407 85.4595 42.6219 85.6392 44.2032 85.4954 45.6407 85.4595 47.1501 85.4063 48.6479 85.2259 50.139 84.9204 51.6063 84.4806 53.483 83.8915 55.3215 83.1595 57.1048L83.1954 57.1048 83.5548 57.3923 83.6267 57.5001C83.7287 57.5784 83.8143 57.6762 83.8782 57.7876L83.9501 57.8954 84.022 57.9673C84.2915 58.3331 84.4867 58.7482 84.597 59.1891 84.7767 59.8723 84.7767 60.5904 84.597 61.2735 84.455 61.8025 84.197 62.2938 83.8423 62.711 83.5343 63.1204 83.1573 63.4729 82.7282 63.7532L81.7939 64.1126C81.1229 64.2926 80.4164 64.2926 79.7454 64.1126ZM47.0063 31.661C45.7136 31.6483 44.4238 31.7809 43.161 32.0563 42.0469 32.3438 40.7532 32.1641 39.5313 32.1641 38.9358 32.1641 38.4532 32.6468 38.4532 33.2422 38.4532 33.8377 38.9358 34.3204 39.5313 34.3204 40.861 34.3204 42.1907 34.4641 43.4844 34.2125L44.4188 33.9969 45.1376 33.8891C45.7586 33.8293 46.3824 33.8053 47.0063 33.8172 47.6018 33.8172 48.0844 33.3346 48.0844 32.7391 48.0844 32.1437 47.6018 31.661 47.0063 31.661ZM43.3766 36.3329C42.1188 36.5126 40.8969 36.8001 39.6391 36.8001 39.0436 36.8001 38.561 37.2827 38.561 37.8782 38.561 38.4737 39.0436 38.9563 39.6391 38.9563L39.8547 38.9563C41.1481 38.8949 42.4343 38.7267 43.7001 38.4532 44.7782 38.2735 46.1079 38.4532 47.2579 38.4532 47.8534 38.4532 48.336 37.9705 48.336 37.3751 48.336 36.7796 47.8534 36.2969 47.2579 36.2969 45.9641 36.2969 44.6704 36.1532 43.3766 36.3329ZM73.8876 46.4313 75.0017 46.4313C76.0798 46.4673 77.122 46.4313 78.2001 46.4313 78.7956 46.4313 79.2782 45.9487 79.2782 45.3532 79.2596 44.7656 78.7877 44.2938 78.2001 44.2751L75.0017 44.2751C74.5345 44.2751 74.0314 44.2391 73.5282 44.2751L72.6298 44.4548 72.3423 44.5266 72.0907 44.5266C71.5031 44.5453 71.0313 45.0172 71.0126 45.6048 71.0126 46.2002 71.4952 46.6829 72.0907 46.6829L72.2704 46.6829C72.7376 46.6469 73.2048 46.5032 73.672 46.4313ZM70.222 49.3423C69.9161 49.7329 69.9161 50.2813 70.222 50.6719 70.5576 51.0946 71.1484 51.216 71.6235 50.9594L71.8751 50.8876 72.7735 50.8876 73.7079 50.7079 73.9954 50.636 74.3189 50.636C74.9438 50.6547 75.5691 50.6188 76.1876 50.5282L76.511 50.4563 77.661 50.4563C78.2486 50.4376 78.7205 49.9658 78.7392 49.3782 78.7593 48.8028 78.3094 48.3202 77.7344 48.3001 77.7099 48.2993 77.6855 48.2993 77.661 48.3001 77.0113 48.2943 76.3623 48.3425 75.7204 48.4438L74.0673 48.4438C73.7514 48.4564 73.438 48.5046 73.1329 48.5876L72.7017 48.6954 72.4142 48.6954C72.1719 48.7112 71.9315 48.7471 71.6954 48.8032L71.5157 48.7313C70.995 48.6091 70.4588 48.8625 70.222 49.3423ZM28.3907 64.3642 28.6063 64.3642 29.1454 64.2204 30.2235 63.9688C30.922 63.7536 31.6488 63.6447 32.3797 63.6454 33.5297 63.6454 35.0032 63.9688 35.4344 65.2267 35.5724 65.7909 35.2387 66.3626 34.6797 66.5204 34.1947 66.676 33.67 66.4442 33.4579 65.9813L33.2782 65.9813 32.9547 65.9095 31.7329 65.9095 31.2297 66.0173 30.2594 66.2688C29.5868 66.4406 28.902 66.561 28.211 66.6282 27.6 66.7001 27.1329 66.0892 27.1329 65.5501 27.1329 65.011 27.636 64.5438 28.211 64.472ZM33.35 65.7298C33.3682 65.7758 33.3803 65.8243 33.386 65.8735L33.4219 65.8735C33.386 65.8376 33.35 65.8017 33.35 65.7298ZM26.486 70.4017C26.7956 70.9051 27.4528 71.0654 27.9594 70.761 28.8579 70.1501 29.8641 70.186 31.05 70.1501 31.7614 70.1336 32.4703 70.0613 33.1704 69.9345 33.8532 69.8267 34.2125 70.0063 34.8594 70.1142 35.435 70.273 36.0303 69.9352 36.1891 69.3595 36.348 68.7838 36.0101 68.1886 35.4344 68.0298 35.1038 67.9371 34.7677 67.8652 34.4282 67.8142 33.992 67.7121 33.5396 67.6999 33.0985 67.7782 32.3863 67.9051 31.6654 67.9773 30.9422 67.9938 29.5766 68.0298 28.0672 68.1017 26.8813 68.9282 26.3958 69.2488 26.2261 69.8813 26.486 70.4017ZM9.12814 14.6266C8.47911 14.6145 7.83126 14.5665 7.18751 14.4828 6.52116 14.3873 5.8465 14.3632 5.17501 14.411 4.87662 14.4471 4.57496 14.4471 4.27657 14.411L4.09688 14.411 3.77344 14.2672C3.05469 14.0516 2.26407 14.0875 1.76094 14.6625 1.33516 15.1067 1.35005 15.8119 1.7942 16.2377 1.91724 16.3556 2.06568 16.4438 2.22813 16.4953L2.40782 16.4953C2.70138 16.5932 3.02436 16.5394 3.27032 16.3516L3.66563 16.4953C4.29572 16.5917 4.93476 16.6158 5.57032 16.5672 6.75626 16.4953 7.9422 16.7828 9.12814 16.7828 9.70335 16.803 10.1861 16.3531 10.2063 15.7779 10.2071 15.7535 10.2071 15.7291 10.2063 15.7047 10.1876 15.1172 9.71568 14.6452 9.12814 14.6266ZM8.87658 18.0047 2.76719 18.0047C2.17176 18.0047 1.68906 18.4874 1.68906 19.0828 1.70773 19.6704 2.17966 20.1423 2.76719 20.161L8.87658 20.161C9.46412 20.1423 9.93605 19.6704 9.9547 19.0828 9.9547 18.4874 9.47202 18.0047 8.87658 18.0047ZM73.8157 9.05626 82.3329 9.05626C83.6986 9.05626 83.6986 6.90001 82.3329 6.90001L73.8157 6.90001C72.4142 6.90001 72.4142 9.05626 73.8157 9.05626ZM76.7267 13.6922C77.7329 13.6922 78.8111 13.5844 79.7814 13.7641 80.3122 13.8886 80.8537 13.9609 81.3986 13.9797 81.9736 14.0156 82.5126 13.9797 83.0876 13.9797 84.4892 13.9438 84.4892 11.7875 83.0876 11.8235 82.1996 11.8594 81.3105 11.8233 80.4282 11.7156 79.4274 11.5842 78.4186 11.5242 77.4095 11.536L75.4689 11.6078 74.8579 11.6078 74.3548 11.3203C73.9282 11.2142 73.4768 11.2787 73.097 11.5 72.5885 11.7697 72.3948 12.4005 72.6646 12.909 72.6761 12.9309 72.6884 12.9524 72.7017 12.9735 73.6001 14.1953 75.397 13.6922 76.7267 13.6922ZM89.8798 69.611C89.1611 69.611 88.4782 69.7188 87.7595 69.6829 87.1058 69.6401 86.4568 69.5438 85.8189 69.3954 84.3454 69.2157 82.872 69.3595 81.3626 69.3595 79.8532 69.3595 79.997 71.5157 81.3626 71.5157 82.7282 71.5157 84.2376 71.336 85.6032 71.5517 86.3137 71.7026 87.0343 71.7989 87.7595 71.8392 88.4782 71.8751 89.1611 71.7673 89.8798 71.7673 91.2814 71.7673 91.2814 69.611 89.8798 69.611ZM89.3767 73.7439C88.7657 73.8157 88.1189 73.4923 87.472 73.3485 86.5966 73.1584 85.7071 73.0384 84.8126 72.9892 83.2314 72.8814 81.5423 72.7376 80.0689 73.3845 79.5298 73.6001 79.422 74.3907 79.6735 74.8579 79.9833 75.3614 80.6403 75.5217 81.147 75.2173 81.7349 75.0775 82.3412 75.029 82.9439 75.0735L85.1361 75.1454C85.8544 75.2044 86.5649 75.3366 87.2564 75.5407 87.9392 75.7204 88.6579 76.0079 89.3767 75.9001 89.9643 75.8814 90.4361 75.4096 90.4548 74.822 90.4548 74.2829 89.9517 73.672 89.3767 73.7439ZM17.8969 85.8907C18.5078 85.9626 19.1188 86.1423 19.7657 86.2501L20.9157 86.3939 21.9578 86.5736C22.5029 86.557 23.0447 86.4848 23.575 86.3579 24.139 86.1844 24.47 85.6014 24.3297 85.0282 24.186 84.3814 23.611 84.1657 23 84.2736L22.2813 84.4173 21.886 84.4173C21.2391 84.2736 20.5563 84.2736 19.9094 84.1298 18.5689 83.8053 17.1912 83.6601 15.8125 83.6986 15.225 83.7172 14.753 84.1891 14.7344 84.7767 14.7344 85.3722 15.2171 85.8548 15.8125 85.8548ZM25.1203 87.8314C24.4556 87.8325 23.7927 87.7602 23.1438 87.6158 22.3857 87.3947 21.5969 87.2977 20.8078 87.3282 20.0532 87.4001 19.3703 87.5798 18.6157 87.5798 17.8431 87.6204 17.0744 87.7164 16.3156 87.8673 15.7412 88.024 15.4026 88.617 15.5594 89.1913 15.5599 89.193 15.5604 89.1952 15.561 89.197 15.7344 89.7609 16.3175 90.0919 16.8906 89.9517 17.5517 89.8072 18.2265 89.735 18.9032 89.7361 19.6219 89.7361 20.2688 89.5204 20.9516 89.4845 21.6087 89.4892 22.2619 89.5862 22.8922 89.772 23.6261 89.9165 24.3724 89.9887 25.1203 89.9876 26.486 89.9876 26.486 87.8314 25.1203 87.8314Z" transform="matrix(1.01087 0 0 1 2767 669)"/></g></g></g></g></svg>