<svg width="124" height="124" xmlns="http://www.w3.org/2000/svg" xmlns:xlink="http://www.w3.org/1999/xlink" xml:space="preserve" overflow="hidden"><g transform="translate(-2724 -1347)"><rect x="2726.5" y="1349.5" width="119" height="119" stroke="#000000" stroke-width="4.58333" stroke-miterlimit="8" fill="#FFFFFF"/><g><g><g><path d="M95.8783 97.3267 95.8783 56.9718 79.5834 56.9718 79.5834 97.3267 73.1459 97.3267 73.1459 74.0713 56.9315 74.0713 56.9315 97.3267 50.5745 97.3267 50.5745 79.503 34.3601 79.503 34.3601 97.3267 28.0031 97.3267 28.0031 67.312 11.7886 67.312 11.7886 97.3267 5.43163 97.3267 5.43163 0.683983 0.683983 0.683983 0.683983 102.074 102.074 102.074 102.074 97.3267Z" transform="matrix(1 0 0 1 2734 1357)"/><path d="M11.8289 43.8956 28.0031 43.8956 28.0031 65.9038 11.8289 65.9038ZM34.2796 56.0464 50.494 56.0464 50.494 78.0545 34.2796 78.0545ZM56.9718 60.1905 73.1459 60.1905 73.1459 72.6631 56.9718 72.6631ZM79.6236 36.2913 95.8381 36.2913 95.8381 55.4026 79.6236 55.4026Z" fill="#000000" fill-opacity="0.5" transform="matrix(1 0 0 1 2734 1357)"/><path d="M11.8289 0.84492 28.0433 0.84492 28.0433 42.4472 11.8289 42.4472ZM34.2796 35.205 50.494 35.205 50.494 54.5979 34.2796 54.5979ZM56.9718 45.5452 73.1862 45.5452 73.1862 58.7421 56.9718 58.7421ZM79.6639 28.2445 95.8783 28.2445 95.8783 34.8429 79.6639 34.8429Z" fill="#000000" fill-opacity="0.75" transform="matrix(1 0 0 1 2734 1357)"/></g></g></g></g></svg>