<svg width="124" height="124" xmlns="http://www.w3.org/2000/svg" xmlns:xlink="http://www.w3.org/1999/xlink" xml:space="preserve" overflow="hidden"><g transform="translate(-874 -2265)"><rect x="876.5" y="2267.5" width="119" height="119" stroke="#000000" stroke-width="4.58333" stroke-miterlimit="8" fill="#FFFFFF"/><g><g><g><path d="M99.6978 100.645 0.276171 100.645 0.276171 1.22304 4.93163 1.22304 4.93163 95.9892 99.6978 95.9892ZM99.6583 93.622 99.6583 48.1327 94.8056 44.8581 80.208 54.8791 66.7939 53.2616 52.6303 71.0943 37.2436 79.2216 23.3956 67.8592 7.18045 73.4221 7.18045 93.622Z" transform="matrix(1 0 0 1 885 2276)"/><path d="M99.5005 46.2784 94.6083 43.0432 80.0107 53.0643 66.6361 51.4467 52.433 69.2795 37.0464 77.4068 23.2378 66.0443 6.98318 71.5678 7.18045 61.7045 23.3562 57.917 37.1253 48.8034 52.9854 54.8397 67.7014 26.0784 80.1291 38.4272 94.8845 35.9022 99.5005 29.9448" fill="#000000" fill-opacity="0.5" transform="matrix(1 0 0 1 885 2276)"/><path d="M99.7372 14.0847 94.8845 12.4672 80.2474 20.8706 67.5041 17.5171 52.7881 30.6155 37.1253 28.998 23.3562 45.5682 7.2199 51.8018 7.18045 60.0475 23.3562 56.2994 37.1253 47.1463 52.433 52.6303 67.5041 24.1452 80.1291 36.7702 94.8845 34.2452 99.5005 28.2878" fill="#000000" fill-opacity="0.75" transform="matrix(1 0 0 1 885 2276)"/></g></g></g></g></svg>