<svg width="124" height="124" xmlns="http://www.w3.org/2000/svg" xmlns:xlink="http://www.w3.org/1999/xlink" xml:space="preserve" overflow="hidden"><g transform="translate(-2482 -914)"><rect x="2484.5" y="916.5" width="119" height="119" stroke="#000000" stroke-width="4.58333" stroke-miterlimit="8" fill="#FFFFFF"/><g><g><g><path d="M108.427 53.4896 118.042 50.4855 118.042 76.8999 111.948 84.9472C107.768 90.4677 99.391 90.2158 95.55 84.4546L95.2307 83.9754C92.7119 80.1972 86.9148 81.1485 85.7354 85.5337L80.2943 105.768C78.5037 112.427 69.1208 112.608 67.075 106.022L61.3296 87.5292C60.2328 83.9991 56.9662 81.5932 53.2693 81.5932 50.8346 81.5932 48.5295 80.496 46.994 78.6064L45.4432 76.6977C42.1813 72.6834 35.7364 74.1157 34.4816 79.1339L32.8388 85.7042C31.9 89.4597 26.8424 90.1154 24.9769 86.7234L14.4875 67.6518C11.7684 62.707 6.57222 59.6352 0.928996 59.6352L0.928996 50.486 11.6145 51.8216C14.1766 52.1418 16.5593 53.3069 18.3852 55.1333L20.3008 57.0489C21.833 58.5811 24.1939 58.9153 26.0909 57.8687L34.2702 53.3566C35.4994 52.6786 36.8801 52.3217 38.2836 52.3198 39.8799 52.3175 41.4442 52.7739 42.7887 53.6346L46.329 55.9006C49.8977 58.1847 54.459 58.2252 58.0676 56.0042L62.1698 53.4798C63.406 52.719 64.8281 52.3166 66.2799 52.3166 69.8281 52.3166 72.9343 54.6992 73.8536 58.1262L77.09 70.1892C77.2289 70.7097 77.7016 71.0722 78.2416 71.0722 78.7816 71.0722 79.2538 70.7097 79.3936 70.1883L82.6049 58.2191C83.5088 54.8498 86.7866 52.687 90.2395 53.18L98.1911 54.3158C101.622 54.8052 105.119 54.5236 108.427 53.4896ZM111.482 19.3151C107.201 14.5005 99.6624 14.553 95.4482 19.4253L93.0284 22.2229C91.0542 24.5052 87.3731 23.9397 86.1755 21.1699L78.9893 4.5525C77.0728 0.1199 70.8435-0.0334606 68.7104 4.29922L61.6298 18.6822C60.592 20.7902 57.7688 21.2136 56.1585 19.5024L55.73 19.047C53.9139 17.1179 50.7718 17.3958 49.3232 19.6144L41.2369 31.9944C39.3241 34.9231 35.2019 35.3511 32.7287 32.8778L28.2635 28.4127C25.2948 25.444 20.4816 25.444 17.5129 28.4127L11.9408 33.9848C9.57717 36.3484 6.37099 37.6766 3.02818 37.6766L0.929461 37.6766 0.929461 46.8263 17.307 45.3373C19.7947 45.1114 22.2364 44.5254 24.555 43.5973L27.3076 42.4964C29.1367 41.7649 31.2015 41.9196 32.9011 42.916L39.8265 46.9759C41.8211 48.1452 44.3873 47.4299 45.4906 45.3986L51.0711 35.1183C51.5321 34.2688 52.7585 34.2892 53.1912 35.1541L57.9068 44.5853C58.8739 46.5195 60.8509 47.7413 63.0137 47.7413 65.3109 47.7413 67.3845 46.3648 68.2754 44.2475L73.572 31.6677C73.9066 30.8739 74.6836 30.3576 75.5452 30.3576 76.3562 30.3576 77.0974 30.8158 77.4604 31.5413L82.1225 40.8656C83.3531 43.3268 86.0328 44.7108 88.7524 44.2884L105.999 41.612C109.023 41.1426 112.111 41.8903 114.585 43.6926L118.041 46.2096 118.042 26.6909Z" transform="matrix(1.00024 0 0 1 2484 919)"/></g></g></g></g></svg>