<svg width="114" height="115" xmlns="http://www.w3.org/2000/svg" xmlns:xlink="http://www.w3.org/1999/xlink" xml:space="preserve" overflow="hidden"><g transform="translate(-1690 -1161)"><path d="M1692.5 1218.5C1692.5 1188.12 1716.9 1163.5 1747 1163.5 1777.1 1163.5 1801.5 1188.12 1801.5 1218.5 1801.5 1248.88 1777.1 1273.5 1747 1273.5 1716.9 1273.5 1692.5 1248.88 1692.5 1218.5Z" stroke="#000000" stroke-width="4.58333" stroke-miterlimit="8" fill="#FFFFFF" fill-rule="evenodd"/><g><g><g><path d="M24.8373 45.8613 15.5264 46.7342C15.5217 46.5538 15.5125 46.3745 15.5125 46.193 15.5125 35.018 24.2295 25.8465 35.2198 25.1064L35.2198 34.4586C29.4816 35.1554 25.0007 39.9765 24.8373 45.8613ZM48.4776 46.193C48.4776 49.0114 47.4847 51.6016 45.8329 53.6353L52.3286 60.3617C55.7232 56.61 57.7939 51.639 57.7939 46.1926 57.7939 35.0177 49.0772 25.8462 38.0866 25.106L38.0866 34.4583C43.9326 35.1686 48.4776 40.1584 48.4776 46.193ZM36.6532 58.0174C35.2358 58.0174 33.8761 57.7661 32.6156 57.3067L28.3799 65.6459C30.9225 66.7312 33.7184 67.3333 36.6532 67.3333 41.8348 67.3333 46.5841 65.4565 50.2647 62.351L43.7714 55.6271C41.79 57.1263 39.3239 58.0174 36.6532 58.0174ZM25.1024 48.7153 15.789 49.5886C16.805 55.8527 20.5813 61.2012 25.827 64.3423L30.0617 56.005C27.5767 54.33 25.7615 51.7361 25.1024 48.7153ZM23.0573 26.4216 18.2963 18.396C15.363 20.3397 12.7539 22.7339 10.5686 25.4804L18.1077 30.9655C19.5354 29.23 21.2033 27.7002 23.0573 26.4216ZM60.6603 46.193C60.6603 52.4475 58.254 58.149 54.3214 62.4261L60.7998 69.1347C66.4835 63.1552 69.9766 55.0744 69.9766 46.1933 69.9766 42.3031 69.3041 38.5673 68.0735 35.0935L59.4298 38.6207C60.2237 41.0028 60.6603 43.5472 60.6603 46.193ZM12.6461 46.193C12.6461 41.4444 14.0378 37.0172 16.4263 33.2868L8.88146 27.7981C5.37556 33.0733 3.32975 39.3983 3.32975 46.1933 3.32975 46.757 3.34434 47.3171 3.37209 47.874L12.6667 47.0025C12.6574 46.7332 12.6461 46.4645 12.6461 46.193ZM42.9098 69.3681 44.9037 78.4823C50.112 77.1507 54.8321 74.5878 58.7373 71.125L52.2575 64.4149C49.5843 66.7074 46.4051 68.4233 42.9098 69.3681ZM35.2198 22.2325 35.2198 12.9023C29.999 13.1243 25.085 14.5513 20.751 16.9149L25.5106 24.9384C28.4439 23.3943 31.732 22.4389 35.2198 22.2325ZM58.364 35.9589 67.0013 32.4342C61.9407 21.3161 50.9451 13.4496 38.0866 12.9023L38.0866 22.2321C47.0527 22.7634 54.7086 28.2354 58.364 35.9589ZM36.6532 70.2001C33.2516 70.2001 30.0158 69.4848 27.081 68.2034L22.8552 76.5226C27.0618 78.4439 31.7345 79.5161 36.6532 79.5161 38.5072 79.5161 40.3256 79.3613 42.0981 79.0687L40.1029 69.9485C38.9759 70.1118 37.8247 70.2001 36.6532 70.2001ZM45.5165 81.2832 47.5079 90.3875C54.9581 88.5573 61.6944 84.8898 67.2031 79.8915L60.729 73.1875C56.4463 77.0112 51.2522 79.8338 45.5165 81.2832ZM16.8327 15.9288 13.0158 9.49424 12.0354 7.93737C7.70179 10.7355 3.87278 14.2499 0.714915 18.3113L8.2491 23.7925C10.6661 20.7343 13.5667 18.0754 16.8327 15.9288ZM60.7898 19.2525 67.2077 12.4987C59.4554 5.46239 49.2729 1.05974 38.0866 0.711712L38.0866 10.0341C46.7897 10.375 54.7132 13.8029 60.7898 19.2525ZM69.6574 31.3502 78.2851 27.8294C76.0817 22.8531 73.0117 18.3437 69.267 14.4922L62.8485 21.2471C65.6512 24.189 67.9646 27.6006 69.6574 31.3502Z" transform="matrix(1 0 0 1.00989 1707 1172)"/></g></g></g></g></svg>