<svg width="124" height="124" xmlns="http://www.w3.org/2000/svg" xmlns:xlink="http://www.w3.org/1999/xlink" xml:space="preserve" overflow="hidden"><g transform="translate(-3911 -833)"><rect x="3913.5" y="835.5" width="119" height="119" stroke="#000000" stroke-width="4.58333" stroke-miterlimit="8" fill="#FFFFFF"/><g><g><g><path d="M2.64375 1.10156 2.64375 92.678 90.6952 92.678 90.6952 1.10156ZM87.0967 18.6898 47.9546 18.6898 47.9546 4.69999 87.0967 4.69999ZM18.3226 71.4913 18.3226 57.5015 44.3562 57.5015 44.3562 71.4913ZM44.3562 75.0897 44.3562 89.0795 18.3226 89.0795 18.3226 75.0897ZM44.3562 22.2882 44.3562 36.2781 18.3226 36.2781 18.3226 22.2882ZM18.3226 18.6898 18.3226 4.69999 44.3562 4.69999 44.3562 18.6898ZM44.3562 39.8765 44.3562 53.903 18.3226 53.903 18.3226 39.8765ZM14.7242 36.2781 6.24218 36.2781 6.24218 22.2882 14.7242 22.2882ZM14.7242 39.8765 14.7242 53.903 6.24218 53.903 6.24218 39.8765ZM14.7242 57.5015 14.7242 71.4913 6.24218 71.4913 6.24218 57.5015ZM47.9546 57.5015 87.0967 57.5015 87.0967 71.4913 47.9546 71.4913ZM47.9546 53.903 47.9546 39.8765 87.0967 39.8765 87.0967 53.903ZM47.9546 36.2781 47.9546 22.2882 87.0967 22.2882 87.0967 36.2781ZM14.7242 4.69999 14.7242 18.6898 6.24218 18.6898 6.24218 4.69999ZM6.24218 75.0897 14.7242 75.0897 14.7242 89.0795 6.24218 89.0795ZM47.9546 89.0795 47.9546 75.0897 87.0967 75.0897 87.0967 89.0795Z" transform="matrix(1 0 0 1 3926 848)"/></g></g></g></g></svg>