<svg width="124" height="124" xmlns="http://www.w3.org/2000/svg" xmlns:xlink="http://www.w3.org/1999/xlink" xml:space="preserve" overflow="hidden"><g transform="translate(-1740 -1384)"><rect x="1742.5" y="1386.5" width="119" height="119" stroke="#000000" stroke-width="4.58333" stroke-miterlimit="8" fill="#FFFFFF"/><g><g><g><path d="M39.8287 0.742186 0.742186 0.742186 0.742186 94.2577 39.8287 94.2577 94.2577 94.2577 94.2577 0.742186ZM90.6046 4.39523 90.6046 33.984 43.4817 33.984 43.4817 4.39523ZM72.7053 37.637 90.6046 37.637 90.6046 74.897 72.7053 74.897ZM4.39523 90.6046 4.39523 4.39523 39.8287 4.39523 39.8287 90.605 4.39523 90.605ZM43.4817 37.637 69.0523 37.637 69.0523 90.6046 43.4817 90.6046ZM72.7053 90.6046 72.7053 78.55 90.6046 78.55 90.6046 90.6046Z" transform="matrix(1 0 0 1 1755 1398)"/></g></g></g></g></svg>