<svg width="125" height="119" xmlns="http://www.w3.org/2000/svg" xmlns:xlink="http://www.w3.org/1999/xlink" xml:space="preserve" overflow="hidden"><g transform="translate(-1868 -1728)"><path d="M1871.5 1774.66 1930.5 1731.5 1989.5 1774.66 1966.96 1844.5 1894.04 1844.5Z" stroke="#000000" stroke-width="4.58333" stroke-miterlimit="8" fill="#FFFFFF" fill-rule="evenodd"/><g><g><g><path d="M64.4823 18.7089C57.8706 18.7089 51.5495 21.0339 46.5362 25.2843L46.4999 25.248 46.4636 25.2843C41.4503 21.0339 35.1656 18.7089 28.5175 18.7089 13.1871 18.7089 0.726561 31.1695 0.726561 46.4999 0.726561 61.8303 13.1871 74.2909 28.5175 74.2909 35.1292 74.2909 41.4503 71.9659 46.4636 67.7155L46.4999 67.7518 46.5362 67.7155C51.5495 71.9659 57.8343 74.2909 64.4823 74.2909 79.8127 74.2909 92.2732 61.8303 92.2732 46.4999 92.2732 31.1695 79.8127 18.7089 64.4823 18.7089ZM40.2515 46.4999C40.2515 40.3968 42.4675 34.6933 46.4999 30.2613 50.4597 34.6206 52.7483 40.4694 52.7847 46.3546 52.821 52.3487 50.5323 58.3065 46.4999 62.7749 42.4675 58.3065 40.2515 52.603 40.2515 46.4999ZM4.28671 46.4999C4.28671 33.1312 15.1488 22.2691 28.5175 22.2691 34.1847 22.2691 39.5612 24.2308 43.8843 27.791 39.198 32.9132 36.655 39.4886 36.655 46.4999 36.655 53.5112 39.2343 60.0866 43.8843 65.2088 39.5612 68.769 34.1847 70.7307 28.5175 70.7307 15.1851 70.7307 4.28671 59.8686 4.28671 46.4999Z" transform="matrix(1 0 0 1 1884 1749)"/></g></g></g></g></svg>