<svg width="124" height="124" xmlns="http://www.w3.org/2000/svg" xmlns:xlink="http://www.w3.org/1999/xlink" xml:space="preserve" overflow="hidden"><g transform="translate(-1247 -985)"><rect x="1249.5" y="987.5" width="119" height="119" stroke="#000000" stroke-width="4.58333" stroke-miterlimit="8" fill="#FFFFFF"/><g><g><g><path d="M97.8908 92.1417 97.8908 78.074 90.1134 78.074 90.1134 70.2934C91.744 69.5679 92.8826 67.9365 92.8826 66.0364 92.8826 64.1364 91.744 62.505 90.1134 61.7795L90.1134 48.558 76.181 48.558 76.181 44.3081C78.298 43.5198 79.8087 41.4864 79.8087 39.0948 79.8087 36.7031 78.298 34.6697 76.181 33.8815L76.181 19.4306 48.7773 19.4306 48.7773 13.3367C51.3757 12.5133 53.2596 10.0838 53.2596 7.21319 53.2588 3.66518 50.3827 0.78906 46.8347 0.78906 43.2867 0.78906 40.4105 3.66518 40.4105 7.21319 40.4105 10.0838 42.2944 12.5133 44.8928 13.3367L44.8928 19.4306 17.4887 19.4306 17.4887 33.8822C15.3729 34.6709 13.863 36.7039 13.863 39.0948 13.863 41.4856 15.3729 43.5186 17.4887 44.3073L17.4887 48.558 3.50777 48.558 3.50777 61.8039C1.9044 62.5405 0.78906 64.1565 0.78906 66.0364 0.78906 68.6104 2.87573 70.697 5.44964 70.697 8.02356 70.697 10.1102 68.6104 10.1102 66.0364 10.1102 64.1565 8.99489 62.5405 7.39152 61.8039L7.39152 52.4417 31.4701 52.4417 31.4701 61.8039C29.8671 62.5409 28.7514 64.1565 28.7514 66.0364 28.7514 68.6104 30.8381 70.697 33.412 70.697 35.9859 70.697 38.0722 68.6104 38.0722 66.0364 38.0722 64.1565 36.9568 62.5405 35.3534 61.8039L35.3534 48.558 21.3725 48.558 21.3725 44.3073C23.4883 43.5186 24.9982 41.4856 24.9982 39.0948 24.9982 36.7039 23.4883 34.6709 21.3725 33.8822L21.3725 23.3144 72.2969 23.3144 72.2969 33.883C70.1818 34.6725 68.6731 36.7047 68.6731 39.0948 68.6731 41.4848 70.1822 43.5171 72.2969 44.3065L72.2969 48.558 58.267 48.558 58.267 61.828C56.6912 62.5756 55.5988 64.1762 55.5988 66.0364 55.5988 67.8963 56.6912 69.4973 58.267 70.2449L58.267 78.074 50.4999 78.074 50.4999 91.9835C49.0764 92.6968 48.0972 94.1653 48.0972 95.8661 48.0972 98.2656 50.0422 100.211 52.4417 100.211 54.8413 100.211 56.7863 98.2656 56.7863 95.8661 56.7863 94.1656 55.8071 92.6972 54.3836 91.9835L54.3836 81.9573 66.0345 81.9573 66.0345 91.9835C64.611 92.6968 63.6318 94.1653 63.6318 95.8661 63.6318 98.2656 65.5768 100.211 67.9763 100.211 70.3759 100.211 72.3209 98.2656 72.3209 95.8661 72.3209 94.1656 71.3417 92.6972 69.9182 91.9835L69.9182 78.074 62.1507 78.074 62.1507 70.2934C63.7813 69.5679 64.9199 67.9365 64.9199 66.0364 64.9199 64.1364 63.7813 62.505 62.1507 61.7795L62.1507 52.4417 86.2293 52.4417 86.2293 61.828C84.6535 62.5756 83.5611 64.1762 83.5611 66.0364 83.5611 67.8963 84.6535 69.4973 86.2293 70.2449L86.2293 78.074 78.472 78.074 78.472 92.064C77.0896 92.7714 76.1415 94.2067 76.1415 95.8661 76.1415 98.2254 78.0542 100.138 80.4135 100.138 82.7728 100.138 84.6855 98.2254 84.6855 95.8661 84.6855 94.2067 83.7374 92.7718 82.3554 92.0644L82.3554 81.9577 94.0063 81.9577 94.0063 92.1319C92.6187 92.8373 91.6659 94.2753 91.6659 95.9387 91.6659 98.298 93.5786 100.211 95.9379 100.211 98.2972 100.211 100.211 98.298 100.211 95.9387 100.211 94.2832 99.2673 92.8511 97.8908 92.1417Z" transform="matrix(1 0 0 1 1258 996)"/></g></g></g></g></svg>