<svg width="125" height="124" xmlns="http://www.w3.org/2000/svg" xmlns:xlink="http://www.w3.org/1999/xlink" xml:space="preserve" overflow="hidden"><g transform="translate(-758 -2295)"><rect x="760.5" y="2297.5" width="120" height="119" stroke="#000000" stroke-width="4.58333" stroke-miterlimit="8" fill="#FFFFFF"/><g><g><g><path d="M86.8564 72.4345 73.0845 72.4345 73.0845 53.1376 86.8564 53.1376ZM86.8564 74.6282 73.0845 74.6282 73.0845 93.9658 86.8564 93.9658ZM71.3376 53.1376 57.5657 53.1376 57.5657 72.4345 71.3376 72.4345ZM71.3376 74.6282 57.5657 74.6282 57.5657 93.9658 71.3376 93.9658ZM86.8564 31.6063 73.0845 31.6063 73.0845 50.9032 86.8564 50.9032ZM102.375 31.6063 88.6033 31.6063 88.6033 50.9032 102.375 50.9032ZM102.375 53.1376 88.6033 53.1376 88.6033 72.4345 102.375 72.4345ZM102.375 74.6282 88.6033 74.6282 88.6033 93.9658 102.375 93.9658ZM30.1844 74.6282 16.4125 74.6282 16.4125 93.9658 30.1844 93.9658ZM14.6656 93.9658 14.6656 74.6282 0.893751 74.6282 0.893751 93.9658ZM30.1844 53.1376 16.4125 53.1376 16.4125 72.4345 30.1844 72.4345ZM45.7032 53.1376 31.9313 53.1376 31.9313 72.4345 45.7032 72.4345ZM45.7032 74.6282 31.9313 74.6282 31.9313 93.9658 45.7032 93.9658Z" transform="matrix(1 0 0 1.00961 768 2304)"/><path d="M14.6656 31.6063 0.893751 31.6063 0.893751 50.9032 14.6656 50.9032ZM14.6656 10.075 0.893751 10.075 0.893751 29.3719 14.6656 29.3719ZM30.1844 10.075 16.4125 10.075 16.4125 29.3719 30.1844 29.3719ZM45.7032 10.075 31.9313 10.075 31.9313 29.3719 45.7032 29.3719ZM71.3376 10.075 57.5657 10.075 57.5657 29.3719 71.3376 29.3719ZM30.1844 31.6063 16.4125 31.6063 16.4125 50.9032 30.1844 50.9032ZM45.7032 31.6063 31.9313 31.6063 31.9313 50.9032 45.7032 50.9032ZM14.6656 53.1376 0.893751 53.1376 0.893751 72.4345 14.6656 72.4345ZM102.375 10.075 88.6033 10.075 88.6033 29.4125 102.375 29.4125ZM71.3376 31.6063 57.5657 31.6063 57.5657 50.9032 71.3376 50.9032ZM86.8158 10.075 73.0032 10.075 73.0032 29.3719 86.8158 29.3719Z" fill="#000000" fill-opacity="0.5" transform="matrix(1 0 0 1.00961 768 2304)"/></g></g></g></g></svg>