<svg width="126" height="119" xmlns="http://www.w3.org/2000/svg" xmlns:xlink="http://www.w3.org/1999/xlink" xml:space="preserve" overflow="hidden"><g transform="translate(-409 -1574)"><path d="M412.5 1620.66 472 1577.5 531.5 1620.66 508.773 1690.5 435.227 1690.5Z" stroke="#000000" stroke-width="4.58333" stroke-miterlimit="8" fill="#FFFFFF" fill-rule="evenodd"/><g><g><g><path d="M32.4312 19.4713 26.1078 41.2277 20.1913 41.2277 16.4347 27.986 12.553 41.2277 6.63651 41.2277 0.313043 19.4713 5.97912 19.4713 9.92346 33.3391 14.0556 19.4713 19.1269 19.4713 23.0713 33.4956 27.1721 19.4713ZM36.2504 40.3825C33.1825 38.6295 31.586 34.8417 32.2434 31.0538 32.8055 27.5034 35.6062 24.728 39.1616 24.1982 42.5425 23.6973 46.299 24.9495 48.1147 28.3304 49.9303 31.7112 49.4295 35.9999 47.0816 38.6921 44.7338 41.3843 39.6312 42.2921 36.2504 40.3512ZM42.9182 35.7495C43.8886 34.5912 44.0138 32.6504 43.6069 31.1791 43.1999 29.7078 41.8538 28.706 40.4138 28.7999 38.9738 28.8938 37.8782 29.9895 37.5651 31.5547 37.2521 33.1199 37.4712 34.9356 38.5982 35.9999 39.7923 37.1276 41.6745 37.0738 42.8022 35.8797 42.8421 35.8375 42.8808 35.794 42.9182 35.7495ZM58.7581 24.6991C59.6988 24.3045 60.7122 24.1125 61.732 24.1356L61.732 29.426 60.5425 29.3321C59.4155 29.3321 58.5286 29.6765 57.8816 30.3651 57.2346 31.0538 56.9112 32.0973 56.9112 33.4956L56.9112 41.2277 51.6208 41.2277 51.6208 24.386 56.6607 24.386 56.6607 26.3895C57.1881 25.6335 57.9139 25.0378 58.7581 24.6678ZM79.8259 18.1878 79.8259 41.2277 74.7859 41.2277 74.7859 39.5373C73.4085 41.353 71.0607 41.7286 69.0572 41.3843 66.7417 40.9283 64.792 39.3756 63.8294 37.2208 61.6694 32.6504 63.2659 26.233 67.8677 24.5426 70.0277 23.7286 72.8764 23.8852 74.5355 25.8573L74.5355 18.1878ZM73.7216 35.7495C74.692 34.5912 74.8172 32.6504 74.4103 31.1791 74.0033 29.7078 72.6885 28.706 71.2485 28.7999 69.8085 28.8938 68.7129 29.9895 68.3998 31.5547 68.0868 33.1199 68.3059 34.9356 69.4329 35.9999 70.6109 37.1195 72.4735 37.072 73.593 35.894 73.6374 35.8472 73.6803 35.799 73.7216 35.7495ZM21.1304 48.0208 17.6243 60.0416 14.3687 60.0416 12.3026 52.7164 10.1426 60.0416 6.85564 60.0416 3.34956 48.0208 6.51129 48.0208 8.70259 55.6903 10.9565 48.0208 13.7739 48.0208 15.9652 55.7842 18.2191 48.0208ZM23.2591 59.6033C21.5686 58.6329 20.6921 56.5355 21.0365 54.4381 21.3531 52.4808 22.8957 50.9508 24.8556 50.6503 26.7339 50.3686 28.7999 51.0573 29.8017 52.9355 30.8034 54.8138 30.5217 57.1929 29.2382 58.6642 27.9547 60.1355 25.106 60.6677 23.2591 59.572ZM26.953 57.0364C27.4852 56.379 27.5791 55.3147 27.3286 54.5007 27.1346 53.6992 26.3994 53.1478 25.5756 53.186 24.7743 53.2757 24.1327 53.8916 24.0104 54.6886 23.8539 55.5338 23.9791 56.5668 24.5739 57.1616 25.244 57.7865 26.2939 57.7498 26.9188 57.0797 26.9414 57.0555 26.9632 57.0306 26.9843 57.0051ZM35.7182 50.9321C36.2427 50.7111 36.8083 50.6043 37.3773 50.619L37.3773 53.5616 36.7199 53.499C36.1712 53.4663 35.6351 53.6717 35.2486 54.0625 34.8938 54.4381 34.7164 55.0121 34.7164 55.7842L34.7164 60.0729 31.7738 60.0729 31.7738 50.7129 34.5599 50.7129 34.5599 51.8399C34.8535 51.4274 35.2539 51.1027 35.7182 50.9008ZM47.3947 47.3321 47.3947 60.0729 44.6086 60.0729 44.6086 59.1338C43.8573 60.1355 42.5425 60.3546 41.4469 60.1668 40.155 59.9193 39.067 59.0535 38.5356 57.8503 37.346 55.3147 38.2225 51.7773 40.7582 50.8381 41.9477 50.3999 43.5443 50.4938 44.4521 51.5581L44.4521 47.3008 47.3947 47.3008ZM44.0138 57.0364C44.546 56.379 44.6399 55.3147 44.3895 54.5007 44.2067 53.6918 43.4642 53.1349 42.6364 53.186 41.8351 53.2757 41.1935 53.8916 41.0712 54.6886 40.9147 55.5338 41.0399 56.5668 41.6347 57.1616 42.2888 57.7784 43.319 57.7482 43.9358 57.0941 43.9629 57.0654 43.9889 57.0357 44.0138 57.0051ZM61.7946 50.2434 59.6346 57.6938 57.5999 57.6938 56.3164 53.1547 54.9703 57.6938 52.9355 57.6938 50.7755 50.2434 52.7164 50.2434 54.0625 55.0016 55.4712 50.2434 57.1929 50.2434 58.539 55.0329 59.9477 50.2434 61.7633 50.2434ZM63.1094 57.3807C62.026 56.7107 61.4759 55.4356 61.732 54.1877 61.9251 52.9684 62.8894 52.0167 64.1112 51.8399 65.3294 51.6081 66.5608 52.1735 67.179 53.2486 67.7747 54.3919 67.6397 55.779 66.8346 56.786 65.8839 57.8095 64.3533 58.043 63.1407 57.3494ZM65.3946 55.7842C65.7135 55.3284 65.8058 54.7516 65.6451 54.219 65.5248 53.7184 65.0634 53.3757 64.5494 53.4051 64.0485 53.4579 63.6482 53.8453 63.579 54.3442 63.4346 54.881 63.5633 55.4545 63.9233 55.8781 64.3231 56.2606 64.9572 56.2465 65.3397 55.8467 65.3588 55.8266 65.3772 55.8058 65.3946 55.7842ZM70.8103 51.9964C71.1275 51.8649 71.4687 51.801 71.812 51.8086L71.812 53.6242 71.4051 53.6242C71.0672 53.6047 70.7371 53.7299 70.4972 53.9686 70.2526 54.2674 70.1296 54.6474 70.1529 55.0329L70.1529 57.6625 68.3372 57.6625 68.3372 51.9025 70.059 51.9025 70.059 52.5912C70.2481 52.3258 70.5086 52.1196 70.8103 51.9964ZM78.0103 49.7738 78.0103 57.6625 76.2885 57.6625 76.2885 57.099C75.808 57.652 75.0607 57.893 74.3477 57.7251 73.5595 57.5729 72.8942 57.0477 72.5633 56.3164 71.812 54.7512 72.3755 52.5599 73.9407 51.9651 74.692 51.6834 75.6624 51.746 76.2259 52.4034L76.2259 49.7738 78.0416 49.7738ZM75.9129 55.7842C76.2317 55.3284 76.324 54.7516 76.1633 54.219 76.043 53.7184 75.5817 53.3757 75.0677 53.4051 74.5668 53.4579 74.1664 53.8453 74.0972 54.3442 73.9528 54.881 74.0816 55.4545 74.4416 55.8781 74.8414 56.2606 75.4755 56.2465 75.8579 55.8467 75.8771 55.8266 75.8954 55.8058 75.9129 55.7842ZM37.8469 0.939128 33.9338 14.3687 30.3025 14.3687 27.986 6.19825 25.5756 14.3687 21.913 14.3687 18 0.939128 21.506 0.939128 23.9478 9.5165 26.5147 0.939128 29.6451 0.939128 32.0869 9.57911 34.5912 0.939128ZM40.1947 13.8678C38.2851 12.7721 37.3147 10.4556 37.7217 8.10781 38.0792 5.91591 39.8134 4.20701 42.0103 3.88173 44.1077 3.56869 46.4242 4.35129 47.5512 6.44868 48.6782 8.54607 48.3651 11.1756 46.9251 12.8348 45.4851 14.4939 42.3234 15.0574 40.226 13.8678ZM44.3269 10.9878C44.9216 10.2678 45.0155 9.07824 44.7651 8.17042 44.5534 7.26537 43.7208 6.64421 42.7929 6.69911 41.9164 6.76172 41.2277 7.45042 41.0399 8.38955 40.8521 9.32867 40.9773 10.4869 41.666 11.1443 42.4142 11.8376 43.5828 11.7931 44.2761 11.0449 44.2934 11.0262 44.3103 11.0072 44.3269 10.9878ZM54.1251 4.16347C54.7095 3.91933 55.339 3.80196 55.972 3.81912L55.972 7.10607 55.2207 7.04346C54.6036 7.00505 53.9995 7.23299 53.5616 7.66955 53.1651 8.08694 52.9668 8.73389 52.9668 9.61041L52.9668 14.3687 49.7112 14.3687 49.7112 3.97564 52.8416 3.97564 52.8416 5.22781C53.1642 4.76244 53.6081 4.39434 54.1251 4.16347ZM67.1477 0.156521 67.1477 14.3687 64.0172 14.3687 64.0172 13.3356C63.172 14.4626 61.732 14.6817 60.4799 14.4626 59.0517 14.182 57.8491 13.2246 57.2555 11.8956 55.9094 9.07824 56.9112 5.1026 59.7599 4.06956 61.1059 3.56869 62.859 3.6626 63.892 4.88347L63.892 0.156521 67.179 0.156521ZM63.3912 10.9878C63.9859 10.2678 64.0798 9.07824 63.8294 8.17042 63.6177 7.26537 62.7851 6.64421 61.8572 6.69911 60.9807 6.76172 60.292 7.45042 60.1042 8.38955 59.9164 9.32867 60.0416 10.4869 60.7303 11.1443 61.4533 11.8391 62.6027 11.8162 63.2975 11.0932 63.3301 11.0593 63.3613 11.0241 63.3912 10.9878ZM37.753 64.9877 35.7808 71.7807 33.9338 71.7807 32.7756 67.6485 31.5547 71.7807 29.7078 71.7807 27.7356 64.9877 29.5199 64.9877 30.7408 69.3077 32.0243 64.9877 33.6208 64.9877 34.8417 69.3703 36.1251 64.9877 37.7843 64.9877ZM38.9425 71.499C37.9601 70.8836 37.4614 69.7241 37.6903 68.5877 37.8695 67.4832 38.7434 66.6219 39.8503 66.459 40.957 66.2546 42.0726 66.7685 42.6364 67.7425 43.178 68.7847 43.0553 70.0481 42.3234 70.9668 41.4567 71.9076 40.0563 72.1281 38.9425 71.499ZM41.0086 70.059C41.2943 69.6481 41.3751 69.1286 41.2277 68.6503 41.1217 68.1891 40.6984 67.8717 40.226 67.899 39.7765 67.9504 39.4172 68.2968 39.3495 68.7442 39.2289 69.227 39.3452 69.7383 39.6625 70.1216 40.0484 70.4682 40.6421 70.4364 40.9887 70.0505 40.9955 70.043 41.0021 70.0354 41.0086 70.0277ZM45.9547 66.6155C46.2506 66.4863 46.5709 66.4223 46.8938 66.4277L46.8938 68.0868 46.5182 68.0868C46.2046 68.0651 45.8967 68.1791 45.6729 68.3998 45.4483 68.6714 45.3363 69.0187 45.3599 69.3703L45.3599 71.7807 43.7008 71.7807 43.7008 66.5216 45.266 66.5216 45.266 67.1477C45.4406 66.9087 45.6794 66.7242 45.9547 66.6155ZM52.5286 64.5807 52.5286 71.7807 50.9634 71.7807 50.9634 71.2485C50.5227 71.7582 49.8325 71.9761 49.179 71.812 48.4602 71.6739 47.8532 71.1953 47.5512 70.5285 46.8625 69.1198 47.3634 67.0851 48.8034 66.5842 49.4921 66.3338 50.3686 66.3964 50.9008 66.9911L50.9008 64.612 52.5599 64.612ZM50.619 70.059C50.9004 69.6463 50.9808 69.1289 50.8381 68.6503 50.7321 68.1891 50.3088 67.8717 49.8364 67.899 49.3869 67.9504 49.0276 68.2968 48.9599 68.7442 48.8394 69.227 48.9556 69.7383 49.2729 70.1216 49.6335 70.4699 50.2082 70.46 50.5566 70.0994 50.5786 70.0766 50.5995 70.0527 50.619 70.0277Z" transform="matrix(1.01074 0 0 1 431 1607)"/></g></g></g></g></svg>